{
	"asset":{
		"generator":"Khronos glTF Blender I/O v5.2.39",
		"version":"2.0"
	},
	"scene":0,
	"scenes":[
		{
			"name":"Scene",
			"nodes":[
				0
			]
		}
	],
	"nodes":[
		{
			"mesh":0,
			"name":"hair.134"
		}
	],
	"materials":[
		{
			"doubleSided":true,
			"name":"mii hair",
			"pbrMetallicRoughness":{
				"baseColorFactor":[
					0.06388100236654282,
					0.03379200026392937,
					0.009719000197947025,
					1
				],
				"metallicFactor":0,
				"roughnessFactor":0.800000011920929
			}
		}
	],
	"meshes":[
		{
			"name":"shape_341out.001",
			"primitives":[
				{
					"attributes":{
						"POSITION":0,
						"NORMAL":1,
						"TEXCOORD_0":2
					},
					"indices":3,
					"material":0
				}
			]
		}
	],
	"accessors":[
		{
			"bufferView":0,
			"componentType":5126,
			"count":808,
			"max":[
				0.05772116035223007,
				0.008513527922332287,
				0.05878124386072159
			],
			"min":[
				-0.05655945464968681,
				-0.13744091987609863,
				-0.06861819326877594
			],
			"type":"VEC3"
		},
		{
			"bufferView":1,
			"componentType":5126,
			"count":808,
			"type":"VEC3"
		},
		{
			"bufferView":2,
			"componentType":5126,
			"count":808,
			"type":"VEC2"
		},
		{
			"bufferView":3,
			"componentType":5123,
			"count":4419,
			"type":"SCALAR"
		}
	],
	"bufferViews":[
		{
			"buffer":0,
			"byteLength":9696,
			"byteOffset":0,
			"target":34962
		},
		{
			"buffer":0,
			"byteLength":9696,
			"byteOffset":9696,
			"target":34962
		},
		{
			"buffer":0,
			"byteLength":6464,
			"byteOffset":19392,
			"target":34962
		},
		{
			"buffer":0,
			"byteLength":8838,
			"byteOffset":25856,
			"target":34963
		}
	],
	"buffers":[
		{
			"byteLength":34696,
			"uri":"hair_128.bin"
		}
	]
}
