{
	"asset":{
		"generator":"Khronos glTF Blender I/O v5.2.39",
		"version":"2.0"
	},
	"scene":0,
	"scenes":[
		{
			"name":"Scene",
			"nodes":[
				0
			]
		}
	],
	"nodes":[
		{
			"mesh":0,
			"name":"hair.134"
		}
	],
	"materials":[
		{
			"doubleSided":true,
			"name":"mii hair",
			"pbrMetallicRoughness":{
				"baseColorFactor":[
					0.06388100236654282,
					0.03379200026392937,
					0.009719000197947025,
					1
				],
				"metallicFactor":0,
				"roughnessFactor":0.800000011920929
			}
		}
	],
	"meshes":[
		{
			"name":"shape_443out.002",
			"primitives":[
				{
					"attributes":{
						"POSITION":0,
						"NORMAL":1,
						"TEXCOORD_0":2
					},
					"indices":3,
					"material":0
				}
			]
		}
	],
	"accessors":[
		{
			"bufferView":0,
			"componentType":5126,
			"count":958,
			"max":[
				0.07807738333940506,
				0.006225073244422674,
				0.03575024753808975
			],
			"min":[
				-0.07807738333940506,
				-0.10748771578073502,
				-0.0651683434844017
			],
			"type":"VEC3"
		},
		{
			"bufferView":1,
			"componentType":5126,
			"count":958,
			"type":"VEC3"
		},
		{
			"bufferView":2,
			"componentType":5126,
			"count":958,
			"type":"VEC2"
		},
		{
			"bufferView":3,
			"componentType":5123,
			"count":5550,
			"type":"SCALAR"
		}
	],
	"bufferViews":[
		{
			"buffer":0,
			"byteLength":11496,
			"byteOffset":0,
			"target":34962
		},
		{
			"buffer":0,
			"byteLength":11496,
			"byteOffset":11496,
			"target":34962
		},
		{
			"buffer":0,
			"byteLength":7664,
			"byteOffset":22992,
			"target":34962
		},
		{
			"buffer":0,
			"byteLength":11100,
			"byteOffset":30656,
			"target":34963
		}
	],
	"buffers":[
		{
			"byteLength":41756,
			"uri":"hair_012.bin"
		}
	]
}
