{
	"asset":{
		"generator":"Khronos glTF Blender I/O v5.2.39",
		"version":"2.0"
	},
	"scene":0,
	"scenes":[
		{
			"name":"Scene",
			"nodes":[
				0
			]
		}
	],
	"nodes":[
		{
			"mesh":0,
			"name":"hair.077"
		}
	],
	"materials":[
		{
			"doubleSided":true,
			"name":"mii hair",
			"pbrMetallicRoughness":{
				"baseColorFactor":[
					0.06388100236654282,
					0.03379200026392937,
					0.009719000197947025,
					1
				],
				"metallicFactor":0,
				"roughnessFactor":0.800000011920929
			}
		}
	],
	"meshes":[
		{
			"name":"shape_395out.001",
			"primitives":[
				{
					"attributes":{
						"POSITION":0,
						"NORMAL":1,
						"TEXCOORD_0":2
					},
					"indices":3,
					"material":0
				}
			]
		}
	],
	"accessors":[
		{
			"bufferView":0,
			"componentType":5126,
			"count":686,
			"max":[
				0.3331766426563263,
				-1.693453311920166,
				0.36050769686698914
			],
			"min":[
				-0.3331766426563263,
				-2.4636340141296387,
				-0.42339271306991577
			],
			"type":"VEC3"
		},
		{
			"bufferView":1,
			"componentType":5126,
			"count":686,
			"type":"VEC3"
		},
		{
			"bufferView":2,
			"componentType":5126,
			"count":686,
			"type":"VEC2"
		},
		{
			"bufferView":3,
			"componentType":5123,
			"count":3702,
			"type":"SCALAR"
		}
	],
	"bufferViews":[
		{
			"buffer":0,
			"byteLength":8232,
			"byteOffset":0,
			"target":34962
		},
		{
			"buffer":0,
			"byteLength":8232,
			"byteOffset":8232,
			"target":34962
		},
		{
			"buffer":0,
			"byteLength":5488,
			"byteOffset":16464,
			"target":34962
		},
		{
			"buffer":0,
			"byteLength":7404,
			"byteOffset":21952,
			"target":34963
		}
	],
	"buffers":[
		{
			"byteLength":29356,
			"uri":"hair_hair_077.bin"
		}
	]
}
