{
	"asset":{
		"generator":"Khronos glTF Blender I/O v5.2.39",
		"version":"2.0"
	},
	"scene":0,
	"scenes":[
		{
			"name":"Scene",
			"nodes":[
				0
			]
		}
	],
	"nodes":[
		{
			"mesh":0,
			"name":"hair.111"
		}
	],
	"materials":[
		{
			"doubleSided":true,
			"name":"mii hair",
			"pbrMetallicRoughness":{
				"baseColorFactor":[
					0.06388100236654282,
					0.03379200026392937,
					0.009719000197947025,
					1
				],
				"metallicFactor":0,
				"roughnessFactor":0.800000011920929
			}
		}
	],
	"meshes":[
		{
			"name":"shape_370out.001",
			"primitives":[
				{
					"attributes":{
						"POSITION":0,
						"NORMAL":1,
						"TEXCOORD_0":2
					},
					"indices":3,
					"material":0
				}
			]
		}
	],
	"accessors":[
		{
			"bufferView":0,
			"componentType":5126,
			"count":343,
			"max":[
				0.3552727699279785,
				-1.8467940092086792,
				0.14127790927886963
			],
			"min":[
				-0.3553504943847656,
				-2.41154146194458,
				-0.42683330178260803
			],
			"type":"VEC3"
		},
		{
			"bufferView":1,
			"componentType":5126,
			"count":343,
			"type":"VEC3"
		},
		{
			"bufferView":2,
			"componentType":5126,
			"count":343,
			"type":"VEC2"
		},
		{
			"bufferView":3,
			"componentType":5123,
			"count":1614,
			"type":"SCALAR"
		}
	],
	"bufferViews":[
		{
			"buffer":0,
			"byteLength":4116,
			"byteOffset":0,
			"target":34962
		},
		{
			"buffer":0,
			"byteLength":4116,
			"byteOffset":4116,
			"target":34962
		},
		{
			"buffer":0,
			"byteLength":2744,
			"byteOffset":8232,
			"target":34962
		},
		{
			"buffer":0,
			"byteLength":3228,
			"byteOffset":10976,
			"target":34963
		}
	],
	"buffers":[
		{
			"byteLength":14204,
			"uri":"hair_hair_111.bin"
		}
	]
}
