{
	"asset":{
		"generator":"Khronos glTF Blender I/O v5.2.39",
		"version":"2.0"
	},
	"scene":0,
	"scenes":[
		{
			"name":"Scene",
			"nodes":[
				0
			]
		}
	],
	"nodes":[
		{
			"mesh":0,
			"name":"hair.057"
		}
	],
	"materials":[
		{
			"doubleSided":true,
			"name":"mii hair",
			"pbrMetallicRoughness":{
				"baseColorFactor":[
					0.06388100236654282,
					0.03379200026392937,
					0.009719000197947025,
					1
				],
				"metallicFactor":0,
				"roughnessFactor":0.800000011920929
			}
		}
	],
	"meshes":[
		{
			"name":"shape_38out.001",
			"primitives":[
				{
					"attributes":{
						"POSITION":0,
						"NORMAL":1,
						"TEXCOORD_0":2
					},
					"indices":3,
					"material":0
				}
			]
		}
	],
	"accessors":[
		{
			"bufferView":0,
			"componentType":5126,
			"count":645,
			"max":[
				0.35506123304367065,
				-1.657684326171875,
				0.34043624997138977
			],
			"min":[
				-0.35506123304367065,
				-2.2914435863494873,
				-0.46117207407951355
			],
			"type":"VEC3"
		},
		{
			"bufferView":1,
			"componentType":5126,
			"count":645,
			"type":"VEC3"
		},
		{
			"bufferView":2,
			"componentType":5126,
			"count":645,
			"type":"VEC2"
		},
		{
			"bufferView":3,
			"componentType":5123,
			"count":2562,
			"type":"SCALAR"
		}
	],
	"bufferViews":[
		{
			"buffer":0,
			"byteLength":7740,
			"byteOffset":0,
			"target":34962
		},
		{
			"buffer":0,
			"byteLength":7740,
			"byteOffset":7740,
			"target":34962
		},
		{
			"buffer":0,
			"byteLength":5160,
			"byteOffset":15480,
			"target":34962
		},
		{
			"buffer":0,
			"byteLength":5124,
			"byteOffset":20640,
			"target":34963
		}
	],
	"buffers":[
		{
			"byteLength":25764,
			"uri":"hair_hair_057.bin"
		}
	]
}
