{
	"asset":{
		"generator":"Khronos glTF Blender I/O v5.2.39",
		"version":"2.0"
	},
	"scene":0,
	"scenes":[
		{
			"name":"Scene",
			"nodes":[
				0
			]
		}
	],
	"nodes":[
		{
			"mesh":0,
			"name":"hair.134"
		}
	],
	"materials":[
		{
			"doubleSided":true,
			"name":"mii hair",
			"pbrMetallicRoughness":{
				"baseColorFactor":[
					0.06388100236654282,
					0.03379200026392937,
					0.009719000197947025,
					1
				],
				"metallicFactor":0,
				"roughnessFactor":0.800000011920929
			}
		}
	],
	"meshes":[
		{
			"name":"shape_389out.002",
			"primitives":[
				{
					"attributes":{
						"POSITION":0,
						"NORMAL":1,
						"TEXCOORD_0":2
					},
					"indices":3,
					"material":0
				}
			]
		}
	],
	"accessors":[
		{
			"bufferView":0,
			"componentType":5126,
			"count":767,
			"max":[
				0.057596031576395035,
				0.0082801952958107,
				0.0630231723189354
			],
			"min":[
				-0.057608455419540405,
				-0.14040666818618774,
				-0.06762880831956863
			],
			"type":"VEC3"
		},
		{
			"bufferView":1,
			"componentType":5126,
			"count":767,
			"type":"VEC3"
		},
		{
			"bufferView":2,
			"componentType":5126,
			"count":767,
			"type":"VEC2"
		},
		{
			"bufferView":3,
			"componentType":5123,
			"count":4089,
			"type":"SCALAR"
		}
	],
	"bufferViews":[
		{
			"buffer":0,
			"byteLength":9204,
			"byteOffset":0,
			"target":34962
		},
		{
			"buffer":0,
			"byteLength":9204,
			"byteOffset":9204,
			"target":34962
		},
		{
			"buffer":0,
			"byteLength":6136,
			"byteOffset":18408,
			"target":34962
		},
		{
			"buffer":0,
			"byteLength":8178,
			"byteOffset":24544,
			"target":34963
		}
	],
	"buffers":[
		{
			"byteLength":32724,
			"uri":"hair_071.bin"
		}
	]
}
