{
	"asset":{
		"generator":"Khronos glTF Blender I/O v5.2.39",
		"version":"2.0"
	},
	"scene":0,
	"scenes":[
		{
			"name":"Scene",
			"nodes":[
				0
			]
		}
	],
	"nodes":[
		{
			"mesh":0,
			"name":"hair.134"
		}
	],
	"materials":[
		{
			"doubleSided":true,
			"name":"mii hair",
			"pbrMetallicRoughness":{
				"baseColorFactor":[
					0.06388100236654282,
					0.03379200026392937,
					0.009719000197947025,
					1
				],
				"metallicFactor":0,
				"roughnessFactor":0.800000011920929
			}
		}
	],
	"meshes":[
		{
			"name":"shape_427out.002",
			"primitives":[
				{
					"attributes":{
						"POSITION":0,
						"NORMAL":1,
						"TEXCOORD_0":2
					},
					"indices":3,
					"material":0
				}
			]
		}
	],
	"accessors":[
		{
			"bufferView":0,
			"componentType":5126,
			"count":712,
			"max":[
				0.060397423803806305,
				0.006973302457481623,
				0.057770922780036926
			],
			"min":[
				-0.06040984392166138,
				-0.1199253499507904,
				-0.06937827169895172
			],
			"type":"VEC3"
		},
		{
			"bufferView":1,
			"componentType":5126,
			"count":712,
			"type":"VEC3"
		},
		{
			"bufferView":2,
			"componentType":5126,
			"count":712,
			"type":"VEC2"
		},
		{
			"bufferView":3,
			"componentType":5123,
			"count":3894,
			"type":"SCALAR"
		}
	],
	"bufferViews":[
		{
			"buffer":0,
			"byteLength":8544,
			"byteOffset":0,
			"target":34962
		},
		{
			"buffer":0,
			"byteLength":8544,
			"byteOffset":8544,
			"target":34962
		},
		{
			"buffer":0,
			"byteLength":5696,
			"byteOffset":17088,
			"target":34962
		},
		{
			"buffer":0,
			"byteLength":7788,
			"byteOffset":22784,
			"target":34963
		}
	],
	"buffers":[
		{
			"byteLength":30572,
			"uri":"hair_053.bin"
		}
	]
}
