{
	"asset":{
		"generator":"Khronos glTF Blender I/O v5.2.39",
		"version":"2.0"
	},
	"scene":0,
	"scenes":[
		{
			"name":"Scene",
			"nodes":[
				0
			]
		}
	],
	"nodes":[
		{
			"mesh":0,
			"name":"hair.024"
		}
	],
	"materials":[
		{
			"doubleSided":true,
			"name":"mii hair",
			"pbrMetallicRoughness":{
				"baseColorFactor":[
					0.06388100236654282,
					0.03379200026392937,
					0.009719000197947025,
					1
				],
				"metallicFactor":0,
				"roughnessFactor":0.800000011920929
			}
		}
	],
	"meshes":[
		{
			"name":"shape_455out.001",
			"primitives":[
				{
					"attributes":{
						"POSITION":0,
						"NORMAL":1,
						"TEXCOORD_0":2
					},
					"indices":3,
					"material":0
				}
			]
		}
	],
	"accessors":[
		{
			"bufferView":0,
			"componentType":5126,
			"count":1068,
			"max":[
				0.5329942107200623,
				-1.6878281831741333,
				0.32208526134490967
			],
			"min":[
				-0.5329942107200623,
				-2.580087184906006,
				-0.42721596360206604
			],
			"type":"VEC3"
		},
		{
			"bufferView":1,
			"componentType":5126,
			"count":1068,
			"type":"VEC3"
		},
		{
			"bufferView":2,
			"componentType":5126,
			"count":1068,
			"type":"VEC2"
		},
		{
			"bufferView":3,
			"componentType":5123,
			"count":5685,
			"type":"SCALAR"
		}
	],
	"bufferViews":[
		{
			"buffer":0,
			"byteLength":12816,
			"byteOffset":0,
			"target":34962
		},
		{
			"buffer":0,
			"byteLength":12816,
			"byteOffset":12816,
			"target":34962
		},
		{
			"buffer":0,
			"byteLength":8544,
			"byteOffset":25632,
			"target":34962
		},
		{
			"buffer":0,
			"byteLength":11370,
			"byteOffset":34176,
			"target":34963
		}
	],
	"buffers":[
		{
			"byteLength":45548,
			"uri":"hair_hair_024.bin"
		}
	]
}
