{
	"asset":{
		"generator":"Khronos glTF Blender I/O v5.2.39",
		"version":"2.0"
	},
	"scene":0,
	"scenes":[
		{
			"name":"Scene",
			"nodes":[
				0
			]
		}
	],
	"nodes":[
		{
			"mesh":0,
			"name":"hair.134"
		}
	],
	"materials":[
		{
			"doubleSided":true,
			"name":"mii hair",
			"pbrMetallicRoughness":{
				"baseColorFactor":[
					0.06388100236654282,
					0.03379200026392937,
					0.009719000197947025,
					1
				],
				"metallicFactor":0,
				"roughnessFactor":0.800000011920929
			}
		}
	],
	"meshes":[
		{
			"name":"shape_346out.002",
			"primitives":[
				{
					"attributes":{
						"POSITION":0,
						"NORMAL":1,
						"TEXCOORD_0":2
					},
					"indices":3,
					"material":0
				}
			]
		}
	],
	"accessors":[
		{
			"bufferView":0,
			"componentType":5126,
			"count":833,
			"max":[
				0.061726853251457214,
				0.007182873319834471,
				0.05604643002152443
			],
			"min":[
				-0.061726853251457214,
				-0.15289713442325592,
				-0.07264489680528641
			],
			"type":"VEC3"
		},
		{
			"bufferView":1,
			"componentType":5126,
			"count":833,
			"type":"VEC3"
		},
		{
			"bufferView":2,
			"componentType":5126,
			"count":833,
			"type":"VEC2"
		},
		{
			"bufferView":3,
			"componentType":5123,
			"count":4272,
			"type":"SCALAR"
		}
	],
	"bufferViews":[
		{
			"buffer":0,
			"byteLength":9996,
			"byteOffset":0,
			"target":34962
		},
		{
			"buffer":0,
			"byteLength":9996,
			"byteOffset":9996,
			"target":34962
		},
		{
			"buffer":0,
			"byteLength":6664,
			"byteOffset":19992,
			"target":34962
		},
		{
			"buffer":0,
			"byteLength":8544,
			"byteOffset":26656,
			"target":34963
		}
	],
	"buffers":[
		{
			"byteLength":35200,
			"uri":"hair_089.bin"
		}
	]
}
