{
	"asset":{
		"generator":"Khronos glTF Blender I/O v5.2.39",
		"version":"2.0"
	},
	"scene":0,
	"scenes":[
		{
			"name":"Scene",
			"nodes":[
				0
			]
		}
	],
	"nodes":[
		{
			"mesh":0,
			"name":"hair.134"
		}
	],
	"materials":[
		{
			"doubleSided":true,
			"name":"mii hair",
			"pbrMetallicRoughness":{
				"baseColorFactor":[
					0.06388100236654282,
					0.03379200026392937,
					0.009719000197947025,
					1
				],
				"metallicFactor":0,
				"roughnessFactor":0.800000011920929
			}
		}
	],
	"meshes":[
		{
			"name":"shape_351out.002",
			"primitives":[
				{
					"attributes":{
						"POSITION":0,
						"NORMAL":1,
						"TEXCOORD_0":2
					},
					"indices":3,
					"material":0
				}
			]
		}
	],
	"accessors":[
		{
			"bufferView":0,
			"componentType":5126,
			"count":853,
			"max":[
				0.05800292268395424,
				0.007081367075443268,
				0.05780227482318878
			],
			"min":[
				-0.05801534652709961,
				-0.1375238448381424,
				-0.07210254669189453
			],
			"type":"VEC3"
		},
		{
			"bufferView":1,
			"componentType":5126,
			"count":853,
			"type":"VEC3"
		},
		{
			"bufferView":2,
			"componentType":5126,
			"count":853,
			"type":"VEC2"
		},
		{
			"bufferView":3,
			"componentType":5123,
			"count":4644,
			"type":"SCALAR"
		}
	],
	"bufferViews":[
		{
			"buffer":0,
			"byteLength":10236,
			"byteOffset":0,
			"target":34962
		},
		{
			"buffer":0,
			"byteLength":10236,
			"byteOffset":10236,
			"target":34962
		},
		{
			"buffer":0,
			"byteLength":6824,
			"byteOffset":20472,
			"target":34962
		},
		{
			"buffer":0,
			"byteLength":9288,
			"byteOffset":27296,
			"target":34963
		}
	],
	"buffers":[
		{
			"byteLength":36584,
			"uri":"hair_094.bin"
		}
	]
}
