{
	"asset":{
		"generator":"Khronos glTF Blender I/O v5.2.39",
		"version":"2.0"
	},
	"scene":0,
	"scenes":[
		{
			"name":"Scene",
			"nodes":[
				0
			]
		}
	],
	"nodes":[
		{
			"mesh":0,
			"name":"hair.134"
		}
	],
	"materials":[
		{
			"doubleSided":true,
			"name":"mii hair",
			"pbrMetallicRoughness":{
				"baseColorFactor":[
					0.06388100236654282,
					0.03379200026392937,
					0.009719000197947025,
					1
				],
				"metallicFactor":0,
				"roughnessFactor":0.800000011920929
			}
		}
	],
	"meshes":[
		{
			"name":"shape_333out.001",
			"primitives":[
				{
					"attributes":{
						"POSITION":0,
						"NORMAL":1,
						"TEXCOORD_0":2
					},
					"indices":3,
					"material":0
				}
			]
		}
	],
	"accessors":[
		{
			"bufferView":0,
			"componentType":5126,
			"count":676,
			"max":[
				0.06293325871229172,
				0.007466969545930624,
				0.05380495637655258
			],
			"min":[
				-0.06293325871229172,
				-0.14521074295043945,
				-0.07416485249996185
			],
			"type":"VEC3"
		},
		{
			"bufferView":1,
			"componentType":5126,
			"count":676,
			"type":"VEC3"
		},
		{
			"bufferView":2,
			"componentType":5126,
			"count":676,
			"type":"VEC2"
		},
		{
			"bufferView":3,
			"componentType":5123,
			"count":3702,
			"type":"SCALAR"
		}
	],
	"bufferViews":[
		{
			"buffer":0,
			"byteLength":8112,
			"byteOffset":0,
			"target":34962
		},
		{
			"buffer":0,
			"byteLength":8112,
			"byteOffset":8112,
			"target":34962
		},
		{
			"buffer":0,
			"byteLength":5408,
			"byteOffset":16224,
			"target":34962
		},
		{
			"buffer":0,
			"byteLength":7404,
			"byteOffset":21632,
			"target":34963
		}
	],
	"buffers":[
		{
			"byteLength":29036,
			"uri":"hair_120.bin"
		}
	]
}
