{
	"asset":{
		"generator":"Khronos glTF Blender I/O v5.2.39",
		"version":"2.0"
	},
	"scene":0,
	"scenes":[
		{
			"name":"Scene",
			"nodes":[
				0
			]
		}
	],
	"nodes":[
		{
			"mesh":0,
			"name":"hair.067"
		}
	],
	"materials":[
		{
			"doubleSided":true,
			"name":"mii hair",
			"pbrMetallicRoughness":{
				"baseColorFactor":[
					0.06388100236654282,
					0.03379200026392937,
					0.009719000197947025,
					1
				],
				"metallicFactor":0,
				"roughnessFactor":0.800000011920929
			}
		}
	],
	"meshes":[
		{
			"name":"shape_384out.001",
			"primitives":[
				{
					"attributes":{
						"POSITION":0,
						"NORMAL":1,
						"TEXCOORD_0":2
					},
					"indices":3,
					"material":0
				}
			]
		}
	],
	"accessors":[
		{
			"bufferView":0,
			"componentType":5126,
			"count":759,
			"max":[
				0.3374634385108948,
				-1.6967449188232422,
				0.35095450282096863
			],
			"min":[
				-0.3321799635887146,
				-2.4115490913391113,
				-0.40316835045814514
			],
			"type":"VEC3"
		},
		{
			"bufferView":1,
			"componentType":5126,
			"count":759,
			"type":"VEC3"
		},
		{
			"bufferView":2,
			"componentType":5126,
			"count":759,
			"type":"VEC2"
		},
		{
			"bufferView":3,
			"componentType":5123,
			"count":4230,
			"type":"SCALAR"
		}
	],
	"bufferViews":[
		{
			"buffer":0,
			"byteLength":9108,
			"byteOffset":0,
			"target":34962
		},
		{
			"buffer":0,
			"byteLength":9108,
			"byteOffset":9108,
			"target":34962
		},
		{
			"buffer":0,
			"byteLength":6072,
			"byteOffset":18216,
			"target":34962
		},
		{
			"buffer":0,
			"byteLength":8460,
			"byteOffset":24288,
			"target":34963
		}
	],
	"buffers":[
		{
			"byteLength":32748,
			"uri":"hair_hair_067.bin"
		}
	]
}
