{
	"asset":{
		"generator":"Khronos glTF Blender I/O v5.2.39",
		"version":"2.0"
	},
	"scene":0,
	"scenes":[
		{
			"name":"Scene",
			"nodes":[
				0
			]
		}
	],
	"nodes":[
		{
			"mesh":0,
			"name":"hair.105"
		}
	],
	"materials":[
		{
			"doubleSided":true,
			"name":"mii hair",
			"pbrMetallicRoughness":{
				"baseColorFactor":[
					0.06388100236654282,
					0.03379200026392937,
					0.009719000197947025,
					1
				],
				"metallicFactor":0,
				"roughnessFactor":0.800000011920929
			}
		}
	],
	"meshes":[
		{
			"name":"shape_364out.001",
			"primitives":[
				{
					"attributes":{
						"POSITION":0,
						"NORMAL":1,
						"TEXCOORD_0":2
					},
					"indices":3,
					"material":0
				}
			]
		}
	],
	"accessors":[
		{
			"bufferView":0,
			"componentType":5126,
			"count":655,
			"max":[
				0.35665932297706604,
				-1.693493127822876,
				0.34261125326156616
			],
			"min":[
				-0.35673704743385315,
				-2.434502363204956,
				-0.43821898102760315
			],
			"type":"VEC3"
		},
		{
			"bufferView":1,
			"componentType":5126,
			"count":655,
			"type":"VEC3"
		},
		{
			"bufferView":2,
			"componentType":5126,
			"count":655,
			"type":"VEC2"
		},
		{
			"bufferView":3,
			"componentType":5123,
			"count":3690,
			"type":"SCALAR"
		}
	],
	"bufferViews":[
		{
			"buffer":0,
			"byteLength":7860,
			"byteOffset":0,
			"target":34962
		},
		{
			"buffer":0,
			"byteLength":7860,
			"byteOffset":7860,
			"target":34962
		},
		{
			"buffer":0,
			"byteLength":5240,
			"byteOffset":15720,
			"target":34962
		},
		{
			"buffer":0,
			"byteLength":7380,
			"byteOffset":20960,
			"target":34963
		}
	],
	"buffers":[
		{
			"byteLength":28340,
			"uri":"hair_hair_105.bin"
		}
	]
}
