{
	"asset":{
		"generator":"Khronos glTF Blender I/O v5.2.39",
		"version":"2.0"
	},
	"scene":0,
	"scenes":[
		{
			"name":"Scene",
			"nodes":[
				0
			]
		}
	],
	"nodes":[
		{
			"mesh":0,
			"name":"hair.134"
		}
	],
	"materials":[
		{
			"doubleSided":true,
			"name":"mii hair",
			"pbrMetallicRoughness":{
				"baseColorFactor":[
					0.06388100236654282,
					0.03379200026392937,
					0.009719000197947025,
					1
				],
				"metallicFactor":0,
				"roughnessFactor":0.800000011920929
			}
		}
	],
	"meshes":[
		{
			"name":"shape_383out.002",
			"primitives":[
				{
					"attributes":{
						"POSITION":0,
						"NORMAL":1,
						"TEXCOORD_0":2
					},
					"indices":3,
					"material":0
				}
			]
		}
	],
	"accessors":[
		{
			"bufferView":0,
			"componentType":5126,
			"count":729,
			"max":[
				0.07108668982982635,
				0.02612452208995819,
				0.06164577230811119
			],
			"min":[
				-0.07108668982982635,
				-0.1074884831905365,
				-0.08637059479951859
			],
			"type":"VEC3"
		},
		{
			"bufferView":1,
			"componentType":5126,
			"count":729,
			"type":"VEC3"
		},
		{
			"bufferView":2,
			"componentType":5126,
			"count":729,
			"type":"VEC2"
		},
		{
			"bufferView":3,
			"componentType":5123,
			"count":4278,
			"type":"SCALAR"
		}
	],
	"bufferViews":[
		{
			"buffer":0,
			"byteLength":8748,
			"byteOffset":0,
			"target":34962
		},
		{
			"buffer":0,
			"byteLength":8748,
			"byteOffset":8748,
			"target":34962
		},
		{
			"buffer":0,
			"byteLength":5832,
			"byteOffset":17496,
			"target":34962
		},
		{
			"buffer":0,
			"byteLength":8556,
			"byteOffset":23328,
			"target":34963
		}
	],
	"buffers":[
		{
			"byteLength":31884,
			"uri":"hair_066.bin"
		}
	]
}
