{
	"asset":{
		"generator":"Khronos glTF Blender I/O v5.2.39",
		"version":"2.0"
	},
	"scene":0,
	"scenes":[
		{
			"name":"Scene",
			"nodes":[
				0
			]
		}
	],
	"nodes":[
		{
			"mesh":0,
			"name":"hair.070"
		}
	],
	"materials":[
		{
			"doubleSided":true,
			"name":"mii hair",
			"pbrMetallicRoughness":{
				"baseColorFactor":[
					0.06388100236654282,
					0.03379200026392937,
					0.009719000197947025,
					1
				],
				"metallicFactor":0,
				"roughnessFactor":0.800000011920929
			}
		}
	],
	"meshes":[
		{
			"name":"shape_388out.001",
			"primitives":[
				{
					"attributes":{
						"POSITION":0,
						"NORMAL":1,
						"TEXCOORD_0":2
					},
					"indices":3,
					"material":0
				}
			]
		}
	],
	"accessors":[
		{
			"bufferView":0,
			"componentType":5126,
			"count":616,
			"max":[
				0.3298216760158539,
				-1.620550513267517,
				0.2373458445072174
			],
			"min":[
				-0.3298216760158539,
				-2.4115407466888428,
				-0.40305715799331665
			],
			"type":"VEC3"
		},
		{
			"bufferView":1,
			"componentType":5126,
			"count":616,
			"type":"VEC3"
		},
		{
			"bufferView":2,
			"componentType":5126,
			"count":616,
			"type":"VEC2"
		},
		{
			"bufferView":3,
			"componentType":5123,
			"count":3588,
			"type":"SCALAR"
		}
	],
	"bufferViews":[
		{
			"buffer":0,
			"byteLength":7392,
			"byteOffset":0,
			"target":34962
		},
		{
			"buffer":0,
			"byteLength":7392,
			"byteOffset":7392,
			"target":34962
		},
		{
			"buffer":0,
			"byteLength":4928,
			"byteOffset":14784,
			"target":34962
		},
		{
			"buffer":0,
			"byteLength":7176,
			"byteOffset":19712,
			"target":34963
		}
	],
	"buffers":[
		{
			"byteLength":26888,
			"uri":"hair_hair_070.bin"
		}
	]
}
