{
	"asset":{
		"generator":"Khronos glTF Blender I/O v5.2.39",
		"version":"2.0"
	},
	"scene":0,
	"scenes":[
		{
			"name":"Scene",
			"nodes":[
				0
			]
		}
	],
	"nodes":[
		{
			"mesh":0,
			"name":"hair.134"
		}
	],
	"materials":[
		{
			"doubleSided":true,
			"name":"mii hair",
			"pbrMetallicRoughness":{
				"baseColorFactor":[
					0.06388100236654282,
					0.03379200026392937,
					0.009719000197947025,
					1
				],
				"metallicFactor":0,
				"roughnessFactor":0.800000011920929
			}
		}
	],
	"meshes":[
		{
			"name":"shape_459out.002",
			"primitives":[
				{
					"attributes":{
						"POSITION":0,
						"NORMAL":1,
						"TEXCOORD_0":2
					},
					"indices":3,
					"material":0
				}
			]
		}
	],
	"accessors":[
		{
			"bufferView":0,
			"componentType":5126,
			"count":811,
			"max":[
				0.06200093403458595,
				0.00630996935069561,
				0.040909912437200546
			],
			"min":[
				-0.06200093403458595,
				-0.12882663309574127,
				-0.1017162948846817
			],
			"type":"VEC3"
		},
		{
			"bufferView":1,
			"componentType":5126,
			"count":811,
			"type":"VEC3"
		},
		{
			"bufferView":2,
			"componentType":5126,
			"count":811,
			"type":"VEC2"
		},
		{
			"bufferView":3,
			"componentType":5123,
			"count":4332,
			"type":"SCALAR"
		}
	],
	"bufferViews":[
		{
			"buffer":0,
			"byteLength":9732,
			"byteOffset":0,
			"target":34962
		},
		{
			"buffer":0,
			"byteLength":9732,
			"byteOffset":9732,
			"target":34962
		},
		{
			"buffer":0,
			"byteLength":6488,
			"byteOffset":19464,
			"target":34962
		},
		{
			"buffer":0,
			"byteLength":8664,
			"byteOffset":25952,
			"target":34963
		}
	],
	"buffers":[
		{
			"byteLength":34616,
			"uri":"hair_028.bin"
		}
	]
}
