{
	"asset":{
		"generator":"Khronos glTF Blender I/O v5.2.39",
		"version":"2.0"
	},
	"scene":0,
	"scenes":[
		{
			"name":"Scene",
			"nodes":[
				0
			]
		}
	],
	"nodes":[
		{
			"mesh":0,
			"name":"hair.134"
		}
	],
	"materials":[
		{
			"doubleSided":true,
			"name":"mii hair",
			"pbrMetallicRoughness":{
				"baseColorFactor":[
					0.06388100236654282,
					0.03379200026392937,
					0.009719000197947025,
					1
				],
				"metallicFactor":0,
				"roughnessFactor":0.800000011920929
			}
		}
	],
	"meshes":[
		{
			"name":"shape_430out.002",
			"primitives":[
				{
					"attributes":{
						"POSITION":0,
						"NORMAL":1,
						"TEXCOORD_0":2
					},
					"indices":3,
					"material":0
				}
			]
		}
	],
	"accessors":[
		{
			"bufferView":0,
			"componentType":5126,
			"count":900,
			"max":[
				0.06145630404353142,
				0.008267950266599655,
				0.06450089812278748
			],
			"min":[
				-0.06146872788667679,
				-0.16058312356472015,
				-0.06940512359142303
			],
			"type":"VEC3"
		},
		{
			"bufferView":1,
			"componentType":5126,
			"count":900,
			"type":"VEC3"
		},
		{
			"bufferView":2,
			"componentType":5126,
			"count":900,
			"type":"VEC2"
		},
		{
			"bufferView":3,
			"componentType":5123,
			"count":4794,
			"type":"SCALAR"
		}
	],
	"bufferViews":[
		{
			"buffer":0,
			"byteLength":10800,
			"byteOffset":0,
			"target":34962
		},
		{
			"buffer":0,
			"byteLength":10800,
			"byteOffset":10800,
			"target":34962
		},
		{
			"buffer":0,
			"byteLength":7200,
			"byteOffset":21600,
			"target":34962
		},
		{
			"buffer":0,
			"byteLength":9588,
			"byteOffset":28800,
			"target":34963
		}
	],
	"buffers":[
		{
			"byteLength":38388,
			"uri":"hair_056.bin"
		}
	]
}
