{
	"asset":{
		"generator":"Khronos glTF Blender I/O v5.2.39",
		"version":"2.0"
	},
	"scene":0,
	"scenes":[
		{
			"name":"Scene",
			"nodes":[
				0
			]
		}
	],
	"nodes":[
		{
			"mesh":0,
			"name":"hair.134"
		}
	],
	"materials":[
		{
			"doubleSided":true,
			"name":"mii hair",
			"pbrMetallicRoughness":{
				"baseColorFactor":[
					0.06388100236654282,
					0.03379200026392937,
					0.009719000197947025,
					1
				],
				"metallicFactor":0,
				"roughnessFactor":0.800000011920929
			}
		}
	],
	"meshes":[
		{
			"name":"shape_435out.002",
			"primitives":[
				{
					"attributes":{
						"POSITION":0,
						"NORMAL":1,
						"TEXCOORD_0":2
					},
					"indices":3,
					"material":0
				}
			]
		}
	],
	"accessors":[
		{
			"bufferView":0,
			"componentType":5126,
			"count":621,
			"max":[
				0.060615815222263336,
				0.006941905710846186,
				0.05994052439928055
			],
			"min":[
				-0.060617368668317795,
				-0.12150086462497711,
				-0.07362661510705948
			],
			"type":"VEC3"
		},
		{
			"bufferView":1,
			"componentType":5126,
			"count":621,
			"type":"VEC3"
		},
		{
			"bufferView":2,
			"componentType":5126,
			"count":621,
			"type":"VEC2"
		},
		{
			"bufferView":3,
			"componentType":5123,
			"count":3354,
			"type":"SCALAR"
		}
	],
	"bufferViews":[
		{
			"buffer":0,
			"byteLength":7452,
			"byteOffset":0,
			"target":34962
		},
		{
			"buffer":0,
			"byteLength":7452,
			"byteOffset":7452,
			"target":34962
		},
		{
			"buffer":0,
			"byteLength":4968,
			"byteOffset":14904,
			"target":34962
		},
		{
			"buffer":0,
			"byteLength":6708,
			"byteOffset":19872,
			"target":34963
		}
	],
	"buffers":[
		{
			"byteLength":26580,
			"uri":"hair_004.bin"
		}
	]
}
