{
	"asset":{
		"generator":"Khronos glTF Blender I/O v5.2.39",
		"version":"2.0"
	},
	"scene":0,
	"scenes":[
		{
			"name":"Scene",
			"nodes":[
				0
			]
		}
	],
	"nodes":[
		{
			"mesh":0,
			"name":"hair.134"
		}
	],
	"materials":[
		{
			"doubleSided":true,
			"name":"mii hair",
			"pbrMetallicRoughness":{
				"baseColorFactor":[
					0.06388100236654282,
					0.03379200026392937,
					0.009719000197947025,
					1
				],
				"metallicFactor":0,
				"roughnessFactor":0.800000011920929
			}
		}
	],
	"meshes":[
		{
			"name":"shape_419out.002",
			"primitives":[
				{
					"attributes":{
						"POSITION":0,
						"NORMAL":1,
						"TEXCOORD_0":2
					},
					"indices":3,
					"material":0
				}
			]
		}
	],
	"accessors":[
		{
			"bufferView":0,
			"componentType":5126,
			"count":715,
			"max":[
				0.06580101698637009,
				0.00853557139635086,
				0.05427795648574829
			],
			"min":[
				-0.06580101698637009,
				-0.13159333169460297,
				-0.06782663613557816
			],
			"type":"VEC3"
		},
		{
			"bufferView":1,
			"componentType":5126,
			"count":715,
			"type":"VEC3"
		},
		{
			"bufferView":2,
			"componentType":5126,
			"count":715,
			"type":"VEC2"
		},
		{
			"bufferView":3,
			"componentType":5123,
			"count":3852,
			"type":"SCALAR"
		}
	],
	"bufferViews":[
		{
			"buffer":0,
			"byteLength":8580,
			"byteOffset":0,
			"target":34962
		},
		{
			"buffer":0,
			"byteLength":8580,
			"byteOffset":8580,
			"target":34962
		},
		{
			"buffer":0,
			"byteLength":5720,
			"byteOffset":17160,
			"target":34962
		},
		{
			"buffer":0,
			"byteLength":7704,
			"byteOffset":22880,
			"target":34963
		}
	],
	"buffers":[
		{
			"byteLength":30584,
			"uri":"hair_045.bin"
		}
	]
}
