{
	"asset":{
		"generator":"Khronos glTF Blender I/O v5.2.39",
		"version":"2.0"
	},
	"scene":0,
	"scenes":[
		{
			"name":"Scene",
			"nodes":[
				0
			]
		}
	],
	"nodes":[
		{
			"mesh":0,
			"name":"hair.121"
		}
	],
	"materials":[
		{
			"doubleSided":true,
			"name":"mii hair",
			"pbrMetallicRoughness":{
				"baseColorFactor":[
					0.06388100236654282,
					0.03379200026392937,
					0.009719000197947025,
					1
				],
				"metallicFactor":0,
				"roughnessFactor":0.800000011920929
			}
		}
	],
	"meshes":[
		{
			"name":"shape_334out.002",
			"primitives":[
				{
					"attributes":{
						"POSITION":0,
						"NORMAL":1,
						"TEXCOORD_0":2
					},
					"indices":3,
					"material":0
				}
			]
		}
	],
	"accessors":[
		{
			"bufferView":0,
			"componentType":5126,
			"count":917,
			"max":[
				0.3831075429916382,
				-1.685877799987793,
				0.3998338580131531
			],
			"min":[
				-0.3831075429916382,
				-2.5273213386535645,
				-0.4466698467731476
			],
			"type":"VEC3"
		},
		{
			"bufferView":1,
			"componentType":5126,
			"count":917,
			"type":"VEC3"
		},
		{
			"bufferView":2,
			"componentType":5126,
			"count":917,
			"type":"VEC2"
		},
		{
			"bufferView":3,
			"componentType":5123,
			"count":4998,
			"type":"SCALAR"
		}
	],
	"bufferViews":[
		{
			"buffer":0,
			"byteLength":11004,
			"byteOffset":0,
			"target":34962
		},
		{
			"buffer":0,
			"byteLength":11004,
			"byteOffset":11004,
			"target":34962
		},
		{
			"buffer":0,
			"byteLength":7336,
			"byteOffset":22008,
			"target":34962
		},
		{
			"buffer":0,
			"byteLength":9996,
			"byteOffset":29344,
			"target":34963
		}
	],
	"buffers":[
		{
			"byteLength":39340,
			"uri":"hair_hair_121.bin"
		}
	]
}
