{
	"asset":{
		"generator":"Khronos glTF Blender I/O v5.2.39",
		"version":"2.0"
	},
	"scene":0,
	"scenes":[
		{
			"name":"Scene",
			"nodes":[
				0
			]
		}
	],
	"nodes":[
		{
			"mesh":0,
			"name":"hair.052"
		}
	],
	"materials":[
		{
			"doubleSided":true,
			"name":"mii hair",
			"pbrMetallicRoughness":{
				"baseColorFactor":[
					0.06388100236654282,
					0.03379200026392937,
					0.009719000197947025,
					1
				],
				"metallicFactor":0,
				"roughnessFactor":0.800000011920929
			}
		}
	],
	"meshes":[
		{
			"name":"shape_426out.001",
			"primitives":[
				{
					"attributes":{
						"POSITION":0,
						"NORMAL":1,
						"TEXCOORD_0":2
					},
					"indices":3,
					"material":0
				}
			]
		}
	],
	"accessors":[
		{
			"bufferView":0,
			"componentType":5126,
			"count":630,
			"max":[
				0.3297300934791565,
				-1.6925503015518188,
				0.23275485634803772
			],
			"min":[
				-0.3298077881336212,
				-2.65022611618042,
				-0.6201916337013245
			],
			"type":"VEC3"
		},
		{
			"bufferView":1,
			"componentType":5126,
			"count":630,
			"type":"VEC3"
		},
		{
			"bufferView":2,
			"componentType":5126,
			"count":630,
			"type":"VEC2"
		},
		{
			"bufferView":3,
			"componentType":5123,
			"count":3606,
			"type":"SCALAR"
		}
	],
	"bufferViews":[
		{
			"buffer":0,
			"byteLength":7560,
			"byteOffset":0,
			"target":34962
		},
		{
			"buffer":0,
			"byteLength":7560,
			"byteOffset":7560,
			"target":34962
		},
		{
			"buffer":0,
			"byteLength":5040,
			"byteOffset":15120,
			"target":34962
		},
		{
			"buffer":0,
			"byteLength":7212,
			"byteOffset":20160,
			"target":34963
		}
	],
	"buffers":[
		{
			"byteLength":27372,
			"uri":"hair_hair_052.bin"
		}
	]
}
