{
	"asset":{
		"generator":"Khronos glTF Blender I/O v5.2.39",
		"version":"2.0"
	},
	"scene":0,
	"scenes":[
		{
			"name":"Scene",
			"nodes":[
				0
			]
		}
	],
	"nodes":[
		{
			"mesh":0,
			"name":"hair.126"
		}
	],
	"materials":[
		{
			"doubleSided":true,
			"name":"mii hair",
			"pbrMetallicRoughness":{
				"baseColorFactor":[
					0.06388100236654282,
					0.03379200026392937,
					0.009719000197947025,
					1
				],
				"metallicFactor":0,
				"roughnessFactor":0.800000011920929
			}
		}
	],
	"meshes":[
		{
			"name":"shape_339out.002",
			"primitives":[
				{
					"attributes":{
						"POSITION":0,
						"NORMAL":1,
						"TEXCOORD_0":2
					},
					"indices":3,
					"material":0
				}
			]
		}
	],
	"accessors":[
		{
			"bufferView":0,
			"componentType":5126,
			"count":783,
			"max":[
				0.3545881509780884,
				-1.6836508512496948,
				0.36401042342185974
			],
			"min":[
				-0.3546658456325531,
				-2.6659886837005615,
				-0.433389812707901
			],
			"type":"VEC3"
		},
		{
			"bufferView":1,
			"componentType":5126,
			"count":783,
			"type":"VEC3"
		},
		{
			"bufferView":2,
			"componentType":5126,
			"count":783,
			"type":"VEC2"
		},
		{
			"bufferView":3,
			"componentType":5123,
			"count":4380,
			"type":"SCALAR"
		}
	],
	"bufferViews":[
		{
			"buffer":0,
			"byteLength":9396,
			"byteOffset":0,
			"target":34962
		},
		{
			"buffer":0,
			"byteLength":9396,
			"byteOffset":9396,
			"target":34962
		},
		{
			"buffer":0,
			"byteLength":6264,
			"byteOffset":18792,
			"target":34962
		},
		{
			"buffer":0,
			"byteLength":8760,
			"byteOffset":25056,
			"target":34963
		}
	],
	"buffers":[
		{
			"byteLength":33816,
			"uri":"hair_hair_126.bin"
		}
	]
}
