{
	"asset":{
		"generator":"Khronos glTF Blender I/O v5.2.39",
		"version":"2.0"
	},
	"scene":0,
	"scenes":[
		{
			"name":"Scene",
			"nodes":[
				0
			]
		}
	],
	"nodes":[
		{
			"mesh":0,
			"name":"hair.134"
		}
	],
	"materials":[
		{
			"doubleSided":true,
			"name":"mii hair",
			"pbrMetallicRoughness":{
				"baseColorFactor":[
					0.06388100236654282,
					0.03379200026392937,
					0.009719000197947025,
					1
				],
				"metallicFactor":0,
				"roughnessFactor":0.800000011920929
			}
		}
	],
	"meshes":[
		{
			"name":"shape_402out.002",
			"primitives":[
				{
					"attributes":{
						"POSITION":0,
						"NORMAL":1,
						"TEXCOORD_0":2
					},
					"indices":3,
					"material":0
				}
			]
		}
	],
	"accessors":[
		{
			"bufferView":0,
			"componentType":5126,
			"count":433,
			"max":[
				0.0748460590839386,
				0.014375741593539715,
				0.0650942251086235
			],
			"min":[
				-0.0748460590839386,
				-0.13368064165115356,
				-0.08513274788856506
			],
			"type":"VEC3"
		},
		{
			"bufferView":1,
			"componentType":5126,
			"count":433,
			"type":"VEC3"
		},
		{
			"bufferView":2,
			"componentType":5126,
			"count":433,
			"type":"VEC2"
		},
		{
			"bufferView":3,
			"componentType":5123,
			"count":2298,
			"type":"SCALAR"
		}
	],
	"bufferViews":[
		{
			"buffer":0,
			"byteLength":5196,
			"byteOffset":0,
			"target":34962
		},
		{
			"buffer":0,
			"byteLength":5196,
			"byteOffset":5196,
			"target":34962
		},
		{
			"buffer":0,
			"byteLength":3464,
			"byteOffset":10392,
			"target":34962
		},
		{
			"buffer":0,
			"byteLength":4596,
			"byteOffset":13856,
			"target":34963
		}
	],
	"buffers":[
		{
			"byteLength":18452,
			"uri":"hair_084.bin"
		}
	]
}
