{
	"asset":{
		"generator":"Khronos glTF Blender I/O v5.2.39",
		"version":"2.0"
	},
	"scene":0,
	"scenes":[
		{
			"name":"Scene",
			"nodes":[
				0
			]
		}
	],
	"nodes":[
		{
			"mesh":0,
			"name":"hair.134"
		}
	],
	"materials":[
		{
			"doubleSided":true,
			"name":"mii hair",
			"pbrMetallicRoughness":{
				"baseColorFactor":[
					0.06388100236654282,
					0.03379200026392937,
					0.009719000197947025,
					1
				],
				"metallicFactor":0,
				"roughnessFactor":0.800000011920929
			}
		}
	],
	"meshes":[
		{
			"name":"shape_348out.002",
			"primitives":[
				{
					"attributes":{
						"POSITION":0,
						"NORMAL":1,
						"TEXCOORD_0":2
					},
					"indices":3,
					"material":0
				}
			]
		}
	],
	"accessors":[
		{
			"bufferView":0,
			"componentType":5126,
			"count":926,
			"max":[
				0.078143410384655,
				0.0066807749681174755,
				0.058816760778427124
			],
			"min":[
				-0.078143410384655,
				-0.1334010362625122,
				-0.07525064051151276
			],
			"type":"VEC3"
		},
		{
			"bufferView":1,
			"componentType":5126,
			"count":926,
			"type":"VEC3"
		},
		{
			"bufferView":2,
			"componentType":5126,
			"count":926,
			"type":"VEC2"
		},
		{
			"bufferView":3,
			"componentType":5123,
			"count":5304,
			"type":"SCALAR"
		}
	],
	"bufferViews":[
		{
			"buffer":0,
			"byteLength":11112,
			"byteOffset":0,
			"target":34962
		},
		{
			"buffer":0,
			"byteLength":11112,
			"byteOffset":11112,
			"target":34962
		},
		{
			"buffer":0,
			"byteLength":7408,
			"byteOffset":22224,
			"target":34962
		},
		{
			"buffer":0,
			"byteLength":10608,
			"byteOffset":29632,
			"target":34963
		}
	],
	"buffers":[
		{
			"byteLength":40240,
			"uri":"hair_091.bin"
		}
	]
}
