{
	"asset":{
		"generator":"Khronos glTF Blender I/O v5.2.39",
		"version":"2.0"
	},
	"scene":0,
	"scenes":[
		{
			"name":"Scene",
			"nodes":[
				0
			]
		}
	],
	"nodes":[
		{
			"mesh":0,
			"name":"hair.134"
		}
	],
	"materials":[
		{
			"doubleSided":true,
			"name":"mii hair",
			"pbrMetallicRoughness":{
				"baseColorFactor":[
					0.06388100236654282,
					0.03379200026392937,
					0.009719000197947025,
					1
				],
				"metallicFactor":0,
				"roughnessFactor":0.800000011920929
			}
		}
	],
	"meshes":[
		{
			"name":"shape_377out.002",
			"primitives":[
				{
					"attributes":{
						"POSITION":0,
						"NORMAL":1,
						"TEXCOORD_0":2
					},
					"indices":3,
					"material":0
				}
			]
		}
	],
	"accessors":[
		{
			"bufferView":0,
			"componentType":5126,
			"count":655,
			"max":[
				0.05307822674512863,
				0.00854206271469593,
				0.06391501426696777
			],
			"min":[
				-0.05309126153588295,
				-0.10748863220214844,
				-0.06816370040178299
			],
			"type":"VEC3"
		},
		{
			"bufferView":1,
			"componentType":5126,
			"count":655,
			"type":"VEC3"
		},
		{
			"bufferView":2,
			"componentType":5126,
			"count":655,
			"type":"VEC2"
		},
		{
			"bufferView":3,
			"componentType":5123,
			"count":3702,
			"type":"SCALAR"
		}
	],
	"bufferViews":[
		{
			"buffer":0,
			"byteLength":7860,
			"byteOffset":0,
			"target":34962
		},
		{
			"buffer":0,
			"byteLength":7860,
			"byteOffset":7860,
			"target":34962
		},
		{
			"buffer":0,
			"byteLength":5240,
			"byteOffset":15720,
			"target":34962
		},
		{
			"buffer":0,
			"byteLength":7404,
			"byteOffset":20960,
			"target":34963
		}
	],
	"buffers":[
		{
			"byteLength":28364,
			"uri":"hair_060.bin"
		}
	]
}
