{
	"asset":{
		"generator":"Khronos glTF Blender I/O v5.2.39",
		"version":"2.0"
	},
	"scene":0,
	"scenes":[
		{
			"name":"Scene",
			"nodes":[
				0
			]
		}
	],
	"nodes":[
		{
			"mesh":0,
			"name":"hair.134"
		}
	],
	"materials":[
		{
			"doubleSided":true,
			"name":"mii hair",
			"pbrMetallicRoughness":{
				"baseColorFactor":[
					0.06388100236654282,
					0.03379200026392937,
					0.009719000197947025,
					1
				],
				"metallicFactor":0,
				"roughnessFactor":0.800000011920929
			}
		}
	],
	"meshes":[
		{
			"name":"shape_411out.002",
			"primitives":[
				{
					"attributes":{
						"POSITION":0,
						"NORMAL":1,
						"TEXCOORD_0":2
					},
					"indices":3,
					"material":0
				}
			]
		}
	],
	"accessors":[
		{
			"bufferView":0,
			"componentType":5126,
			"count":763,
			"max":[
				0.06760373711585999,
				0.006689060945063829,
				0.04082154110074043
			],
			"min":[
				-0.06760373711585999,
				-0.15776410698890686,
				-0.07223803550004959
			],
			"type":"VEC3"
		},
		{
			"bufferView":1,
			"componentType":5126,
			"count":763,
			"type":"VEC3"
		},
		{
			"bufferView":2,
			"componentType":5126,
			"count":763,
			"type":"VEC2"
		},
		{
			"bufferView":3,
			"componentType":5123,
			"count":4098,
			"type":"SCALAR"
		}
	],
	"bufferViews":[
		{
			"buffer":0,
			"byteLength":9156,
			"byteOffset":0,
			"target":34962
		},
		{
			"buffer":0,
			"byteLength":9156,
			"byteOffset":9156,
			"target":34962
		},
		{
			"buffer":0,
			"byteLength":6104,
			"byteOffset":18312,
			"target":34962
		},
		{
			"buffer":0,
			"byteLength":8196,
			"byteOffset":24416,
			"target":34963
		}
	],
	"buffers":[
		{
			"byteLength":32612,
			"uri":"hair_037.bin"
		}
	]
}
