{
	"asset":{
		"generator":"Khronos glTF Blender I/O v5.2.39",
		"version":"2.0"
	},
	"scene":0,
	"scenes":[
		{
			"name":"Scene",
			"nodes":[
				0
			]
		}
	],
	"nodes":[
		{
			"mesh":0,
			"name":"hair.134"
		}
	],
	"materials":[
		{
			"doubleSided":true,
			"name":"mii hair",
			"pbrMetallicRoughness":{
				"baseColorFactor":[
					0.06388100236654282,
					0.03379200026392937,
					0.009719000197947025,
					1
				],
				"metallicFactor":0,
				"roughnessFactor":0.800000011920929
			}
		}
	],
	"meshes":[
		{
			"name":"shape_398out.002",
			"primitives":[
				{
					"attributes":{
						"POSITION":0,
						"NORMAL":1,
						"TEXCOORD_0":2
					},
					"indices":3,
					"material":0
				}
			]
		}
	],
	"accessors":[
		{
			"bufferView":0,
			"componentType":5126,
			"count":657,
			"max":[
				0.06098456308245659,
				0.009765961207449436,
				0.06646255403757095
			],
			"min":[
				-0.06099698692560196,
				-0.11254335939884186,
				-0.07422329485416412
			],
			"type":"VEC3"
		},
		{
			"bufferView":1,
			"componentType":5126,
			"count":657,
			"type":"VEC3"
		},
		{
			"bufferView":2,
			"componentType":5126,
			"count":657,
			"type":"VEC2"
		},
		{
			"bufferView":3,
			"componentType":5123,
			"count":3558,
			"type":"SCALAR"
		}
	],
	"bufferViews":[
		{
			"buffer":0,
			"byteLength":7884,
			"byteOffset":0,
			"target":34962
		},
		{
			"buffer":0,
			"byteLength":7884,
			"byteOffset":7884,
			"target":34962
		},
		{
			"buffer":0,
			"byteLength":5256,
			"byteOffset":15768,
			"target":34962
		},
		{
			"buffer":0,
			"byteLength":7116,
			"byteOffset":21024,
			"target":34963
		}
	],
	"buffers":[
		{
			"byteLength":28140,
			"uri":"hair_080.bin"
		}
	]
}
