{
	"asset":{
		"generator":"Khronos glTF Blender I/O v5.2.39",
		"version":"2.0"
	},
	"scene":0,
	"scenes":[
		{
			"name":"Scene",
			"nodes":[
				0
			]
		}
	],
	"nodes":[
		{
			"mesh":0,
			"name":"hair.039"
		}
	],
	"materials":[
		{
			"doubleSided":true,
			"name":"mii hair",
			"pbrMetallicRoughness":{
				"baseColorFactor":[
					0.06388100236654282,
					0.03379200026392937,
					0.009719000197947025,
					1
				],
				"metallicFactor":0,
				"roughnessFactor":0.800000011920929
			}
		}
	],
	"meshes":[
		{
			"name":"shape_413out.001",
			"primitives":[
				{
					"attributes":{
						"POSITION":0,
						"NORMAL":1,
						"TEXCOORD_0":2
					},
					"indices":3,
					"material":0
				}
			]
		}
	],
	"accessors":[
		{
			"bufferView":0,
			"componentType":5126,
			"count":804,
			"max":[
				0.3875238597393036,
				-1.6952002048492432,
				0.3631097674369812
			],
			"min":[
				-0.3875237703323364,
				-2.5450382232666016,
				-0.6363309621810913
			],
			"type":"VEC3"
		},
		{
			"bufferView":1,
			"componentType":5126,
			"count":804,
			"type":"VEC3"
		},
		{
			"bufferView":2,
			"componentType":5126,
			"count":804,
			"type":"VEC2"
		},
		{
			"bufferView":3,
			"componentType":5123,
			"count":4308,
			"type":"SCALAR"
		}
	],
	"bufferViews":[
		{
			"buffer":0,
			"byteLength":9648,
			"byteOffset":0,
			"target":34962
		},
		{
			"buffer":0,
			"byteLength":9648,
			"byteOffset":9648,
			"target":34962
		},
		{
			"buffer":0,
			"byteLength":6432,
			"byteOffset":19296,
			"target":34962
		},
		{
			"buffer":0,
			"byteLength":8616,
			"byteOffset":25728,
			"target":34963
		}
	],
	"buffers":[
		{
			"byteLength":34344,
			"uri":"hair_hair_039.bin"
		}
	]
}
