{
	"asset":{
		"generator":"Khronos glTF Blender I/O v5.2.39",
		"version":"2.0"
	},
	"scene":0,
	"scenes":[
		{
			"name":"Scene",
			"nodes":[
				0
			]
		}
	],
	"nodes":[
		{
			"mesh":0,
			"name":"hair.103"
		}
	],
	"materials":[
		{
			"doubleSided":true,
			"name":"mii hair",
			"pbrMetallicRoughness":{
				"baseColorFactor":[
					0.06388100236654282,
					0.03379200026392937,
					0.009719000197947025,
					1
				],
				"metallicFactor":0,
				"roughnessFactor":0.800000011920929
			}
		}
	],
	"meshes":[
		{
			"name":"shape_361out.001",
			"primitives":[
				{
					"attributes":{
						"POSITION":0,
						"NORMAL":1,
						"TEXCOORD_0":2
					},
					"indices":3,
					"material":0
				}
			]
		}
	],
	"accessors":[
		{
			"bufferView":0,
			"componentType":5126,
			"count":630,
			"max":[
				0.3393920063972473,
				-1.6940299272537231,
				0.3376130759716034
			],
			"min":[
				-0.3394697308540344,
				-2.5754106044769287,
				-0.42089349031448364
			],
			"type":"VEC3"
		},
		{
			"bufferView":1,
			"componentType":5126,
			"count":630,
			"type":"VEC3"
		},
		{
			"bufferView":2,
			"componentType":5126,
			"count":630,
			"type":"VEC2"
		},
		{
			"bufferView":3,
			"componentType":5123,
			"count":3213,
			"type":"SCALAR"
		}
	],
	"bufferViews":[
		{
			"buffer":0,
			"byteLength":7560,
			"byteOffset":0,
			"target":34962
		},
		{
			"buffer":0,
			"byteLength":7560,
			"byteOffset":7560,
			"target":34962
		},
		{
			"buffer":0,
			"byteLength":5040,
			"byteOffset":15120,
			"target":34962
		},
		{
			"buffer":0,
			"byteLength":6426,
			"byteOffset":20160,
			"target":34963
		}
	],
	"buffers":[
		{
			"byteLength":26588,
			"uri":"hair_hair_103.bin"
		}
	]
}
