{
	"asset":{
		"generator":"Khronos glTF Blender I/O v5.2.39",
		"version":"2.0"
	},
	"scene":0,
	"scenes":[
		{
			"name":"Scene",
			"nodes":[
				0
			]
		}
	],
	"nodes":[
		{
			"mesh":0,
			"name":"hair.134"
		}
	],
	"materials":[
		{
			"doubleSided":true,
			"name":"mii hair",
			"pbrMetallicRoughness":{
				"baseColorFactor":[
					0.06388100236654282,
					0.03379200026392937,
					0.009719000197947025,
					1
				],
				"metallicFactor":0,
				"roughnessFactor":0.800000011920929
			}
		}
	],
	"meshes":[
		{
			"name":"shape_376out.002",
			"primitives":[
				{
					"attributes":{
						"POSITION":0,
						"NORMAL":1,
						"TEXCOORD_0":2
					},
					"indices":3,
					"material":0
				}
			]
		}
	],
	"accessors":[
		{
			"bufferView":0,
			"componentType":5126,
			"count":636,
			"max":[
				0.05109833925962448,
				0.008843855932354927,
				0.049961742013692856
			],
			"min":[
				-0.051045894622802734,
				-0.11107585579156876,
				-0.06874125450849533
			],
			"type":"VEC3"
		},
		{
			"bufferView":1,
			"componentType":5126,
			"count":636,
			"type":"VEC3"
		},
		{
			"bufferView":2,
			"componentType":5126,
			"count":636,
			"type":"VEC2"
		},
		{
			"bufferView":3,
			"componentType":5123,
			"count":3300,
			"type":"SCALAR"
		}
	],
	"bufferViews":[
		{
			"buffer":0,
			"byteLength":7632,
			"byteOffset":0,
			"target":34962
		},
		{
			"buffer":0,
			"byteLength":7632,
			"byteOffset":7632,
			"target":34962
		},
		{
			"buffer":0,
			"byteLength":5088,
			"byteOffset":15264,
			"target":34962
		},
		{
			"buffer":0,
			"byteLength":6600,
			"byteOffset":20352,
			"target":34963
		}
	],
	"buffers":[
		{
			"byteLength":26952,
			"uri":"hair_059.bin"
		}
	]
}
