{
	"asset":{
		"generator":"Khronos glTF Blender I/O v5.2.39",
		"version":"2.0"
	},
	"scene":0,
	"scenes":[
		{
			"name":"Scene",
			"nodes":[
				0
			]
		}
	],
	"nodes":[
		{
			"mesh":0,
			"name":"hair.075"
		}
	],
	"materials":[
		{
			"doubleSided":true,
			"name":"mii hair",
			"pbrMetallicRoughness":{
				"baseColorFactor":[
					0.06388100236654282,
					0.03379200026392937,
					0.009719000197947025,
					1
				],
				"metallicFactor":0,
				"roughnessFactor":0.800000011920929
			}
		}
	],
	"meshes":[
		{
			"name":"shape_393out.001",
			"primitives":[
				{
					"attributes":{
						"POSITION":0,
						"NORMAL":1,
						"TEXCOORD_0":2
					},
					"indices":3,
					"material":0
				}
			]
		}
	],
	"accessors":[
		{
			"bufferView":0,
			"componentType":5126,
			"count":500,
			"max":[
				0.38713178038597107,
				-1.6617745161056519,
				0.37642234563827515
			],
			"min":[
				-0.38713178038597107,
				-2.5393402576446533,
				-0.44869405031204224
			],
			"type":"VEC3"
		},
		{
			"bufferView":1,
			"componentType":5126,
			"count":500,
			"type":"VEC3"
		},
		{
			"bufferView":2,
			"componentType":5126,
			"count":500,
			"type":"VEC2"
		},
		{
			"bufferView":3,
			"componentType":5123,
			"count":2454,
			"type":"SCALAR"
		}
	],
	"bufferViews":[
		{
			"buffer":0,
			"byteLength":6000,
			"byteOffset":0,
			"target":34962
		},
		{
			"buffer":0,
			"byteLength":6000,
			"byteOffset":6000,
			"target":34962
		},
		{
			"buffer":0,
			"byteLength":4000,
			"byteOffset":12000,
			"target":34962
		},
		{
			"buffer":0,
			"byteLength":4908,
			"byteOffset":16000,
			"target":34963
		}
	],
	"buffers":[
		{
			"byteLength":20908,
			"uri":"hair_hair_075.bin"
		}
	]
}
