{
	"asset":{
		"generator":"Khronos glTF Blender I/O v5.2.39",
		"version":"2.0"
	},
	"scene":0,
	"scenes":[
		{
			"name":"Scene",
			"nodes":[
				0
			]
		}
	],
	"nodes":[
		{
			"mesh":0,
			"name":"hair.096"
		}
	],
	"materials":[
		{
			"doubleSided":true,
			"name":"mii hair",
			"pbrMetallicRoughness":{
				"baseColorFactor":[
					0.06388100236654282,
					0.03379200026392937,
					0.009719000197947025,
					1
				],
				"metallicFactor":0,
				"roughnessFactor":0.800000011920929
			}
		}
	],
	"meshes":[
		{
			"name":"shape_353out.001",
			"primitives":[
				{
					"attributes":{
						"POSITION":0,
						"NORMAL":1,
						"TEXCOORD_0":2
					},
					"indices":3,
					"material":0
				}
			]
		}
	],
	"accessors":[
		{
			"bufferView":0,
			"componentType":5126,
			"count":639,
			"max":[
				0.41149845719337463,
				-1.6766090393066406,
				0.3002428710460663
			],
			"min":[
				-0.41157618165016174,
				-2.6110382080078125,
				-0.5272259712219238
			],
			"type":"VEC3"
		},
		{
			"bufferView":1,
			"componentType":5126,
			"count":639,
			"type":"VEC3"
		},
		{
			"bufferView":2,
			"componentType":5126,
			"count":639,
			"type":"VEC2"
		},
		{
			"bufferView":3,
			"componentType":5123,
			"count":3480,
			"type":"SCALAR"
		}
	],
	"bufferViews":[
		{
			"buffer":0,
			"byteLength":7668,
			"byteOffset":0,
			"target":34962
		},
		{
			"buffer":0,
			"byteLength":7668,
			"byteOffset":7668,
			"target":34962
		},
		{
			"buffer":0,
			"byteLength":5112,
			"byteOffset":15336,
			"target":34962
		},
		{
			"buffer":0,
			"byteLength":6960,
			"byteOffset":20448,
			"target":34963
		}
	],
	"buffers":[
		{
			"byteLength":27408,
			"uri":"hair_hair_096.bin"
		}
	]
}
