{
	"asset":{
		"generator":"Khronos glTF Blender I/O v5.2.39",
		"version":"2.0"
	},
	"scene":0,
	"scenes":[
		{
			"name":"Scene",
			"nodes":[
				0
			]
		}
	],
	"nodes":[
		{
			"mesh":0,
			"name":"hair.134"
		}
	],
	"materials":[
		{
			"doubleSided":true,
			"name":"mii hair",
			"pbrMetallicRoughness":{
				"baseColorFactor":[
					0.06388100236654282,
					0.03379200026392937,
					0.009719000197947025,
					1
				],
				"metallicFactor":0,
				"roughnessFactor":0.800000011920929
			}
		}
	],
	"meshes":[
		{
			"name":"shape_404out.002",
			"primitives":[
				{
					"attributes":{
						"POSITION":0,
						"NORMAL":1,
						"TEXCOORD_0":2
					},
					"indices":3,
					"material":0
				}
			]
		}
	],
	"accessors":[
		{
			"bufferView":0,
			"componentType":5126,
			"count":483,
			"max":[
				0.06793007254600525,
				0.022462626919150352,
				0.061487168073654175
			],
			"min":[
				-0.06793007254600525,
				-0.1259942203760147,
				-0.0779573917388916
			],
			"type":"VEC3"
		},
		{
			"bufferView":1,
			"componentType":5126,
			"count":483,
			"type":"VEC3"
		},
		{
			"bufferView":2,
			"componentType":5126,
			"count":483,
			"type":"VEC2"
		},
		{
			"bufferView":3,
			"componentType":5123,
			"count":2508,
			"type":"SCALAR"
		}
	],
	"bufferViews":[
		{
			"buffer":0,
			"byteLength":5796,
			"byteOffset":0,
			"target":34962
		},
		{
			"buffer":0,
			"byteLength":5796,
			"byteOffset":5796,
			"target":34962
		},
		{
			"buffer":0,
			"byteLength":3864,
			"byteOffset":11592,
			"target":34962
		},
		{
			"buffer":0,
			"byteLength":5016,
			"byteOffset":15456,
			"target":34963
		}
	],
	"buffers":[
		{
			"byteLength":20472,
			"uri":"hair_030.bin"
		}
	]
}
