{
	"asset":{
		"generator":"Khronos glTF Blender I/O v5.2.39",
		"version":"2.0"
	},
	"scene":0,
	"scenes":[
		{
			"name":"Scene",
			"nodes":[
				0
			]
		}
	],
	"nodes":[
		{
			"mesh":0,
			"name":"hair.134"
		}
	],
	"materials":[
		{
			"doubleSided":true,
			"name":"mii hair",
			"pbrMetallicRoughness":{
				"baseColorFactor":[
					0.06388100236654282,
					0.03379200026392937,
					0.009719000197947025,
					1
				],
				"metallicFactor":0,
				"roughnessFactor":0.800000011920929
			}
		}
	],
	"meshes":[
		{
			"name":"shape_371out.002",
			"primitives":[
				{
					"attributes":{
						"POSITION":0,
						"NORMAL":1,
						"TEXCOORD_0":2
					},
					"indices":3,
					"material":0
				}
			]
		}
	],
	"accessors":[
		{
			"bufferView":0,
			"componentType":5126,
			"count":1997,
			"max":[
				0.06840323656797409,
				0.011826661415398121,
				0.05370155721902847
			],
			"min":[
				-0.06840323656797409,
				-0.14111328125,
				-0.07487804442644119
			],
			"type":"VEC3"
		},
		{
			"bufferView":1,
			"componentType":5126,
			"count":1997,
			"type":"VEC3"
		},
		{
			"bufferView":2,
			"componentType":5126,
			"count":1997,
			"type":"VEC2"
		},
		{
			"bufferView":3,
			"componentType":5123,
			"count":11247,
			"type":"SCALAR"
		}
	],
	"bufferViews":[
		{
			"buffer":0,
			"byteLength":23964,
			"byteOffset":0,
			"target":34962
		},
		{
			"buffer":0,
			"byteLength":23964,
			"byteOffset":23964,
			"target":34962
		},
		{
			"buffer":0,
			"byteLength":15976,
			"byteOffset":47928,
			"target":34962
		},
		{
			"buffer":0,
			"byteLength":22494,
			"byteOffset":63904,
			"target":34963
		}
	],
	"buffers":[
		{
			"byteLength":86400,
			"uri":"hair_112.bin"
		}
	]
}
