{
	"asset":{
		"generator":"Khronos glTF Blender I/O v5.2.39",
		"version":"2.0"
	},
	"scene":0,
	"scenes":[
		{
			"name":"Scene",
			"nodes":[
				0
			]
		}
	],
	"nodes":[
		{
			"mesh":0,
			"name":"hair.040"
		}
	],
	"materials":[
		{
			"doubleSided":true,
			"name":"mii hair",
			"pbrMetallicRoughness":{
				"baseColorFactor":[
					0.06388100236654282,
					0.03379200026392937,
					0.009719000197947025,
					1
				],
				"metallicFactor":0,
				"roughnessFactor":0.800000011920929
			}
		}
	],
	"meshes":[
		{
			"name":"shape_414out.001",
			"primitives":[
				{
					"attributes":{
						"POSITION":0,
						"NORMAL":1,
						"TEXCOORD_0":2
					},
					"indices":3,
					"material":0
				}
			]
		}
	],
	"accessors":[
		{
			"bufferView":0,
			"componentType":5126,
			"count":691,
			"max":[
				0.41702336072921753,
				-1.689349889755249,
				0.3835698664188385
			],
			"min":[
				-0.41702336072921753,
				-2.6522507667541504,
				-0.4615107774734497
			],
			"type":"VEC3"
		},
		{
			"bufferView":1,
			"componentType":5126,
			"count":691,
			"type":"VEC3"
		},
		{
			"bufferView":2,
			"componentType":5126,
			"count":691,
			"type":"VEC2"
		},
		{
			"bufferView":3,
			"componentType":5123,
			"count":3696,
			"type":"SCALAR"
		}
	],
	"bufferViews":[
		{
			"buffer":0,
			"byteLength":8292,
			"byteOffset":0,
			"target":34962
		},
		{
			"buffer":0,
			"byteLength":8292,
			"byteOffset":8292,
			"target":34962
		},
		{
			"buffer":0,
			"byteLength":5528,
			"byteOffset":16584,
			"target":34962
		},
		{
			"buffer":0,
			"byteLength":7392,
			"byteOffset":22112,
			"target":34963
		}
	],
	"buffers":[
		{
			"byteLength":29504,
			"uri":"hair_hair_040.bin"
		}
	]
}
