{
	"asset":{
		"generator":"Khronos glTF Blender I/O v5.2.39",
		"version":"2.0"
	},
	"scene":0,
	"scenes":[
		{
			"name":"Scene",
			"nodes":[
				0
			]
		}
	],
	"nodes":[
		{
			"mesh":0,
			"name":"hair.101"
		}
	],
	"materials":[
		{
			"doubleSided":true,
			"name":"mii hair",
			"pbrMetallicRoughness":{
				"baseColorFactor":[
					0.06388100236654282,
					0.03379200026392937,
					0.009719000197947025,
					1
				],
				"metallicFactor":0,
				"roughnessFactor":0.800000011920929
			}
		}
	],
	"meshes":[
		{
			"name":"shape_358out.001",
			"primitives":[
				{
					"attributes":{
						"POSITION":0,
						"NORMAL":1,
						"TEXCOORD_0":2
					},
					"indices":3,
					"material":0
				}
			]
		}
	],
	"accessors":[
		{
			"bufferView":0,
			"componentType":5126,
			"count":909,
			"max":[
				0.3670763373374939,
				-1.6326220035552979,
				0.37372273206710815
			],
			"min":[
				-0.3671540319919586,
				-2.7437047958374023,
				-0.5239234566688538
			],
			"type":"VEC3"
		},
		{
			"bufferView":1,
			"componentType":5126,
			"count":909,
			"type":"VEC3"
		},
		{
			"bufferView":2,
			"componentType":5126,
			"count":909,
			"type":"VEC2"
		},
		{
			"bufferView":3,
			"componentType":5123,
			"count":4578,
			"type":"SCALAR"
		}
	],
	"bufferViews":[
		{
			"buffer":0,
			"byteLength":10908,
			"byteOffset":0,
			"target":34962
		},
		{
			"buffer":0,
			"byteLength":10908,
			"byteOffset":10908,
			"target":34962
		},
		{
			"buffer":0,
			"byteLength":7272,
			"byteOffset":21816,
			"target":34962
		},
		{
			"buffer":0,
			"byteLength":9156,
			"byteOffset":29088,
			"target":34963
		}
	],
	"buffers":[
		{
			"byteLength":38244,
			"uri":"hair_hair_101.bin"
		}
	]
}
