{
	"asset":{
		"generator":"Khronos glTF Blender I/O v5.2.39",
		"version":"2.0"
	},
	"scene":0,
	"scenes":[
		{
			"name":"Scene",
			"nodes":[
				0
			]
		}
	],
	"nodes":[
		{
			"mesh":0,
			"name":"hair.022"
		}
	],
	"materials":[
		{
			"doubleSided":true,
			"name":"mii hair",
			"pbrMetallicRoughness":{
				"baseColorFactor":[
					0.06388100236654282,
					0.03379200026392937,
					0.009719000197947025,
					1
				],
				"metallicFactor":0,
				"roughnessFactor":0.800000011920929
			}
		}
	],
	"meshes":[
		{
			"name":"shape_453out.001",
			"primitives":[
				{
					"attributes":{
						"POSITION":0,
						"NORMAL":1,
						"TEXCOORD_0":2
					},
					"indices":3,
					"material":0
				}
			]
		}
	],
	"accessors":[
		{
			"bufferView":0,
			"componentType":5126,
			"count":815,
			"max":[
				0.39796581864356995,
				-1.6917320489883423,
				0.3780762255191803
			],
			"min":[
				-0.39804351329803467,
				-2.527902603149414,
				-0.4708162546157837
			],
			"type":"VEC3"
		},
		{
			"bufferView":1,
			"componentType":5126,
			"count":815,
			"type":"VEC3"
		},
		{
			"bufferView":2,
			"componentType":5126,
			"count":815,
			"type":"VEC2"
		},
		{
			"bufferView":3,
			"componentType":5123,
			"count":4428,
			"type":"SCALAR"
		}
	],
	"bufferViews":[
		{
			"buffer":0,
			"byteLength":9780,
			"byteOffset":0,
			"target":34962
		},
		{
			"buffer":0,
			"byteLength":9780,
			"byteOffset":9780,
			"target":34962
		},
		{
			"buffer":0,
			"byteLength":6520,
			"byteOffset":19560,
			"target":34962
		},
		{
			"buffer":0,
			"byteLength":8856,
			"byteOffset":26080,
			"target":34963
		}
	],
	"buffers":[
		{
			"byteLength":34936,
			"uri":"hair_hair_022.bin"
		}
	]
}
