{
	"asset":{
		"generator":"Khronos glTF Blender I/O v5.2.39",
		"version":"2.0"
	},
	"scene":0,
	"scenes":[
		{
			"name":"Scene",
			"nodes":[
				0
			]
		}
	],
	"nodes":[
		{
			"mesh":0,
			"name":"hair.134"
		}
	],
	"materials":[
		{
			"doubleSided":true,
			"name":"mii hair",
			"pbrMetallicRoughness":{
				"baseColorFactor":[
					0.06388100236654282,
					0.03379200026392937,
					0.009719000197947025,
					1
				],
				"metallicFactor":0,
				"roughnessFactor":0.800000011920929
			}
		}
	],
	"meshes":[
		{
			"name":"shape_331out.001",
			"primitives":[
				{
					"attributes":{
						"POSITION":0,
						"NORMAL":1,
						"TEXCOORD_0":2
					},
					"indices":3,
					"material":0
				}
			]
		}
	],
	"accessors":[
		{
			"bufferView":0,
			"componentType":5126,
			"count":770,
			"max":[
				0.059227246791124344,
				0.006716091651469469,
				0.05733859911561012
			],
			"min":[
				-0.059239666908979416,
				-0.10748758167028427,
				-0.10185721516609192
			],
			"type":"VEC3"
		},
		{
			"bufferView":1,
			"componentType":5126,
			"count":770,
			"type":"VEC3"
		},
		{
			"bufferView":2,
			"componentType":5126,
			"count":770,
			"type":"VEC2"
		},
		{
			"bufferView":3,
			"componentType":5123,
			"count":4296,
			"type":"SCALAR"
		}
	],
	"bufferViews":[
		{
			"buffer":0,
			"byteLength":9240,
			"byteOffset":0,
			"target":34962
		},
		{
			"buffer":0,
			"byteLength":9240,
			"byteOffset":9240,
			"target":34962
		},
		{
			"buffer":0,
			"byteLength":6160,
			"byteOffset":18480,
			"target":34962
		},
		{
			"buffer":0,
			"byteLength":8592,
			"byteOffset":24640,
			"target":34963
		}
	],
	"buffers":[
		{
			"byteLength":33232,
			"uri":"hair_118.bin"
		}
	]
}
