{
	"asset":{
		"generator":"Khronos glTF Blender I/O v5.2.39",
		"version":"2.0"
	},
	"scene":0,
	"scenes":[
		{
			"name":"Scene",
			"nodes":[
				0
			]
		}
	],
	"nodes":[
		{
			"mesh":0,
			"name":"hair.007"
		}
	],
	"materials":[
		{
			"doubleSided":true,
			"name":"mii hair",
			"pbrMetallicRoughness":{
				"baseColorFactor":[
					0.06388100236654282,
					0.03379200026392937,
					0.009719000197947025,
					1
				],
				"metallicFactor":0,
				"roughnessFactor":0.800000011920929
			}
		}
	],
	"meshes":[
		{
			"name":"shape_438out.001",
			"primitives":[
				{
					"attributes":{
						"POSITION":0,
						"NORMAL":1,
						"TEXCOORD_0":2
					},
					"indices":3,
					"material":0
				}
			]
		}
	],
	"accessors":[
		{
			"bufferView":0,
			"componentType":5126,
			"count":754,
			"max":[
				0.33788082003593445,
				-1.651121735572815,
				0.3759303390979767
			],
			"min":[
				-0.33788079023361206,
				-2.411543130874634,
				-0.6415938138961792
			],
			"type":"VEC3"
		},
		{
			"bufferView":1,
			"componentType":5126,
			"count":754,
			"type":"VEC3"
		},
		{
			"bufferView":2,
			"componentType":5126,
			"count":754,
			"type":"VEC2"
		},
		{
			"bufferView":3,
			"componentType":5123,
			"count":4107,
			"type":"SCALAR"
		}
	],
	"bufferViews":[
		{
			"buffer":0,
			"byteLength":9048,
			"byteOffset":0,
			"target":34962
		},
		{
			"buffer":0,
			"byteLength":9048,
			"byteOffset":9048,
			"target":34962
		},
		{
			"buffer":0,
			"byteLength":6032,
			"byteOffset":18096,
			"target":34962
		},
		{
			"buffer":0,
			"byteLength":8214,
			"byteOffset":24128,
			"target":34963
		}
	],
	"buffers":[
		{
			"byteLength":32344,
			"uri":"hair_hair_007.bin"
		}
	]
}
