{
	"asset":{
		"generator":"Khronos glTF Blender I/O v5.2.39",
		"version":"2.0"
	},
	"scene":0,
	"scenes":[
		{
			"name":"Scene",
			"nodes":[
				0
			]
		}
	],
	"nodes":[
		{
			"mesh":0,
			"name":"hair.134"
		}
	],
	"materials":[
		{
			"doubleSided":true,
			"name":"mii hair",
			"pbrMetallicRoughness":{
				"baseColorFactor":[
					0.06388100236654282,
					0.03379200026392937,
					0.009719000197947025,
					1
				],
				"metallicFactor":0,
				"roughnessFactor":0.800000011920929
			}
		}
	],
	"meshes":[
		{
			"name":"shape_447out.002",
			"primitives":[
				{
					"attributes":{
						"POSITION":0,
						"NORMAL":1,
						"TEXCOORD_0":2
					},
					"indices":3,
					"material":0
				}
			]
		}
	],
	"accessors":[
		{
			"bufferView":0,
			"componentType":5126,
			"count":522,
			"max":[
				0.060747478157281876,
				0.008622572757303715,
				0.04774840176105499
			],
			"min":[
				-0.060747478157281876,
				-0.1125437468290329,
				-0.06593014299869537
			],
			"type":"VEC3"
		},
		{
			"bufferView":1,
			"componentType":5126,
			"count":522,
			"type":"VEC3"
		},
		{
			"bufferView":2,
			"componentType":5126,
			"count":522,
			"type":"VEC2"
		},
		{
			"bufferView":3,
			"componentType":5123,
			"count":2886,
			"type":"SCALAR"
		}
	],
	"bufferViews":[
		{
			"buffer":0,
			"byteLength":6264,
			"byteOffset":0,
			"target":34962
		},
		{
			"buffer":0,
			"byteLength":6264,
			"byteOffset":6264,
			"target":34962
		},
		{
			"buffer":0,
			"byteLength":4176,
			"byteOffset":12528,
			"target":34962
		},
		{
			"buffer":0,
			"byteLength":5772,
			"byteOffset":16704,
			"target":34963
		}
	],
	"buffers":[
		{
			"byteLength":22476,
			"uri":"hair_016.bin"
		}
	]
}
