{
	"asset":{
		"generator":"Khronos glTF Blender I/O v5.2.39",
		"version":"2.0"
	},
	"scene":0,
	"scenes":[
		{
			"name":"Scene",
			"nodes":[
				0
			]
		}
	],
	"nodes":[
		{
			"mesh":0,
			"name":"hair.134"
		}
	],
	"materials":[
		{
			"doubleSided":true,
			"name":"mii hair",
			"pbrMetallicRoughness":{
				"baseColorFactor":[
					0.06388100236654282,
					0.03379200026392937,
					0.009719000197947025,
					1
				],
				"metallicFactor":0,
				"roughnessFactor":0.800000011920929
			}
		}
	],
	"meshes":[
		{
			"name":"shape_378out.002",
			"primitives":[
				{
					"attributes":{
						"POSITION":0,
						"NORMAL":1,
						"TEXCOORD_0":2
					},
					"indices":3,
					"material":0
				}
			]
		}
	],
	"accessors":[
		{
			"bufferView":0,
			"componentType":5126,
			"count":471,
			"max":[
				0.050575848668813705,
				0.022637367248535156,
				0.04148508608341217
			],
			"min":[
				-0.050575848668813705,
				-0.1074884682893753,
				-0.06401699036359787
			],
			"type":"VEC3"
		},
		{
			"bufferView":1,
			"componentType":5126,
			"count":471,
			"type":"VEC3"
		},
		{
			"bufferView":2,
			"componentType":5126,
			"count":471,
			"type":"VEC2"
		},
		{
			"bufferView":3,
			"componentType":5123,
			"count":2646,
			"type":"SCALAR"
		}
	],
	"bufferViews":[
		{
			"buffer":0,
			"byteLength":5652,
			"byteOffset":0,
			"target":34962
		},
		{
			"buffer":0,
			"byteLength":5652,
			"byteOffset":5652,
			"target":34962
		},
		{
			"buffer":0,
			"byteLength":3768,
			"byteOffset":11304,
			"target":34962
		},
		{
			"buffer":0,
			"byteLength":5292,
			"byteOffset":15072,
			"target":34963
		}
	],
	"buffers":[
		{
			"byteLength":20364,
			"uri":"hair_061.bin"
		}
	]
}
