{
	"asset":{
		"generator":"Khronos glTF Blender I/O v5.2.39",
		"version":"2.0"
	},
	"scene":0,
	"scenes":[
		{
			"name":"Scene",
			"nodes":[
				0
			]
		}
	],
	"nodes":[
		{
			"mesh":0,
			"name":"hair.134"
		}
	],
	"materials":[
		{
			"doubleSided":true,
			"name":"mii hair",
			"pbrMetallicRoughness":{
				"baseColorFactor":[
					0.06388100236654282,
					0.03379200026392937,
					0.009719000197947025,
					1
				],
				"metallicFactor":0,
				"roughnessFactor":0.800000011920929
			}
		}
	],
	"meshes":[
		{
			"name":"shape_449out.002",
			"primitives":[
				{
					"attributes":{
						"POSITION":0,
						"NORMAL":1,
						"TEXCOORD_0":2
					},
					"indices":3,
					"material":0
				}
			]
		}
	],
	"accessors":[
		{
			"bufferView":0,
			"componentType":5126,
			"count":833,
			"max":[
				0.06020550802350044,
				0.0077245295979082584,
				0.06122462451457977
			],
			"min":[
				-0.06020550802350044,
				-0.13263344764709473,
				-0.0689481869339943
			],
			"type":"VEC3"
		},
		{
			"bufferView":1,
			"componentType":5126,
			"count":833,
			"type":"VEC3"
		},
		{
			"bufferView":2,
			"componentType":5126,
			"count":833,
			"type":"VEC2"
		},
		{
			"bufferView":3,
			"componentType":5123,
			"count":4611,
			"type":"SCALAR"
		}
	],
	"bufferViews":[
		{
			"buffer":0,
			"byteLength":9996,
			"byteOffset":0,
			"target":34962
		},
		{
			"buffer":0,
			"byteLength":9996,
			"byteOffset":9996,
			"target":34962
		},
		{
			"buffer":0,
			"byteLength":6664,
			"byteOffset":19992,
			"target":34962
		},
		{
			"buffer":0,
			"byteLength":9222,
			"byteOffset":26656,
			"target":34963
		}
	],
	"buffers":[
		{
			"byteLength":35880,
			"uri":"hair_018.bin"
		}
	]
}
