{
	"asset":{
		"generator":"Khronos glTF Blender I/O v5.2.39",
		"version":"2.0"
	},
	"scene":0,
	"scenes":[
		{
			"name":"Scene",
			"nodes":[
				0
			]
		}
	],
	"nodes":[
		{
			"mesh":0,
			"name":"hair.090"
		}
	],
	"materials":[
		{
			"doubleSided":true,
			"name":"mii hair",
			"pbrMetallicRoughness":{
				"baseColorFactor":[
					0.06388100236654282,
					0.03379200026392937,
					0.009719000197947025,
					1
				],
				"metallicFactor":0,
				"roughnessFactor":0.800000011920929
			}
		}
	],
	"meshes":[
		{
			"name":"shape_347out.001",
			"primitives":[
				{
					"attributes":{
						"POSITION":0,
						"NORMAL":1,
						"TEXCOORD_0":2
					},
					"indices":3,
					"material":0
				}
			]
		}
	],
	"accessors":[
		{
			"bufferView":0,
			"componentType":5126,
			"count":626,
			"max":[
				0.33400705456733704,
				-1.6923397779464722,
				0.24361222982406616
			],
			"min":[
				-0.33400705456733704,
				-2.4115424156188965,
				-0.596805214881897
			],
			"type":"VEC3"
		},
		{
			"bufferView":1,
			"componentType":5126,
			"count":626,
			"type":"VEC3"
		},
		{
			"bufferView":2,
			"componentType":5126,
			"count":626,
			"type":"VEC2"
		},
		{
			"bufferView":3,
			"componentType":5123,
			"count":3522,
			"type":"SCALAR"
		}
	],
	"bufferViews":[
		{
			"buffer":0,
			"byteLength":7512,
			"byteOffset":0,
			"target":34962
		},
		{
			"buffer":0,
			"byteLength":7512,
			"byteOffset":7512,
			"target":34962
		},
		{
			"buffer":0,
			"byteLength":5008,
			"byteOffset":15024,
			"target":34962
		},
		{
			"buffer":0,
			"byteLength":7044,
			"byteOffset":20032,
			"target":34963
		}
	],
	"buffers":[
		{
			"byteLength":27076,
			"uri":"hair_hair_090.bin"
		}
	]
}
