{
	"asset":{
		"generator":"Khronos glTF Blender I/O v5.2.39",
		"version":"2.0"
	},
	"scene":0,
	"scenes":[
		{
			"name":"Scene",
			"nodes":[
				0
			]
		}
	],
	"nodes":[
		{
			"mesh":0,
			"name":"hair.134"
		}
	],
	"materials":[
		{
			"doubleSided":true,
			"name":"mii hair",
			"pbrMetallicRoughness":{
				"baseColorFactor":[
					0.06388100236654282,
					0.03379200026392937,
					0.009719000197947025,
					1
				],
				"metallicFactor":0,
				"roughnessFactor":0.800000011920929
			}
		}
	],
	"meshes":[
		{
			"name":"shape_330out.001",
			"primitives":[
				{
					"attributes":{
						"POSITION":0,
						"NORMAL":1,
						"TEXCOORD_0":2
					},
					"indices":3,
					"material":0
				}
			]
		}
	],
	"accessors":[
		{
			"bufferView":0,
			"componentType":5126,
			"count":970,
			"max":[
				0.05549510195851326,
				0.016557643190026283,
				0.06019015982747078
			],
			"min":[
				-0.055285729467868805,
				-0.10748757421970367,
				-0.08194614946842194
			],
			"type":"VEC3"
		},
		{
			"bufferView":1,
			"componentType":5126,
			"count":970,
			"type":"VEC3"
		},
		{
			"bufferView":2,
			"componentType":5126,
			"count":970,
			"type":"VEC2"
		},
		{
			"bufferView":3,
			"componentType":5123,
			"count":5160,
			"type":"SCALAR"
		}
	],
	"bufferViews":[
		{
			"buffer":0,
			"byteLength":11640,
			"byteOffset":0,
			"target":34962
		},
		{
			"buffer":0,
			"byteLength":11640,
			"byteOffset":11640,
			"target":34962
		},
		{
			"buffer":0,
			"byteLength":7760,
			"byteOffset":23280,
			"target":34962
		},
		{
			"buffer":0,
			"byteLength":10320,
			"byteOffset":31040,
			"target":34963
		}
	],
	"buffers":[
		{
			"byteLength":41360,
			"uri":"hair_117.bin"
		}
	]
}
