{
	"asset":{
		"generator":"Khronos glTF Blender I/O v5.2.39",
		"version":"2.0"
	},
	"scene":0,
	"scenes":[
		{
			"name":"Scene",
			"nodes":[
				0
			]
		}
	],
	"nodes":[
		{
			"mesh":0,
			"name":"hair.134"
		}
	],
	"materials":[
		{
			"doubleSided":true,
			"name":"mii beard solid",
			"pbrMetallicRoughness":{
				"baseColorFactor":[
					0,
					0,
					0,
					1
				],
				"metallicFactor":0,
				"roughnessFactor":0.800000011920929
			}
		}
	],
	"meshes":[
		{
			"name":"shape_3out.001",
			"primitives":[
				{
					"attributes":{
						"POSITION":0,
						"NORMAL":1,
						"TEXCOORD_0":2
					},
					"indices":3,
					"material":0
				}
			]
		}
	],
	"accessors":[
		{
			"bufferView":0,
			"componentType":5126,
			"count":219,
			"max":[
				0.04945378378033638,
				0.05901576206088066,
				0.008985800668597221
			],
			"min":[
				-0.049452099949121475,
				-0.02771778777241707,
				-0.03067687340080738
			],
			"type":"VEC3"
		},
		{
			"bufferView":1,
			"componentType":5126,
			"count":219,
			"type":"VEC3"
		},
		{
			"bufferView":2,
			"componentType":5126,
			"count":219,
			"type":"VEC2"
		},
		{
			"bufferView":3,
			"componentType":5123,
			"count":357,
			"type":"SCALAR"
		}
	],
	"bufferViews":[
		{
			"buffer":0,
			"byteLength":2628,
			"byteOffset":0,
			"target":34962
		},
		{
			"buffer":0,
			"byteLength":2628,
			"byteOffset":2628,
			"target":34962
		},
		{
			"buffer":0,
			"byteLength":1752,
			"byteOffset":5256,
			"target":34962
		},
		{
			"buffer":0,
			"byteLength":714,
			"byteOffset":7008,
			"target":34963
		}
	],
	"buffers":[
		{
			"byteLength":7724,
			"uri":"hair_130.bin"
		}
	]
}
