{
	"asset":{
		"generator":"Khronos glTF Blender I/O v5.2.39",
		"version":"2.0"
	},
	"scene":0,
	"scenes":[
		{
			"name":"Scene",
			"nodes":[
				0
			]
		}
	],
	"nodes":[
		{
			"mesh":0,
			"name":"hair.108"
		}
	],
	"materials":[
		{
			"doubleSided":true,
			"name":"mii hair",
			"pbrMetallicRoughness":{
				"baseColorFactor":[
					0.06388100236654282,
					0.03379200026392937,
					0.009719000197947025,
					1
				],
				"metallicFactor":0,
				"roughnessFactor":0.800000011920929
			}
		}
	],
	"meshes":[
		{
			"name":"shape_367out.001",
			"primitives":[
				{
					"attributes":{
						"POSITION":0,
						"NORMAL":1,
						"TEXCOORD_0":2
					},
					"indices":3,
					"material":0
				}
			]
		}
	],
	"accessors":[
		{
			"bufferView":0,
			"componentType":5126,
			"count":546,
			"max":[
				0.33226919174194336,
				-1.6328747272491455,
				0.26496943831443787
			],
			"min":[
				-0.33226919174194336,
				-2.503278970718384,
				-0.399902880191803
			],
			"type":"VEC3"
		},
		{
			"bufferView":1,
			"componentType":5126,
			"count":546,
			"type":"VEC3"
		},
		{
			"bufferView":2,
			"componentType":5126,
			"count":546,
			"type":"VEC2"
		},
		{
			"bufferView":3,
			"componentType":5123,
			"count":2934,
			"type":"SCALAR"
		}
	],
	"bufferViews":[
		{
			"buffer":0,
			"byteLength":6552,
			"byteOffset":0,
			"target":34962
		},
		{
			"buffer":0,
			"byteLength":6552,
			"byteOffset":6552,
			"target":34962
		},
		{
			"buffer":0,
			"byteLength":4368,
			"byteOffset":13104,
			"target":34962
		},
		{
			"buffer":0,
			"byteLength":5868,
			"byteOffset":17472,
			"target":34963
		}
	],
	"buffers":[
		{
			"byteLength":23340,
			"uri":"hair_hair_108.bin"
		}
	]
}
