{
	"asset":{
		"generator":"Khronos glTF Blender I/O v5.2.39",
		"version":"2.0"
	},
	"scene":0,
	"scenes":[
		{
			"name":"Scene",
			"nodes":[
				0
			]
		}
	],
	"nodes":[
		{
			"mesh":0,
			"name":"hair.017"
		}
	],
	"materials":[
		{
			"doubleSided":true,
			"name":"mii hair",
			"pbrMetallicRoughness":{
				"baseColorFactor":[
					0.06388100236654282,
					0.03379200026392937,
					0.009719000197947025,
					1
				],
				"metallicFactor":0,
				"roughnessFactor":0.800000011920929
			}
		}
	],
	"meshes":[
		{
			"name":"shape_448out.001",
			"primitives":[
				{
					"attributes":{
						"POSITION":0,
						"NORMAL":1,
						"TEXCOORD_0":2
					},
					"indices":3,
					"material":0
				}
			]
		}
	],
	"accessors":[
		{
			"bufferView":0,
			"componentType":5126,
			"count":550,
			"max":[
				0.3633839190006256,
				-1.6905019283294678,
				0.37941300868988037
			],
			"min":[
				-0.3633839190006256,
				-2.4516758918762207,
				-0.4206736981868744
			],
			"type":"VEC3"
		},
		{
			"bufferView":1,
			"componentType":5126,
			"count":550,
			"type":"VEC3"
		},
		{
			"bufferView":2,
			"componentType":5126,
			"count":550,
			"type":"VEC2"
		},
		{
			"bufferView":3,
			"componentType":5123,
			"count":3012,
			"type":"SCALAR"
		}
	],
	"bufferViews":[
		{
			"buffer":0,
			"byteLength":6600,
			"byteOffset":0,
			"target":34962
		},
		{
			"buffer":0,
			"byteLength":6600,
			"byteOffset":6600,
			"target":34962
		},
		{
			"buffer":0,
			"byteLength":4400,
			"byteOffset":13200,
			"target":34962
		},
		{
			"buffer":0,
			"byteLength":6024,
			"byteOffset":17600,
			"target":34963
		}
	],
	"buffers":[
		{
			"byteLength":23624,
			"uri":"hair_hair_017.bin"
		}
	]
}
