{
	"asset":{
		"generator":"Khronos glTF Blender I/O v5.2.39",
		"version":"2.0"
	},
	"scene":0,
	"scenes":[
		{
			"name":"Scene",
			"nodes":[
				0
			]
		}
	],
	"nodes":[
		{
			"mesh":0,
			"name":"hair.102"
		}
	],
	"materials":[
		{
			"doubleSided":true,
			"name":"mii hair",
			"pbrMetallicRoughness":{
				"baseColorFactor":[
					0.06388100236654282,
					0.03379200026392937,
					0.009719000197947025,
					1
				],
				"metallicFactor":0,
				"roughnessFactor":0.800000011920929
			}
		}
	],
	"meshes":[
		{
			"name":"shape_360out.001",
			"primitives":[
				{
					"attributes":{
						"POSITION":0,
						"NORMAL":1,
						"TEXCOORD_0":2
					},
					"indices":3,
					"material":0
				}
			]
		}
	],
	"accessors":[
		{
			"bufferView":0,
			"componentType":5126,
			"count":173,
			"max":[
				0.41611358523368835,
				-1.5776292085647583,
				0.3125576376914978
			],
			"min":[
				-0.41611358523368835,
				-2.411548137664795,
				-0.5684143304824829
			],
			"type":"VEC3"
		},
		{
			"bufferView":1,
			"componentType":5126,
			"count":173,
			"type":"VEC3"
		},
		{
			"bufferView":2,
			"componentType":5126,
			"count":173,
			"type":"VEC2"
		},
		{
			"bufferView":3,
			"componentType":5123,
			"count":918,
			"type":"SCALAR"
		}
	],
	"bufferViews":[
		{
			"buffer":0,
			"byteLength":2076,
			"byteOffset":0,
			"target":34962
		},
		{
			"buffer":0,
			"byteLength":2076,
			"byteOffset":2076,
			"target":34962
		},
		{
			"buffer":0,
			"byteLength":1384,
			"byteOffset":4152,
			"target":34962
		},
		{
			"buffer":0,
			"byteLength":1836,
			"byteOffset":5536,
			"target":34963
		}
	],
	"buffers":[
		{
			"byteLength":7372,
			"uri":"hair_hair_102.bin"
		}
	]
}
