{
	"asset":{
		"generator":"Khronos glTF Blender I/O v5.2.39",
		"version":"2.0"
	},
	"scene":0,
	"scenes":[
		{
			"name":"Scene",
			"nodes":[
				0
			]
		}
	],
	"nodes":[
		{
			"mesh":0,
			"name":"hair.074"
		}
	],
	"materials":[
		{
			"doubleSided":true,
			"name":"mii hair",
			"pbrMetallicRoughness":{
				"baseColorFactor":[
					0.06388100236654282,
					0.03379200026392937,
					0.009719000197947025,
					1
				],
				"metallicFactor":0,
				"roughnessFactor":0.800000011920929
			}
		}
	],
	"meshes":[
		{
			"name":"shape_392out.001",
			"primitives":[
				{
					"attributes":{
						"POSITION":0,
						"NORMAL":1,
						"TEXCOORD_0":2
					},
					"indices":3,
					"material":0
				}
			]
		}
	],
	"accessors":[
		{
			"bufferView":0,
			"componentType":5126,
			"count":821,
			"max":[
				0.37634384632110596,
				-1.6934055089950562,
				0.3625110387802124
			],
			"min":[
				-0.37642157077789307,
				-2.5688533782958984,
				-0.43153896927833557
			],
			"type":"VEC3"
		},
		{
			"bufferView":1,
			"componentType":5126,
			"count":821,
			"type":"VEC3"
		},
		{
			"bufferView":2,
			"componentType":5126,
			"count":821,
			"type":"VEC2"
		},
		{
			"bufferView":3,
			"componentType":5123,
			"count":4473,
			"type":"SCALAR"
		}
	],
	"bufferViews":[
		{
			"buffer":0,
			"byteLength":9852,
			"byteOffset":0,
			"target":34962
		},
		{
			"buffer":0,
			"byteLength":9852,
			"byteOffset":9852,
			"target":34962
		},
		{
			"buffer":0,
			"byteLength":6568,
			"byteOffset":19704,
			"target":34962
		},
		{
			"buffer":0,
			"byteLength":8946,
			"byteOffset":26272,
			"target":34963
		}
	],
	"buffers":[
		{
			"byteLength":35220,
			"uri":"hair_hair_074.bin"
		}
	]
}
