{
	"asset":{
		"generator":"Khronos glTF Blender I/O v5.2.39",
		"version":"2.0"
	},
	"scene":0,
	"scenes":[
		{
			"name":"Scene",
			"nodes":[
				0
			]
		}
	],
	"nodes":[
		{
			"mesh":0,
			"name":"hair.134"
		}
	],
	"materials":[
		{
			"doubleSided":true,
			"name":"mii hair",
			"pbrMetallicRoughness":{
				"baseColorFactor":[
					0.06388100236654282,
					0.03379200026392937,
					0.009719000197947025,
					1
				],
				"metallicFactor":0,
				"roughnessFactor":0.800000011920929
			}
		}
	],
	"meshes":[
		{
			"name":"shape_422out.002",
			"primitives":[
				{
					"attributes":{
						"POSITION":0,
						"NORMAL":1,
						"TEXCOORD_0":2
					},
					"indices":3,
					"material":0
				}
			]
		}
	],
	"accessors":[
		{
			"bufferView":0,
			"componentType":5126,
			"count":828,
			"max":[
				0.06287382543087006,
				0.007513327524065971,
				0.05590606853365898
			],
			"min":[
				-0.06288624554872513,
				-0.14521074295043945,
				-0.07416485249996185
			],
			"type":"VEC3"
		},
		{
			"bufferView":1,
			"componentType":5126,
			"count":828,
			"type":"VEC3"
		},
		{
			"bufferView":2,
			"componentType":5126,
			"count":828,
			"type":"VEC2"
		},
		{
			"bufferView":3,
			"componentType":5123,
			"count":4554,
			"type":"SCALAR"
		}
	],
	"bufferViews":[
		{
			"buffer":0,
			"byteLength":9936,
			"byteOffset":0,
			"target":34962
		},
		{
			"buffer":0,
			"byteLength":9936,
			"byteOffset":9936,
			"target":34962
		},
		{
			"buffer":0,
			"byteLength":6624,
			"byteOffset":19872,
			"target":34962
		},
		{
			"buffer":0,
			"byteLength":9108,
			"byteOffset":26496,
			"target":34963
		}
	],
	"buffers":[
		{
			"byteLength":35604,
			"uri":"hair_048.bin"
		}
	]
}
