{
	"asset":{
		"generator":"Khronos glTF Blender I/O v5.2.39",
		"version":"2.0"
	},
	"scene":0,
	"scenes":[
		{
			"name":"Scene",
			"nodes":[
				0
			]
		}
	],
	"nodes":[
		{
			"mesh":0,
			"name":"hair.025"
		}
	],
	"materials":[
		{
			"doubleSided":true,
			"name":"mii hair",
			"pbrMetallicRoughness":{
				"baseColorFactor":[
					0.06388100236654282,
					0.03379200026392937,
					0.009719000197947025,
					1
				],
				"metallicFactor":0,
				"roughnessFactor":0.800000011920929
			}
		}
	],
	"meshes":[
		{
			"name":"shape_456out.001",
			"primitives":[
				{
					"attributes":{
						"POSITION":0,
						"NORMAL":1,
						"TEXCOORD_0":2
					},
					"indices":3,
					"material":0
				}
			]
		}
	],
	"accessors":[
		{
			"bufferView":0,
			"componentType":5126,
			"count":394,
			"max":[
				0.41610249876976013,
				-1.6056203842163086,
				0.22530153393745422
			],
			"min":[
				-0.41610249876976013,
				-2.411618709564209,
				-0.5537023544311523
			],
			"type":"VEC3"
		},
		{
			"bufferView":1,
			"componentType":5126,
			"count":394,
			"type":"VEC3"
		},
		{
			"bufferView":2,
			"componentType":5126,
			"count":394,
			"type":"VEC2"
		},
		{
			"bufferView":3,
			"componentType":5123,
			"count":1734,
			"type":"SCALAR"
		}
	],
	"bufferViews":[
		{
			"buffer":0,
			"byteLength":4728,
			"byteOffset":0,
			"target":34962
		},
		{
			"buffer":0,
			"byteLength":4728,
			"byteOffset":4728,
			"target":34962
		},
		{
			"buffer":0,
			"byteLength":3152,
			"byteOffset":9456,
			"target":34962
		},
		{
			"buffer":0,
			"byteLength":3468,
			"byteOffset":12608,
			"target":34963
		}
	],
	"buffers":[
		{
			"byteLength":16076,
			"uri":"hair_hair_025.bin"
		}
	]
}
