{
	"asset":{
		"generator":"Khronos glTF Blender I/O v5.2.39",
		"version":"2.0"
	},
	"scene":0,
	"scenes":[
		{
			"name":"Scene",
			"nodes":[
				0
			]
		}
	],
	"nodes":[
		{
			"mesh":0,
			"name":"hair.015"
		}
	],
	"materials":[
		{
			"doubleSided":true,
			"name":"mii hair",
			"pbrMetallicRoughness":{
				"baseColorFactor":[
					0.06388100236654282,
					0.03379200026392937,
					0.009719000197947025,
					1
				],
				"metallicFactor":0,
				"roughnessFactor":0.800000011920929
			}
		}
	],
	"meshes":[
		{
			"name":"shape_446out.001",
			"primitives":[
				{
					"attributes":{
						"POSITION":0,
						"NORMAL":1,
						"TEXCOORD_0":2
					},
					"indices":3,
					"material":0
				}
			]
		}
	],
	"accessors":[
		{
			"bufferView":0,
			"componentType":5126,
			"count":829,
			"max":[
				0.3616168200969696,
				-1.6839487552642822,
				0.2944713830947876
			],
			"min":[
				-0.3616168200969696,
				-2.6174798011779785,
				-0.4225730299949646
			],
			"type":"VEC3"
		},
		{
			"bufferView":1,
			"componentType":5126,
			"count":829,
			"type":"VEC3"
		},
		{
			"bufferView":2,
			"componentType":5126,
			"count":829,
			"type":"VEC2"
		},
		{
			"bufferView":3,
			"componentType":5123,
			"count":4446,
			"type":"SCALAR"
		}
	],
	"bufferViews":[
		{
			"buffer":0,
			"byteLength":9948,
			"byteOffset":0,
			"target":34962
		},
		{
			"buffer":0,
			"byteLength":9948,
			"byteOffset":9948,
			"target":34962
		},
		{
			"buffer":0,
			"byteLength":6632,
			"byteOffset":19896,
			"target":34962
		},
		{
			"buffer":0,
			"byteLength":8892,
			"byteOffset":26528,
			"target":34963
		}
	],
	"buffers":[
		{
			"byteLength":35420,
			"uri":"hair_hair_015.bin"
		}
	]
}
