{
	"asset":{
		"generator":"Khronos glTF Blender I/O v5.2.39",
		"version":"2.0"
	},
	"scene":0,
	"scenes":[
		{
			"name":"Scene",
			"nodes":[
				0
			]
		}
	],
	"nodes":[
		{
			"mesh":0,
			"name":"hair.119"
		}
	],
	"materials":[
		{
			"doubleSided":true,
			"name":"mii hair",
			"pbrMetallicRoughness":{
				"baseColorFactor":[
					0.06388100236654282,
					0.03379200026392937,
					0.009719000197947025,
					1
				],
				"metallicFactor":0,
				"roughnessFactor":0.800000011920929
			}
		}
	],
	"meshes":[
		{
			"name":"shape_332out.002",
			"primitives":[
				{
					"attributes":{
						"POSITION":0,
						"NORMAL":1,
						"TEXCOORD_0":2
					},
					"indices":3,
					"material":0
				}
			]
		}
	],
	"accessors":[
		{
			"bufferView":0,
			"componentType":5126,
			"count":873,
			"max":[
				0.3961760699748993,
				-1.6918015480041504,
				0.31950101256370544
			],
			"min":[
				-0.396253764629364,
				-2.640704870223999,
				-0.46434885263442993
			],
			"type":"VEC3"
		},
		{
			"bufferView":1,
			"componentType":5126,
			"count":873,
			"type":"VEC3"
		},
		{
			"bufferView":2,
			"componentType":5126,
			"count":873,
			"type":"VEC2"
		},
		{
			"bufferView":3,
			"componentType":5123,
			"count":4842,
			"type":"SCALAR"
		}
	],
	"bufferViews":[
		{
			"buffer":0,
			"byteLength":10476,
			"byteOffset":0,
			"target":34962
		},
		{
			"buffer":0,
			"byteLength":10476,
			"byteOffset":10476,
			"target":34962
		},
		{
			"buffer":0,
			"byteLength":6984,
			"byteOffset":20952,
			"target":34962
		},
		{
			"buffer":0,
			"byteLength":9684,
			"byteOffset":27936,
			"target":34963
		}
	],
	"buffers":[
		{
			"byteLength":37620,
			"uri":"hair_hair_119.bin"
		}
	]
}
