{
	"asset":{
		"generator":"Khronos glTF Blender I/O v5.2.39",
		"version":"2.0"
	},
	"scene":0,
	"scenes":[
		{
			"name":"Scene",
			"nodes":[
				0
			]
		}
	],
	"nodes":[
		{
			"mesh":0,
			"name":"hair.134"
		}
	],
	"materials":[
		{
			"doubleSided":true,
			"name":"mii hair",
			"pbrMetallicRoughness":{
				"baseColorFactor":[
					0.06388100236654282,
					0.03379200026392937,
					0.009719000197947025,
					1
				],
				"metallicFactor":0,
				"roughnessFactor":0.800000011920929
			}
		}
	],
	"meshes":[
		{
			"name":"shape_400out.002",
			"primitives":[
				{
					"attributes":{
						"POSITION":0,
						"NORMAL":1,
						"TEXCOORD_0":2
					},
					"indices":3,
					"material":0
				}
			]
		}
	],
	"accessors":[
		{
			"bufferView":0,
			"componentType":5126,
			"count":750,
			"max":[
				0.060459621250629425,
				0.00769823556765914,
				0.060249947011470795
			],
			"min":[
				-0.06047191098332405,
				-0.14713187515735626,
				-0.0786222293972969
			],
			"type":"VEC3"
		},
		{
			"bufferView":1,
			"componentType":5126,
			"count":750,
			"type":"VEC3"
		},
		{
			"bufferView":2,
			"componentType":5126,
			"count":750,
			"type":"VEC2"
		},
		{
			"bufferView":3,
			"componentType":5123,
			"count":3966,
			"type":"SCALAR"
		}
	],
	"bufferViews":[
		{
			"buffer":0,
			"byteLength":9000,
			"byteOffset":0,
			"target":34962
		},
		{
			"buffer":0,
			"byteLength":9000,
			"byteOffset":9000,
			"target":34962
		},
		{
			"buffer":0,
			"byteLength":6000,
			"byteOffset":18000,
			"target":34962
		},
		{
			"buffer":0,
			"byteLength":7932,
			"byteOffset":24000,
			"target":34963
		}
	],
	"buffers":[
		{
			"byteLength":31932,
			"uri":"hair_082.bin"
		}
	]
}
