{
	"asset":{
		"generator":"Khronos glTF Blender I/O v5.2.39",
		"version":"2.0"
	},
	"scene":0,
	"scenes":[
		{
			"name":"Scene",
			"nodes":[
				0
			]
		}
	],
	"nodes":[
		{
			"mesh":0,
			"name":"hair.134"
		}
	],
	"materials":[
		{
			"doubleSided":true,
			"name":"mii hair",
			"pbrMetallicRoughness":{
				"baseColorFactor":[
					0.06388100236654282,
					0.03379200026392937,
					0.009719000197947025,
					1
				],
				"metallicFactor":0,
				"roughnessFactor":0.800000011920929
			}
		}
	],
	"meshes":[
		{
			"name":"shape_387out.002",
			"primitives":[
				{
					"attributes":{
						"POSITION":0,
						"NORMAL":1,
						"TEXCOORD_0":2
					},
					"indices":3,
					"material":0
				}
			]
		}
	],
	"accessors":[
		{
			"bufferView":0,
			"componentType":5126,
			"count":711,
			"max":[
				0.06366482377052307,
				0.007931888103485107,
				0.044207777827978134
			],
			"min":[
				-0.06366482377052307,
				-0.1201016828417778,
				-0.07515480369329453
			],
			"type":"VEC3"
		},
		{
			"bufferView":1,
			"componentType":5126,
			"count":711,
			"type":"VEC3"
		},
		{
			"bufferView":2,
			"componentType":5126,
			"count":711,
			"type":"VEC2"
		},
		{
			"bufferView":3,
			"componentType":5123,
			"count":3918,
			"type":"SCALAR"
		}
	],
	"bufferViews":[
		{
			"buffer":0,
			"byteLength":8532,
			"byteOffset":0,
			"target":34962
		},
		{
			"buffer":0,
			"byteLength":8532,
			"byteOffset":8532,
			"target":34962
		},
		{
			"buffer":0,
			"byteLength":5688,
			"byteOffset":17064,
			"target":34962
		},
		{
			"buffer":0,
			"byteLength":7836,
			"byteOffset":22752,
			"target":34963
		}
	],
	"buffers":[
		{
			"byteLength":30588,
			"uri":"hair_069.bin"
		}
	]
}
