{
	"asset":{
		"generator":"Khronos glTF Blender I/O v5.2.39",
		"version":"2.0"
	},
	"scene":0,
	"scenes":[
		{
			"name":"Scene",
			"nodes":[
				0
			]
		}
	],
	"nodes":[
		{
			"mesh":0,
			"name":"hair.086"
		}
	],
	"materials":[
		{
			"doubleSided":true,
			"name":"mii hair",
			"pbrMetallicRoughness":{
				"baseColorFactor":[
					0.06388100236654282,
					0.03379200026392937,
					0.009719000197947025,
					1
				],
				"metallicFactor":0,
				"roughnessFactor":0.800000011920929
			}
		}
	],
	"meshes":[
		{
			"name":"shape_343out.001",
			"primitives":[
				{
					"attributes":{
						"POSITION":0,
						"NORMAL":1,
						"TEXCOORD_0":2
					},
					"indices":3,
					"material":0
				}
			]
		}
	],
	"accessors":[
		{
			"bufferView":0,
			"componentType":5126,
			"count":750,
			"max":[
				0.3581632375717163,
				-1.6973265409469604,
				0.35937461256980896
			],
			"min":[
				-0.3579925298690796,
				-2.735586166381836,
				-0.43552765250205994
			],
			"type":"VEC3"
		},
		{
			"bufferView":1,
			"componentType":5126,
			"count":750,
			"type":"VEC3"
		},
		{
			"bufferView":2,
			"componentType":5126,
			"count":750,
			"type":"VEC2"
		},
		{
			"bufferView":3,
			"componentType":5123,
			"count":4050,
			"type":"SCALAR"
		}
	],
	"bufferViews":[
		{
			"buffer":0,
			"byteLength":9000,
			"byteOffset":0,
			"target":34962
		},
		{
			"buffer":0,
			"byteLength":9000,
			"byteOffset":9000,
			"target":34962
		},
		{
			"buffer":0,
			"byteLength":6000,
			"byteOffset":18000,
			"target":34962
		},
		{
			"buffer":0,
			"byteLength":8100,
			"byteOffset":24000,
			"target":34963
		}
	],
	"buffers":[
		{
			"byteLength":32100,
			"uri":"hair_hair_086.bin"
		}
	]
}
