{
	"asset":{
		"generator":"Khronos glTF Blender I/O v5.2.39",
		"version":"2.0"
	},
	"scene":0,
	"scenes":[
		{
			"name":"Scene",
			"nodes":[
				0
			]
		}
	],
	"nodes":[
		{
			"mesh":0,
			"name":"hair.104"
		}
	],
	"materials":[
		{
			"doubleSided":true,
			"name":"mii hair",
			"pbrMetallicRoughness":{
				"baseColorFactor":[
					0.06388100236654282,
					0.03379200026392937,
					0.009719000197947025,
					1
				],
				"metallicFactor":0,
				"roughnessFactor":0.800000011920929
			}
		}
	],
	"meshes":[
		{
			"name":"shape_362out.001",
			"primitives":[
				{
					"attributes":{
						"POSITION":0,
						"NORMAL":1,
						"TEXCOORD_0":2
					},
					"indices":3,
					"material":0
				}
			]
		}
	],
	"accessors":[
		{
			"bufferView":0,
			"componentType":5126,
			"count":543,
			"max":[
				0.3461958169937134,
				-1.686303973197937,
				0.3448728024959564
			],
			"min":[
				-0.3461958169937134,
				-2.4115490913391113,
				-0.4363276958465576
			],
			"type":"VEC3"
		},
		{
			"bufferView":1,
			"componentType":5126,
			"count":543,
			"type":"VEC3"
		},
		{
			"bufferView":2,
			"componentType":5126,
			"count":543,
			"type":"VEC2"
		},
		{
			"bufferView":3,
			"componentType":5123,
			"count":3012,
			"type":"SCALAR"
		}
	],
	"bufferViews":[
		{
			"buffer":0,
			"byteLength":6516,
			"byteOffset":0,
			"target":34962
		},
		{
			"buffer":0,
			"byteLength":6516,
			"byteOffset":6516,
			"target":34962
		},
		{
			"buffer":0,
			"byteLength":4344,
			"byteOffset":13032,
			"target":34962
		},
		{
			"buffer":0,
			"byteLength":6024,
			"byteOffset":17376,
			"target":34963
		}
	],
	"buffers":[
		{
			"byteLength":23400,
			"uri":"hair_hair_104.bin"
		}
	]
}
