{
	"asset":{
		"generator":"Khronos glTF Blender I/O v5.2.39",
		"version":"2.0"
	},
	"scene":0,
	"scenes":[
		{
			"name":"Scene",
			"nodes":[
				0
			]
		}
	],
	"nodes":[
		{
			"mesh":0,
			"name":"hair.113"
		}
	],
	"materials":[
		{
			"doubleSided":true,
			"name":"mii hair",
			"pbrMetallicRoughness":{
				"baseColorFactor":[
					0.06388100236654282,
					0.03379200026392937,
					0.009719000197947025,
					1
				],
				"metallicFactor":0,
				"roughnessFactor":0.800000011920929
			}
		}
	],
	"meshes":[
		{
			"name":"shape_372out.001",
			"primitives":[
				{
					"attributes":{
						"POSITION":0,
						"NORMAL":1,
						"TEXCOORD_0":2
					},
					"indices":3,
					"material":0
				}
			]
		}
	],
	"accessors":[
		{
			"bufferView":0,
			"componentType":5126,
			"count":597,
			"max":[
				0.32742539048194885,
				-1.6905930042266846,
				0.31884515285491943
			],
			"min":[
				-0.3274576663970947,
				-2.411548137664795,
				-0.40224483609199524
			],
			"type":"VEC3"
		},
		{
			"bufferView":1,
			"componentType":5126,
			"count":597,
			"type":"VEC3"
		},
		{
			"bufferView":2,
			"componentType":5126,
			"count":597,
			"type":"VEC2"
		},
		{
			"bufferView":3,
			"componentType":5123,
			"count":3306,
			"type":"SCALAR"
		}
	],
	"bufferViews":[
		{
			"buffer":0,
			"byteLength":7164,
			"byteOffset":0,
			"target":34962
		},
		{
			"buffer":0,
			"byteLength":7164,
			"byteOffset":7164,
			"target":34962
		},
		{
			"buffer":0,
			"byteLength":4776,
			"byteOffset":14328,
			"target":34962
		},
		{
			"buffer":0,
			"byteLength":6612,
			"byteOffset":19104,
			"target":34963
		}
	],
	"buffers":[
		{
			"byteLength":25716,
			"uri":"hair_hair_113.bin"
		}
	]
}
