{
	"asset":{
		"generator":"Khronos glTF Blender I/O v5.2.39",
		"version":"2.0"
	},
	"scene":0,
	"scenes":[
		{
			"name":"Scene",
			"nodes":[
				0
			]
		}
	],
	"nodes":[
		{
			"mesh":0,
			"name":"hair.134"
		}
	],
	"materials":[
		{
			"doubleSided":true,
			"name":"mii hair",
			"pbrMetallicRoughness":{
				"baseColorFactor":[
					0.06388100236654282,
					0.03379200026392937,
					0.009719000197947025,
					1
				],
				"metallicFactor":0,
				"roughnessFactor":0.800000011920929
			}
		}
	],
	"meshes":[
		{
			"name":"shape_375out.002",
			"primitives":[
				{
					"attributes":{
						"POSITION":0,
						"NORMAL":1,
						"TEXCOORD_0":2
					},
					"indices":3,
					"material":0
				}
			]
		}
	],
	"accessors":[
		{
			"bufferView":0,
			"componentType":5126,
			"count":1027,
			"max":[
				0.07807117700576782,
				0.006225092336535454,
				0.05981865152716637
			],
			"min":[
				-0.0780835971236229,
				-0.10748770087957382,
				-0.0651683434844017
			],
			"type":"VEC3"
		},
		{
			"bufferView":1,
			"componentType":5126,
			"count":1027,
			"type":"VEC3"
		},
		{
			"bufferView":2,
			"componentType":5126,
			"count":1027,
			"type":"VEC2"
		},
		{
			"bufferView":3,
			"componentType":5123,
			"count":5808,
			"type":"SCALAR"
		}
	],
	"bufferViews":[
		{
			"buffer":0,
			"byteLength":12324,
			"byteOffset":0,
			"target":34962
		},
		{
			"buffer":0,
			"byteLength":12324,
			"byteOffset":12324,
			"target":34962
		},
		{
			"buffer":0,
			"byteLength":8216,
			"byteOffset":24648,
			"target":34962
		},
		{
			"buffer":0,
			"byteLength":11616,
			"byteOffset":32864,
			"target":34963
		}
	],
	"buffers":[
		{
			"byteLength":44480,
			"uri":"hair_058.bin"
		}
	]
}
