{
	"asset":{
		"generator":"Khronos glTF Blender I/O v5.2.39",
		"version":"2.0"
	},
	"scene":0,
	"scenes":[
		{
			"name":"Scene",
			"nodes":[
				0
			]
		}
	],
	"nodes":[
		{
			"mesh":0,
			"name":"hair.032"
		}
	],
	"materials":[
		{
			"doubleSided":true,
			"name":"mii hair",
			"pbrMetallicRoughness":{
				"baseColorFactor":[
					0.06388100236654282,
					0.03379200026392937,
					0.009719000197947025,
					1
				],
				"metallicFactor":0,
				"roughnessFactor":0.800000011920929
			}
		}
	],
	"meshes":[
		{
			"name":"shape_406out.001",
			"primitives":[
				{
					"attributes":{
						"POSITION":0,
						"NORMAL":1,
						"TEXCOORD_0":2
					},
					"indices":3,
					"material":0
				}
			]
		}
	],
	"accessors":[
		{
			"bufferView":0,
			"componentType":5126,
			"count":893,
			"max":[
				0.3586631119251251,
				-1.6940618753433228,
				0.37675005197525024
			],
			"min":[
				-0.35827475786209106,
				-2.597609519958496,
				-0.5907501578330994
			],
			"type":"VEC3"
		},
		{
			"bufferView":1,
			"componentType":5126,
			"count":893,
			"type":"VEC3"
		},
		{
			"bufferView":2,
			"componentType":5126,
			"count":893,
			"type":"VEC2"
		},
		{
			"bufferView":3,
			"componentType":5123,
			"count":4980,
			"type":"SCALAR"
		}
	],
	"bufferViews":[
		{
			"buffer":0,
			"byteLength":10716,
			"byteOffset":0,
			"target":34962
		},
		{
			"buffer":0,
			"byteLength":10716,
			"byteOffset":10716,
			"target":34962
		},
		{
			"buffer":0,
			"byteLength":7144,
			"byteOffset":21432,
			"target":34962
		},
		{
			"buffer":0,
			"byteLength":9960,
			"byteOffset":28576,
			"target":34963
		}
	],
	"buffers":[
		{
			"byteLength":38536,
			"uri":"hair_hair_032.bin"
		}
	]
}
