{
	"asset":{
		"generator":"Khronos glTF Blender I/O v5.2.39",
		"version":"2.0"
	},
	"scene":0,
	"scenes":[
		{
			"name":"Scene",
			"nodes":[
				0
			]
		}
	],
	"nodes":[
		{
			"mesh":0,
			"name":"hair.020"
		}
	],
	"materials":[
		{
			"doubleSided":true,
			"name":"mii hair",
			"pbrMetallicRoughness":{
				"baseColorFactor":[
					0.06388100236654282,
					0.03379200026392937,
					0.009719000197947025,
					1
				],
				"metallicFactor":0,
				"roughnessFactor":0.800000011920929
			}
		}
	],
	"meshes":[
		{
			"name":"shape_451out.001",
			"primitives":[
				{
					"attributes":{
						"POSITION":0,
						"NORMAL":1,
						"TEXCOORD_0":2
					},
					"indices":3,
					"material":0
				}
			]
		}
	],
	"accessors":[
		{
			"bufferView":0,
			"componentType":5126,
			"count":590,
			"max":[
				0.38678914308547974,
				-1.6803615093231201,
				0.35382166504859924
			],
			"min":[
				-0.38678914308547974,
				-2.4432766437530518,
				-0.4628663659095764
			],
			"type":"VEC3"
		},
		{
			"bufferView":1,
			"componentType":5126,
			"count":590,
			"type":"VEC3"
		},
		{
			"bufferView":2,
			"componentType":5126,
			"count":590,
			"type":"VEC2"
		},
		{
			"bufferView":3,
			"componentType":5123,
			"count":3222,
			"type":"SCALAR"
		}
	],
	"bufferViews":[
		{
			"buffer":0,
			"byteLength":7080,
			"byteOffset":0,
			"target":34962
		},
		{
			"buffer":0,
			"byteLength":7080,
			"byteOffset":7080,
			"target":34962
		},
		{
			"buffer":0,
			"byteLength":4720,
			"byteOffset":14160,
			"target":34962
		},
		{
			"buffer":0,
			"byteLength":6444,
			"byteOffset":18880,
			"target":34963
		}
	],
	"buffers":[
		{
			"byteLength":25324,
			"uri":"hair_hair_020.bin"
		}
	]
}
