{
	"asset":{
		"generator":"Khronos glTF Blender I/O v5.2.39",
		"version":"2.0"
	},
	"scene":0,
	"scenes":[
		{
			"name":"Scene",
			"nodes":[
				0
			]
		}
	],
	"nodes":[
		{
			"mesh":0,
			"name":"hair.047"
		}
	],
	"materials":[
		{
			"doubleSided":true,
			"name":"mii hair",
			"pbrMetallicRoughness":{
				"baseColorFactor":[
					0.06388100236654282,
					0.03379200026392937,
					0.009719000197947025,
					1
				],
				"metallicFactor":0,
				"roughnessFactor":0.800000011920929
			}
		}
	],
	"meshes":[
		{
			"name":"shape_421out.001",
			"primitives":[
				{
					"attributes":{
						"POSITION":0,
						"NORMAL":1,
						"TEXCOORD_0":2
					},
					"indices":3,
					"material":0
				}
			]
		}
	],
	"accessors":[
		{
			"bufferView":0,
			"componentType":5126,
			"count":675,
			"max":[
				0.3414515554904938,
				-1.6859811544418335,
				0.369015634059906
			],
			"min":[
				-0.3414515554904938,
				-2.411543130874634,
				-0.6403816342353821
			],
			"type":"VEC3"
		},
		{
			"bufferView":1,
			"componentType":5126,
			"count":675,
			"type":"VEC3"
		},
		{
			"bufferView":2,
			"componentType":5126,
			"count":675,
			"type":"VEC2"
		},
		{
			"bufferView":3,
			"componentType":5123,
			"count":3810,
			"type":"SCALAR"
		}
	],
	"bufferViews":[
		{
			"buffer":0,
			"byteLength":8100,
			"byteOffset":0,
			"target":34962
		},
		{
			"buffer":0,
			"byteLength":8100,
			"byteOffset":8100,
			"target":34962
		},
		{
			"buffer":0,
			"byteLength":5400,
			"byteOffset":16200,
			"target":34962
		},
		{
			"buffer":0,
			"byteLength":7620,
			"byteOffset":21600,
			"target":34963
		}
	],
	"buffers":[
		{
			"byteLength":29220,
			"uri":"hair_hair_047.bin"
		}
	]
}
