{
	"asset":{
		"generator":"Khronos glTF Blender I/O v5.2.39",
		"version":"2.0"
	},
	"scene":0,
	"scenes":[
		{
			"name":"Scene",
			"nodes":[
				0
			]
		}
	],
	"nodes":[
		{
			"mesh":0,
			"name":"hair.035"
		}
	],
	"materials":[
		{
			"doubleSided":true,
			"name":"mii hair",
			"pbrMetallicRoughness":{
				"baseColorFactor":[
					0.06388100236654282,
					0.03379200026392937,
					0.009719000197947025,
					1
				],
				"metallicFactor":0,
				"roughnessFactor":0.800000011920929
			}
		}
	],
	"meshes":[
		{
			"name":"shape_409out.001",
			"primitives":[
				{
					"attributes":{
						"POSITION":0,
						"NORMAL":1,
						"TEXCOORD_0":2
					},
					"indices":3,
					"material":0
				}
			]
		}
	],
	"accessors":[
		{
			"bufferView":0,
			"componentType":5126,
			"count":936,
			"max":[
				0.348457932472229,
				-1.702040433883667,
				0.23667582869529724
			],
			"min":[
				-0.3485356271266937,
				-2.6174845695495605,
				-0.4727705121040344
			],
			"type":"VEC3"
		},
		{
			"bufferView":1,
			"componentType":5126,
			"count":936,
			"type":"VEC3"
		},
		{
			"bufferView":2,
			"componentType":5126,
			"count":936,
			"type":"VEC2"
		},
		{
			"bufferView":3,
			"componentType":5123,
			"count":4614,
			"type":"SCALAR"
		}
	],
	"bufferViews":[
		{
			"buffer":0,
			"byteLength":11232,
			"byteOffset":0,
			"target":34962
		},
		{
			"buffer":0,
			"byteLength":11232,
			"byteOffset":11232,
			"target":34962
		},
		{
			"buffer":0,
			"byteLength":7488,
			"byteOffset":22464,
			"target":34962
		},
		{
			"buffer":0,
			"byteLength":9228,
			"byteOffset":29952,
			"target":34963
		}
	],
	"buffers":[
		{
			"byteLength":39180,
			"uri":"hair_hair_035.bin"
		}
	]
}
