{
	"asset":{
		"generator":"Khronos glTF Blender I/O v5.2.39",
		"version":"2.0"
	},
	"scene":0,
	"scenes":[
		{
			"name":"Scene",
			"nodes":[
				0
			]
		}
	],
	"nodes":[
		{
			"mesh":0,
			"name":"hair.115"
		}
	],
	"materials":[
		{
			"doubleSided":true,
			"name":"mii hair",
			"pbrMetallicRoughness":{
				"baseColorFactor":[
					0.06388100236654282,
					0.03379200026392937,
					0.009719000197947025,
					1
				],
				"metallicFactor":0,
				"roughnessFactor":0.800000011920929
			}
		}
	],
	"meshes":[
		{
			"name":"shape_374out.001",
			"primitives":[
				{
					"attributes":{
						"POSITION":0,
						"NORMAL":1,
						"TEXCOORD_0":2
					},
					"indices":3,
					"material":0
				}
			]
		}
	],
	"accessors":[
		{
			"bufferView":0,
			"componentType":5126,
			"count":513,
			"max":[
				0.3161640763282776,
				-1.7192734479904175,
				0.2439943552017212
			],
			"min":[
				-0.3161640763282776,
				-2.411541223526001,
				-0.4049304127693176
			],
			"type":"VEC3"
		},
		{
			"bufferView":1,
			"componentType":5126,
			"count":513,
			"type":"VEC3"
		},
		{
			"bufferView":2,
			"componentType":5126,
			"count":513,
			"type":"VEC2"
		},
		{
			"bufferView":3,
			"componentType":5123,
			"count":2952,
			"type":"SCALAR"
		}
	],
	"bufferViews":[
		{
			"buffer":0,
			"byteLength":6156,
			"byteOffset":0,
			"target":34962
		},
		{
			"buffer":0,
			"byteLength":6156,
			"byteOffset":6156,
			"target":34962
		},
		{
			"buffer":0,
			"byteLength":4104,
			"byteOffset":12312,
			"target":34962
		},
		{
			"buffer":0,
			"byteLength":5904,
			"byteOffset":16416,
			"target":34963
		}
	],
	"buffers":[
		{
			"byteLength":22320,
			"uri":"hair_hair_115.bin"
		}
	]
}
