{
	"asset":{
		"generator":"Khronos glTF Blender I/O v5.2.39",
		"version":"2.0"
	},
	"scene":0,
	"scenes":[
		{
			"name":"Scene",
			"nodes":[
				0
			]
		}
	],
	"nodes":[
		{
			"mesh":0,
			"name":"hair.031"
		}
	],
	"materials":[
		{
			"doubleSided":true,
			"name":"mii hair",
			"pbrMetallicRoughness":{
				"baseColorFactor":[
					0.06388100236654282,
					0.03379200026392937,
					0.009719000197947025,
					1
				],
				"metallicFactor":0,
				"roughnessFactor":0.800000011920929
			}
		}
	],
	"meshes":[
		{
			"name":"shape_405out.001",
			"primitives":[
				{
					"attributes":{
						"POSITION":0,
						"NORMAL":1,
						"TEXCOORD_0":2
					},
					"indices":3,
					"material":0
				}
			]
		}
	],
	"accessors":[
		{
			"bufferView":0,
			"componentType":5126,
			"count":195,
			"max":[
				0.42340633273124695,
				-1.5833930969238281,
				0.30556440353393555
			],
			"min":[
				-0.42340633273124695,
				-2.480057716369629,
				-0.5473526120185852
			],
			"type":"VEC3"
		},
		{
			"bufferView":1,
			"componentType":5126,
			"count":195,
			"type":"VEC3"
		},
		{
			"bufferView":2,
			"componentType":5126,
			"count":195,
			"type":"VEC2"
		},
		{
			"bufferView":3,
			"componentType":5123,
			"count":1041,
			"type":"SCALAR"
		}
	],
	"bufferViews":[
		{
			"buffer":0,
			"byteLength":2340,
			"byteOffset":0,
			"target":34962
		},
		{
			"buffer":0,
			"byteLength":2340,
			"byteOffset":2340,
			"target":34962
		},
		{
			"buffer":0,
			"byteLength":1560,
			"byteOffset":4680,
			"target":34962
		},
		{
			"buffer":0,
			"byteLength":2082,
			"byteOffset":6240,
			"target":34963
		}
	],
	"buffers":[
		{
			"byteLength":8324,
			"uri":"hair_hair_031.bin"
		}
	]
}
