{
	"asset":{
		"generator":"Khronos glTF Blender I/O v5.2.39",
		"version":"2.0"
	},
	"scene":0,
	"scenes":[
		{
			"name":"Scene",
			"nodes":[
				0
			]
		}
	],
	"nodes":[
		{
			"mesh":0,
			"name":"hair.098"
		}
	],
	"materials":[
		{
			"doubleSided":true,
			"name":"mii hair",
			"pbrMetallicRoughness":{
				"baseColorFactor":[
					0.06388100236654282,
					0.03379200026392937,
					0.009719000197947025,
					1
				],
				"metallicFactor":0,
				"roughnessFactor":0.800000011920929
			}
		}
	],
	"meshes":[
		{
			"name":"shape_355out.001",
			"primitives":[
				{
					"attributes":{
						"POSITION":0,
						"NORMAL":1,
						"TEXCOORD_0":2
					},
					"indices":3,
					"material":0
				}
			]
		}
	],
	"accessors":[
		{
			"bufferView":0,
			"componentType":5126,
			"count":755,
			"max":[
				0.33591005206108093,
				-1.6511210203170776,
				0.37047863006591797
			],
			"min":[
				-0.33591005206108093,
				-2.4115424156188965,
				-0.6415938138961792
			],
			"type":"VEC3"
		},
		{
			"bufferView":1,
			"componentType":5126,
			"count":755,
			"type":"VEC3"
		},
		{
			"bufferView":2,
			"componentType":5126,
			"count":755,
			"type":"VEC2"
		},
		{
			"bufferView":3,
			"componentType":5123,
			"count":4152,
			"type":"SCALAR"
		}
	],
	"bufferViews":[
		{
			"buffer":0,
			"byteLength":9060,
			"byteOffset":0,
			"target":34962
		},
		{
			"buffer":0,
			"byteLength":9060,
			"byteOffset":9060,
			"target":34962
		},
		{
			"buffer":0,
			"byteLength":6040,
			"byteOffset":18120,
			"target":34962
		},
		{
			"buffer":0,
			"byteLength":8304,
			"byteOffset":24160,
			"target":34963
		}
	],
	"buffers":[
		{
			"byteLength":32464,
			"uri":"hair_hair_098.bin"
		}
	]
}
