{
	"asset":{
		"generator":"Khronos glTF Blender I/O v5.2.39",
		"version":"2.0"
	},
	"scene":0,
	"scenes":[
		{
			"name":"Scene",
			"nodes":[
				0
			]
		}
	],
	"nodes":[
		{
			"mesh":0,
			"name":"hair.026"
		}
	],
	"materials":[
		{
			"doubleSided":true,
			"name":"mii hair",
			"pbrMetallicRoughness":{
				"baseColorFactor":[
					0.06388100236654282,
					0.03379200026392937,
					0.009719000197947025,
					1
				],
				"metallicFactor":0,
				"roughnessFactor":0.800000011920929
			}
		}
	],
	"meshes":[
		{
			"name":"shape_457out.001",
			"primitives":[
				{
					"attributes":{
						"POSITION":0,
						"NORMAL":1,
						"TEXCOORD_0":2
					},
					"indices":3,
					"material":0
				}
			]
		}
	],
	"accessors":[
		{
			"bufferView":0,
			"componentType":5126,
			"count":858,
			"max":[
				0.4229249060153961,
				-1.697185754776001,
				0.384375661611557
			],
			"min":[
				-0.4229249060153961,
				-2.726128101348877,
				-0.45191678404808044
			],
			"type":"VEC3"
		},
		{
			"bufferView":1,
			"componentType":5126,
			"count":858,
			"type":"VEC3"
		},
		{
			"bufferView":2,
			"componentType":5126,
			"count":858,
			"type":"VEC2"
		},
		{
			"bufferView":3,
			"componentType":5123,
			"count":4665,
			"type":"SCALAR"
		}
	],
	"bufferViews":[
		{
			"buffer":0,
			"byteLength":10296,
			"byteOffset":0,
			"target":34962
		},
		{
			"buffer":0,
			"byteLength":10296,
			"byteOffset":10296,
			"target":34962
		},
		{
			"buffer":0,
			"byteLength":6864,
			"byteOffset":20592,
			"target":34962
		},
		{
			"buffer":0,
			"byteLength":9330,
			"byteOffset":27456,
			"target":34963
		}
	],
	"buffers":[
		{
			"byteLength":36788,
			"uri":"hair_hair_026.bin"
		}
	]
}
