{
	"asset":{
		"generator":"Khronos glTF Blender I/O v5.2.39",
		"version":"2.0"
	},
	"scene":0,
	"scenes":[
		{
			"name":"Scene",
			"nodes":[
				0
			]
		}
	],
	"nodes":[
		{
			"mesh":0,
			"name":"hair.127"
		}
	],
	"materials":[
		{
			"doubleSided":true,
			"name":"mii hair",
			"pbrMetallicRoughness":{
				"baseColorFactor":[
					0.06388100236654282,
					0.03379200026392937,
					0.009719000197947025,
					1
				],
				"metallicFactor":0,
				"roughnessFactor":0.800000011920929
			}
		}
	],
	"meshes":[
		{
			"name":"shape_340out.002",
			"primitives":[
				{
					"attributes":{
						"POSITION":0,
						"NORMAL":1,
						"TEXCOORD_0":2
					},
					"indices":3,
					"material":0
				}
			]
		}
	],
	"accessors":[
		{
			"bufferView":0,
			"componentType":5126,
			"count":708,
			"max":[
				0.3778814971446991,
				-1.694119930267334,
				0.3261594772338867
			],
			"min":[
				-0.3778814971446991,
				-2.4893524646759033,
				-0.4340262711048126
			],
			"type":"VEC3"
		},
		{
			"bufferView":1,
			"componentType":5126,
			"count":708,
			"type":"VEC3"
		},
		{
			"bufferView":2,
			"componentType":5126,
			"count":708,
			"type":"VEC2"
		},
		{
			"bufferView":3,
			"componentType":5123,
			"count":3894,
			"type":"SCALAR"
		}
	],
	"bufferViews":[
		{
			"buffer":0,
			"byteLength":8496,
			"byteOffset":0,
			"target":34962
		},
		{
			"buffer":0,
			"byteLength":8496,
			"byteOffset":8496,
			"target":34962
		},
		{
			"buffer":0,
			"byteLength":5664,
			"byteOffset":16992,
			"target":34962
		},
		{
			"buffer":0,
			"byteLength":7788,
			"byteOffset":22656,
			"target":34963
		}
	],
	"buffers":[
		{
			"byteLength":30444,
			"uri":"hair_hair_127.bin"
		}
	]
}
