{
	"asset":{
		"generator":"Khronos glTF Blender I/O v5.2.39",
		"version":"2.0"
	},
	"scene":0,
	"scenes":[
		{
			"name":"Scene",
			"nodes":[
				0
			]
		}
	],
	"nodes":[
		{
			"mesh":0,
			"name":"hair.134"
		}
	],
	"materials":[
		{
			"doubleSided":true,
			"name":"mii hair",
			"pbrMetallicRoughness":{
				"baseColorFactor":[
					0.06388100236654282,
					0.03379200026392937,
					0.009719000197947025,
					1
				],
				"metallicFactor":0,
				"roughnessFactor":0.800000011920929
			}
		}
	],
	"meshes":[
		{
			"name":"shape_338out.001",
			"primitives":[
				{
					"attributes":{
						"POSITION":0,
						"NORMAL":1,
						"TEXCOORD_0":2
					},
					"indices":3,
					"material":0
				}
			]
		}
	],
	"accessors":[
		{
			"bufferView":0,
			"componentType":5126,
			"count":699,
			"max":[
				0.0564841702580452,
				0.006916174199432135,
				0.05180000141263008
			],
			"min":[
				-0.05649659037590027,
				-0.14564073085784912,
				-0.09913644939661026
			],
			"type":"VEC3"
		},
		{
			"bufferView":1,
			"componentType":5126,
			"count":699,
			"type":"VEC3"
		},
		{
			"bufferView":2,
			"componentType":5126,
			"count":699,
			"type":"VEC2"
		},
		{
			"bufferView":3,
			"componentType":5123,
			"count":3795,
			"type":"SCALAR"
		}
	],
	"bufferViews":[
		{
			"buffer":0,
			"byteLength":8388,
			"byteOffset":0,
			"target":34962
		},
		{
			"buffer":0,
			"byteLength":8388,
			"byteOffset":8388,
			"target":34962
		},
		{
			"buffer":0,
			"byteLength":5592,
			"byteOffset":16776,
			"target":34962
		},
		{
			"buffer":0,
			"byteLength":7590,
			"byteOffset":22368,
			"target":34963
		}
	],
	"buffers":[
		{
			"byteLength":29960,
			"uri":"hair_125.bin"
		}
	]
}
