{
	"asset":{
		"generator":"Khronos glTF Blender I/O v5.2.39",
		"version":"2.0"
	},
	"scene":0,
	"scenes":[
		{
			"name":"Scene",
			"nodes":[
				0
			]
		}
	],
	"nodes":[
		{
			"mesh":0,
			"name":"hair.134"
		}
	],
	"materials":[
		{
			"doubleSided":true,
			"name":"mii hair",
			"pbrMetallicRoughness":{
				"baseColorFactor":[
					0.06388100236654282,
					0.03379200026392937,
					0.009719000197947025,
					1
				],
				"metallicFactor":0,
				"roughnessFactor":0.800000011920929
			}
		}
	],
	"meshes":[
		{
			"name":"shape_406out.004",
			"primitives":[
				{
					"attributes":{
						"POSITION":0,
						"NORMAL":1,
						"TEXCOORD_0":2
					},
					"indices":3,
					"material":0
				}
			]
		}
	],
	"accessors":[
		{
			"bufferView":0,
			"componentType":5126,
			"count":893,
			"max":[
				0.05733161419630051,
				0.007200318388640881,
				0.06022277846932411
			],
			"min":[
				-0.05726953595876694,
				-0.1372300684452057,
				-0.09443029016256332
			],
			"type":"VEC3"
		},
		{
			"bufferView":1,
			"componentType":5126,
			"count":893,
			"type":"VEC3"
		},
		{
			"bufferView":2,
			"componentType":5126,
			"count":893,
			"type":"VEC2"
		},
		{
			"bufferView":3,
			"componentType":5123,
			"count":4980,
			"type":"SCALAR"
		}
	],
	"bufferViews":[
		{
			"buffer":0,
			"byteLength":10716,
			"byteOffset":0,
			"target":34962
		},
		{
			"buffer":0,
			"byteLength":10716,
			"byteOffset":10716,
			"target":34962
		},
		{
			"buffer":0,
			"byteLength":7144,
			"byteOffset":21432,
			"target":34962
		},
		{
			"buffer":0,
			"byteLength":9960,
			"byteOffset":28576,
			"target":34963
		}
	],
	"buffers":[
		{
			"byteLength":38536,
			"uri":"hair_032.bin"
		}
	]
}
