{
	"asset":{
		"generator":"Khronos glTF Blender I/O v5.2.39",
		"version":"2.0"
	},
	"scene":0,
	"scenes":[
		{
			"name":"Scene",
			"nodes":[
				0
			]
		}
	],
	"nodes":[
		{
			"mesh":0,
			"name":"hair.087"
		}
	],
	"materials":[
		{
			"doubleSided":true,
			"name":"mii hair",
			"pbrMetallicRoughness":{
				"baseColorFactor":[
					0.06388100236654282,
					0.03379200026392937,
					0.009719000197947025,
					1
				],
				"metallicFactor":0,
				"roughnessFactor":0.800000011920929
			}
		}
	],
	"meshes":[
		{
			"name":"shape_344out.001",
			"primitives":[
				{
					"attributes":{
						"POSITION":0,
						"NORMAL":1,
						"TEXCOORD_0":2
					},
					"indices":3,
					"material":0
				}
			]
		}
	],
	"accessors":[
		{
			"bufferView":0,
			"componentType":5126,
			"count":780,
			"max":[
				0.3845057785511017,
				-1.6855651140213013,
				0.3574589788913727
			],
			"min":[
				-0.3845057785511017,
				-2.7437047958374023,
				-0.43419426679611206
			],
			"type":"VEC3"
		},
		{
			"bufferView":1,
			"componentType":5126,
			"count":780,
			"type":"VEC3"
		},
		{
			"bufferView":2,
			"componentType":5126,
			"count":780,
			"type":"VEC2"
		},
		{
			"bufferView":3,
			"componentType":5123,
			"count":4074,
			"type":"SCALAR"
		}
	],
	"bufferViews":[
		{
			"buffer":0,
			"byteLength":9360,
			"byteOffset":0,
			"target":34962
		},
		{
			"buffer":0,
			"byteLength":9360,
			"byteOffset":9360,
			"target":34962
		},
		{
			"buffer":0,
			"byteLength":6240,
			"byteOffset":18720,
			"target":34962
		},
		{
			"buffer":0,
			"byteLength":8148,
			"byteOffset":24960,
			"target":34963
		}
	],
	"buffers":[
		{
			"byteLength":33108,
			"uri":"hair_hair_087.bin"
		}
	]
}
