{
	"asset":{
		"generator":"Khronos glTF Blender I/O v5.2.39",
		"version":"2.0"
	},
	"scene":0,
	"scenes":[
		{
			"name":"Scene",
			"nodes":[
				0
			]
		}
	],
	"nodes":[
		{
			"mesh":0,
			"name":"hair.134"
		}
	],
	"materials":[
		{
			"doubleSided":true,
			"name":"mii hair",
			"pbrMetallicRoughness":{
				"baseColorFactor":[
					0.06388100236654282,
					0.03379200026392937,
					0.009719000197947025,
					1
				],
				"metallicFactor":0,
				"roughnessFactor":0.800000011920929
			}
		}
	],
	"meshes":[
		{
			"name":"shape_403out.002",
			"primitives":[
				{
					"attributes":{
						"POSITION":0,
						"NORMAL":1,
						"TEXCOORD_0":2
					},
					"indices":3,
					"material":0
				}
			]
		}
	],
	"accessors":[
		{
			"bufferView":0,
			"componentType":5126,
			"count":751,
			"max":[
				0.06361407786607742,
				0.007389952428638935,
				0.059014543890953064
			],
			"min":[
				-0.0636264979839325,
				-0.1260875165462494,
				-0.07525908201932907
			],
			"type":"VEC3"
		},
		{
			"bufferView":1,
			"componentType":5126,
			"count":751,
			"type":"VEC3"
		},
		{
			"bufferView":2,
			"componentType":5126,
			"count":751,
			"type":"VEC2"
		},
		{
			"bufferView":3,
			"componentType":5123,
			"count":4134,
			"type":"SCALAR"
		}
	],
	"bufferViews":[
		{
			"buffer":0,
			"byteLength":9012,
			"byteOffset":0,
			"target":34962
		},
		{
			"buffer":0,
			"byteLength":9012,
			"byteOffset":9012,
			"target":34962
		},
		{
			"buffer":0,
			"byteLength":6008,
			"byteOffset":18024,
			"target":34962
		},
		{
			"buffer":0,
			"byteLength":8268,
			"byteOffset":24032,
			"target":34963
		}
	],
	"buffers":[
		{
			"byteLength":32300,
			"uri":"hair_085.bin"
		}
	]
}
