{
	"asset":{
		"generator":"Khronos glTF Blender I/O v5.2.39",
		"version":"2.0"
	},
	"scene":0,
	"scenes":[
		{
			"name":"Scene",
			"nodes":[
				0
			]
		}
	],
	"nodes":[
		{
			"mesh":0,
			"name":"hair.124"
		}
	],
	"materials":[
		{
			"doubleSided":true,
			"name":"mii hair",
			"pbrMetallicRoughness":{
				"baseColorFactor":[
					0.06388100236654282,
					0.03379200026392937,
					0.009719000197947025,
					1
				],
				"metallicFactor":0,
				"roughnessFactor":0.800000011920929
			}
		}
	],
	"meshes":[
		{
			"name":"shape_337out.002",
			"primitives":[
				{
					"attributes":{
						"POSITION":0,
						"NORMAL":1,
						"TEXCOORD_0":2
					},
					"indices":3,
					"material":0
				}
			]
		}
	],
	"accessors":[
		{
			"bufferView":0,
			"componentType":5126,
			"count":868,
			"max":[
				0.3911252021789551,
				-1.6879805326461792,
				0.36964067816734314
			],
			"min":[
				-0.3912028968334198,
				-2.6175155639648438,
				-0.43077710270881653
			],
			"type":"VEC3"
		},
		{
			"bufferView":1,
			"componentType":5126,
			"count":868,
			"type":"VEC3"
		},
		{
			"bufferView":2,
			"componentType":5126,
			"count":868,
			"type":"VEC2"
		},
		{
			"bufferView":3,
			"componentType":5123,
			"count":4728,
			"type":"SCALAR"
		}
	],
	"bufferViews":[
		{
			"buffer":0,
			"byteLength":10416,
			"byteOffset":0,
			"target":34962
		},
		{
			"buffer":0,
			"byteLength":10416,
			"byteOffset":10416,
			"target":34962
		},
		{
			"buffer":0,
			"byteLength":6944,
			"byteOffset":20832,
			"target":34962
		},
		{
			"buffer":0,
			"byteLength":9456,
			"byteOffset":27776,
			"target":34963
		}
	],
	"buffers":[
		{
			"byteLength":37232,
			"uri":"hair_hair_124.bin"
		}
	]
}
