{
	"asset":{
		"generator":"Khronos glTF Blender I/O v5.2.39",
		"version":"2.0"
	},
	"scene":0,
	"scenes":[
		{
			"name":"Scene",
			"nodes":[
				0
			]
		}
	],
	"nodes":[
		{
			"mesh":0,
			"name":"hair.123"
		}
	],
	"materials":[
		{
			"doubleSided":true,
			"name":"mii hair",
			"pbrMetallicRoughness":{
				"baseColorFactor":[
					0.06388100236654282,
					0.03379200026392937,
					0.009719000197947025,
					1
				],
				"metallicFactor":0,
				"roughnessFactor":0.800000011920929
			}
		}
	],
	"meshes":[
		{
			"name":"shape_336out.002",
			"primitives":[
				{
					"attributes":{
						"POSITION":0,
						"NORMAL":1,
						"TEXCOORD_0":2
					},
					"indices":3,
					"material":0
				}
			]
		}
	],
	"accessors":[
		{
			"bufferView":0,
			"componentType":5126,
			"count":718,
			"max":[
				0.40765854716300964,
				-1.6877468824386597,
				0.37941640615463257
			],
			"min":[
				-0.40765854716300964,
				-2.7437047958374023,
				-0.4735509753227234
			],
			"type":"VEC3"
		},
		{
			"bufferView":1,
			"componentType":5126,
			"count":718,
			"type":"VEC3"
		},
		{
			"bufferView":2,
			"componentType":5126,
			"count":718,
			"type":"VEC2"
		},
		{
			"bufferView":3,
			"componentType":5123,
			"count":3813,
			"type":"SCALAR"
		}
	],
	"bufferViews":[
		{
			"buffer":0,
			"byteLength":8616,
			"byteOffset":0,
			"target":34962
		},
		{
			"buffer":0,
			"byteLength":8616,
			"byteOffset":8616,
			"target":34962
		},
		{
			"buffer":0,
			"byteLength":5744,
			"byteOffset":17232,
			"target":34962
		},
		{
			"buffer":0,
			"byteLength":7626,
			"byteOffset":22976,
			"target":34963
		}
	],
	"buffers":[
		{
			"byteLength":30604,
			"uri":"hair_hair_123.bin"
		}
	]
}
