{
	"asset":{
		"generator":"Khronos glTF Blender I/O v5.2.39",
		"version":"2.0"
	},
	"scene":0,
	"scenes":[
		{
			"name":"Scene",
			"nodes":[
				0
			]
		}
	],
	"nodes":[
		{
			"mesh":0,
			"name":"hair.023"
		}
	],
	"materials":[
		{
			"doubleSided":true,
			"name":"mii hair",
			"pbrMetallicRoughness":{
				"baseColorFactor":[
					0.06388100236654282,
					0.03379200026392937,
					0.009719000197947025,
					1
				],
				"metallicFactor":0,
				"roughnessFactor":0.800000011920929
			}
		}
	],
	"meshes":[
		{
			"name":"shape_454out.001",
			"primitives":[
				{
					"attributes":{
						"POSITION":0,
						"NORMAL":1,
						"TEXCOORD_0":2
					},
					"indices":3,
					"material":0
				}
			]
		}
	],
	"accessors":[
		{
			"bufferView":0,
			"componentType":5126,
			"count":527,
			"max":[
				0.42492756247520447,
				-1.5985817909240723,
				0.35704219341278076
			],
			"min":[
				-0.4250052571296692,
				-2.5273189544677734,
				-0.48769673705101013
			],
			"type":"VEC3"
		},
		{
			"bufferView":1,
			"componentType":5126,
			"count":527,
			"type":"VEC3"
		},
		{
			"bufferView":2,
			"componentType":5126,
			"count":527,
			"type":"VEC2"
		},
		{
			"bufferView":3,
			"componentType":5123,
			"count":2748,
			"type":"SCALAR"
		}
	],
	"bufferViews":[
		{
			"buffer":0,
			"byteLength":6324,
			"byteOffset":0,
			"target":34962
		},
		{
			"buffer":0,
			"byteLength":6324,
			"byteOffset":6324,
			"target":34962
		},
		{
			"buffer":0,
			"byteLength":4216,
			"byteOffset":12648,
			"target":34962
		},
		{
			"buffer":0,
			"byteLength":5496,
			"byteOffset":16864,
			"target":34963
		}
	],
	"buffers":[
		{
			"byteLength":22360,
			"uri":"hair_hair_023.bin"
		}
	]
}
