{
	"asset":{
		"generator":"Khronos glTF Blender I/O v5.2.39",
		"version":"2.0"
	},
	"scene":0,
	"scenes":[
		{
			"name":"Scene",
			"nodes":[
				0
			]
		}
	],
	"nodes":[
		{
			"mesh":0,
			"name":"hair.134"
		}
	],
	"materials":[
		{
			"doubleSided":true,
			"name":"mii hair",
			"pbrMetallicRoughness":{
				"baseColorFactor":[
					0.06388100236654282,
					0.03379200026392937,
					0.009719000197947025,
					1
				],
				"metallicFactor":0,
				"roughnessFactor":0.800000011920929
			}
		}
	],
	"meshes":[
		{
			"name":"shape_429out.002",
			"primitives":[
				{
					"attributes":{
						"POSITION":0,
						"NORMAL":1,
						"TEXCOORD_0":2
					},
					"indices":3,
					"material":0
				}
			]
		}
	],
	"accessors":[
		{
			"bufferView":0,
			"componentType":5126,
			"count":705,
			"max":[
				0.057883430272340775,
				0.007029022555798292,
				0.058249812573194504
			],
			"min":[
				-0.057883430272340775,
				-0.15928536653518677,
				-0.06961745768785477
			],
			"type":"VEC3"
		},
		{
			"bufferView":1,
			"componentType":5126,
			"count":705,
			"type":"VEC3"
		},
		{
			"bufferView":2,
			"componentType":5126,
			"count":705,
			"type":"VEC2"
		},
		{
			"bufferView":3,
			"componentType":5123,
			"count":3834,
			"type":"SCALAR"
		}
	],
	"bufferViews":[
		{
			"buffer":0,
			"byteLength":8460,
			"byteOffset":0,
			"target":34962
		},
		{
			"buffer":0,
			"byteLength":8460,
			"byteOffset":8460,
			"target":34962
		},
		{
			"buffer":0,
			"byteLength":5640,
			"byteOffset":16920,
			"target":34962
		},
		{
			"buffer":0,
			"byteLength":7668,
			"byteOffset":22560,
			"target":34963
		}
	],
	"buffers":[
		{
			"byteLength":30228,
			"uri":"hair_055.bin"
		}
	]
}
