{
	"asset":{
		"generator":"Khronos glTF Blender I/O v5.2.39",
		"version":"2.0"
	},
	"scene":0,
	"scenes":[
		{
			"name":"Scene",
			"nodes":[
				0
			]
		}
	],
	"nodes":[
		{
			"mesh":0,
			"name":"hair.064"
		}
	],
	"materials":[
		{
			"doubleSided":true,
			"name":"mii hair",
			"pbrMetallicRoughness":{
				"baseColorFactor":[
					0.06388100236654282,
					0.03379200026392937,
					0.009719000197947025,
					1
				],
				"metallicFactor":0,
				"roughnessFactor":0.800000011920929
			}
		}
	],
	"meshes":[
		{
			"name":"shape_381out.001",
			"primitives":[
				{
					"attributes":{
						"POSITION":0,
						"NORMAL":1,
						"TEXCOORD_0":2
					},
					"indices":3,
					"material":0
				}
			]
		}
	],
	"accessors":[
		{
			"bufferView":0,
			"componentType":5126,
			"count":555,
			"max":[
				0.3331729471683502,
				-1.6908186674118042,
				0.3607311546802521
			],
			"min":[
				-0.3331729471683502,
				-2.411548137664795,
				-0.4217078387737274
			],
			"type":"VEC3"
		},
		{
			"bufferView":1,
			"componentType":5126,
			"count":555,
			"type":"VEC3"
		},
		{
			"bufferView":2,
			"componentType":5126,
			"count":555,
			"type":"VEC2"
		},
		{
			"bufferView":3,
			"componentType":5123,
			"count":3054,
			"type":"SCALAR"
		}
	],
	"bufferViews":[
		{
			"buffer":0,
			"byteLength":6660,
			"byteOffset":0,
			"target":34962
		},
		{
			"buffer":0,
			"byteLength":6660,
			"byteOffset":6660,
			"target":34962
		},
		{
			"buffer":0,
			"byteLength":4440,
			"byteOffset":13320,
			"target":34962
		},
		{
			"buffer":0,
			"byteLength":6108,
			"byteOffset":17760,
			"target":34963
		}
	],
	"buffers":[
		{
			"byteLength":23868,
			"uri":"hair_hair_064.bin"
		}
	]
}
