{
	"asset":{
		"generator":"Khronos glTF Blender I/O v5.2.39",
		"version":"2.0"
	},
	"scene":0,
	"scenes":[
		{
			"name":"Scene",
			"nodes":[
				0
			]
		}
	],
	"nodes":[
		{
			"mesh":0,
			"name":"hair.010"
		}
	],
	"materials":[
		{
			"doubleSided":true,
			"name":"mii hair",
			"pbrMetallicRoughness":{
				"baseColorFactor":[
					0.06388100236654282,
					0.03379200026392937,
					0.009719000197947025,
					1
				],
				"metallicFactor":0,
				"roughnessFactor":0.800000011920929
			}
		}
	],
	"meshes":[
		{
			"name":"shape_441out.001",
			"primitives":[
				{
					"attributes":{
						"POSITION":0,
						"NORMAL":1,
						"TEXCOORD_0":2
					},
					"indices":3,
					"material":0
				}
			]
		}
	],
	"accessors":[
		{
			"bufferView":0,
			"componentType":5126,
			"count":888,
			"max":[
				0.35605934262275696,
				-1.6326234340667725,
				0.37312132120132446
			],
			"min":[
				-0.35605934262275696,
				-2.743706226348877,
				-0.5239234566688538
			],
			"type":"VEC3"
		},
		{
			"bufferView":1,
			"componentType":5126,
			"count":888,
			"type":"VEC3"
		},
		{
			"bufferView":2,
			"componentType":5126,
			"count":888,
			"type":"VEC2"
		},
		{
			"bufferView":3,
			"componentType":5123,
			"count":4470,
			"type":"SCALAR"
		}
	],
	"bufferViews":[
		{
			"buffer":0,
			"byteLength":10656,
			"byteOffset":0,
			"target":34962
		},
		{
			"buffer":0,
			"byteLength":10656,
			"byteOffset":10656,
			"target":34962
		},
		{
			"buffer":0,
			"byteLength":7104,
			"byteOffset":21312,
			"target":34962
		},
		{
			"buffer":0,
			"byteLength":8940,
			"byteOffset":28416,
			"target":34963
		}
	],
	"buffers":[
		{
			"byteLength":37356,
			"uri":"hair_hair_010.bin"
		}
	]
}
