{
	"asset":{
		"generator":"Khronos glTF Blender I/O v5.2.39",
		"version":"2.0"
	},
	"scene":0,
	"scenes":[
		{
			"name":"Scene",
			"nodes":[
				0
			]
		}
	],
	"nodes":[
		{
			"mesh":0,
			"name":"hair.009"
		}
	],
	"materials":[
		{
			"doubleSided":true,
			"name":"mii hair",
			"pbrMetallicRoughness":{
				"baseColorFactor":[
					0.06388100236654282,
					0.03379200026392937,
					0.009719000197947025,
					1
				],
				"metallicFactor":0,
				"roughnessFactor":0.800000011920929
			}
		}
	],
	"meshes":[
		{
			"name":"shape_440out.001",
			"primitives":[
				{
					"attributes":{
						"POSITION":0,
						"NORMAL":1,
						"TEXCOORD_0":2
					},
					"indices":3,
					"material":0
				}
			]
		}
	],
	"accessors":[
		{
			"bufferView":0,
			"componentType":5126,
			"count":1023,
			"max":[
				0.48363059759140015,
				-1.6926743984222412,
				0.35609403252601624
			],
			"min":[
				-0.48363059759140015,
				-2.7241063117980957,
				-0.5048505067825317
			],
			"type":"VEC3"
		},
		{
			"bufferView":1,
			"componentType":5126,
			"count":1023,
			"type":"VEC3"
		},
		{
			"bufferView":2,
			"componentType":5126,
			"count":1023,
			"type":"VEC2"
		},
		{
			"bufferView":3,
			"componentType":5123,
			"count":5838,
			"type":"SCALAR"
		}
	],
	"bufferViews":[
		{
			"buffer":0,
			"byteLength":12276,
			"byteOffset":0,
			"target":34962
		},
		{
			"buffer":0,
			"byteLength":12276,
			"byteOffset":12276,
			"target":34962
		},
		{
			"buffer":0,
			"byteLength":8184,
			"byteOffset":24552,
			"target":34962
		},
		{
			"buffer":0,
			"byteLength":11676,
			"byteOffset":32736,
			"target":34963
		}
	],
	"buffers":[
		{
			"byteLength":44412,
			"uri":"hair_hair_009.bin"
		}
	]
}
