{
	"asset":{
		"generator":"Khronos glTF Blender I/O v5.2.39",
		"version":"2.0"
	},
	"scene":0,
	"scenes":[
		{
			"name":"Scene",
			"nodes":[
				0
			]
		}
	],
	"nodes":[
		{
			"mesh":0,
			"name":"hair.079"
		}
	],
	"materials":[
		{
			"doubleSided":true,
			"name":"mii hair",
			"pbrMetallicRoughness":{
				"baseColorFactor":[
					0.06388100236654282,
					0.03379200026392937,
					0.009719000197947025,
					1
				],
				"metallicFactor":0,
				"roughnessFactor":0.800000011920929
			}
		}
	],
	"meshes":[
		{
			"name":"shape_397out.001",
			"primitives":[
				{
					"attributes":{
						"POSITION":0,
						"NORMAL":1,
						"TEXCOORD_0":2
					},
					"indices":3,
					"material":0
				}
			]
		}
	],
	"accessors":[
		{
			"bufferView":0,
			"componentType":5126,
			"count":234,
			"max":[
				0.35634735226631165,
				-1.683443546295166,
				0.30789807438850403
			],
			"min":[
				-0.35642504692077637,
				-2.4541995525360107,
				-0.4505636990070343
			],
			"type":"VEC3"
		},
		{
			"bufferView":1,
			"componentType":5126,
			"count":234,
			"type":"VEC3"
		},
		{
			"bufferView":2,
			"componentType":5126,
			"count":234,
			"type":"VEC2"
		},
		{
			"bufferView":3,
			"componentType":5123,
			"count":1179,
			"type":"SCALAR"
		}
	],
	"bufferViews":[
		{
			"buffer":0,
			"byteLength":2808,
			"byteOffset":0,
			"target":34962
		},
		{
			"buffer":0,
			"byteLength":2808,
			"byteOffset":2808,
			"target":34962
		},
		{
			"buffer":0,
			"byteLength":1872,
			"byteOffset":5616,
			"target":34962
		},
		{
			"buffer":0,
			"byteLength":2358,
			"byteOffset":7488,
			"target":34963
		}
	],
	"buffers":[
		{
			"byteLength":9848,
			"uri":"hair_hair_079.bin"
		}
	]
}
