{
	"asset":{
		"generator":"Khronos glTF Blender I/O v5.2.39",
		"version":"2.0"
	},
	"scene":0,
	"scenes":[
		{
			"name":"Scene",
			"nodes":[
				0
			]
		}
	],
	"nodes":[
		{
			"mesh":0,
			"name":"hair.051"
		}
	],
	"materials":[
		{
			"doubleSided":true,
			"name":"mii hair",
			"pbrMetallicRoughness":{
				"baseColorFactor":[
					0.06388100236654282,
					0.03379200026392937,
					0.009719000197947025,
					1
				],
				"metallicFactor":0,
				"roughnessFactor":0.800000011920929
			}
		}
	],
	"meshes":[
		{
			"name":"shape_425out.001",
			"primitives":[
				{
					"attributes":{
						"POSITION":0,
						"NORMAL":1,
						"TEXCOORD_0":2
					},
					"indices":3,
					"material":0
				}
			]
		}
	],
	"accessors":[
		{
			"bufferView":0,
			"componentType":5126,
			"count":734,
			"max":[
				0.4076197147369385,
				-1.687576413154602,
				0.4002783000469208
			],
			"min":[
				-0.4076974093914032,
				-2.743706226348877,
				-0.4735509753227234
			],
			"type":"VEC3"
		},
		{
			"bufferView":1,
			"componentType":5126,
			"count":734,
			"type":"VEC3"
		},
		{
			"bufferView":2,
			"componentType":5126,
			"count":734,
			"type":"VEC2"
		},
		{
			"bufferView":3,
			"componentType":5123,
			"count":3909,
			"type":"SCALAR"
		}
	],
	"bufferViews":[
		{
			"buffer":0,
			"byteLength":8808,
			"byteOffset":0,
			"target":34962
		},
		{
			"buffer":0,
			"byteLength":8808,
			"byteOffset":8808,
			"target":34962
		},
		{
			"buffer":0,
			"byteLength":5872,
			"byteOffset":17616,
			"target":34962
		},
		{
			"buffer":0,
			"byteLength":7818,
			"byteOffset":23488,
			"target":34963
		}
	],
	"buffers":[
		{
			"byteLength":31308,
			"uri":"hair_hair_051.bin"
		}
	]
}
