{
	"asset":{
		"generator":"Khronos glTF Blender I/O v5.2.39",
		"version":"2.0"
	},
	"scene":0,
	"scenes":[
		{
			"name":"Scene",
			"nodes":[
				0
			]
		}
	],
	"nodes":[
		{
			"mesh":0,
			"name":"hair.134"
		}
	],
	"materials":[
		{
			"doubleSided":true,
			"name":"mii hair",
			"pbrMetallicRoughness":{
				"baseColorFactor":[
					0.06388100236654282,
					0.03379200026392937,
					0.009719000197947025,
					1
				],
				"metallicFactor":0,
				"roughnessFactor":0.800000011920929
			}
		}
	],
	"meshes":[
		{
			"name":"shape_345out.002",
			"primitives":[
				{
					"attributes":{
						"POSITION":0,
						"NORMAL":1,
						"TEXCOORD_0":2
					},
					"indices":3,
					"material":0
				}
			]
		}
	],
	"accessors":[
		{
			"bufferView":0,
			"componentType":5126,
			"count":737,
			"max":[
				0.05672580748796463,
				0.008525286801159382,
				0.058509547263383865
			],
			"min":[
				-0.056742679327726364,
				-0.14938755333423615,
				-0.06842485815286636
			],
			"type":"VEC3"
		},
		{
			"bufferView":1,
			"componentType":5126,
			"count":737,
			"type":"VEC3"
		},
		{
			"bufferView":2,
			"componentType":5126,
			"count":737,
			"type":"VEC2"
		},
		{
			"bufferView":3,
			"componentType":5123,
			"count":4002,
			"type":"SCALAR"
		}
	],
	"bufferViews":[
		{
			"buffer":0,
			"byteLength":8844,
			"byteOffset":0,
			"target":34962
		},
		{
			"buffer":0,
			"byteLength":8844,
			"byteOffset":8844,
			"target":34962
		},
		{
			"buffer":0,
			"byteLength":5896,
			"byteOffset":17688,
			"target":34962
		},
		{
			"buffer":0,
			"byteLength":8004,
			"byteOffset":23584,
			"target":34963
		}
	],
	"buffers":[
		{
			"byteLength":31588,
			"uri":"hair_088.bin"
		}
	]
}
