{
	"asset":{
		"generator":"Khronos glTF Blender I/O v5.2.39",
		"version":"2.0"
	},
	"scene":0,
	"scenes":[
		{
			"name":"Scene",
			"nodes":[
				0
			]
		}
	],
	"nodes":[
		{
			"mesh":0,
			"name":"hair.062"
		}
	],
	"materials":[
		{
			"doubleSided":true,
			"name":"mii hair",
			"pbrMetallicRoughness":{
				"baseColorFactor":[
					0.06388100236654282,
					0.03379200026392937,
					0.009719000197947025,
					1
				],
				"metallicFactor":0,
				"roughnessFactor":0.800000011920929
			}
		}
	],
	"meshes":[
		{
			"name":"shape_379out.001",
			"primitives":[
				{
					"attributes":{
						"POSITION":0,
						"NORMAL":1,
						"TEXCOORD_0":2
					},
					"indices":3,
					"material":0
				}
			]
		}
	],
	"accessors":[
		{
			"bufferView":0,
			"componentType":5126,
			"count":678,
			"max":[
				0.38640037178993225,
				-1.6838618516921997,
				0.37567126750946045
			],
			"min":[
				-0.38647809624671936,
				-2.5188262462615967,
				-0.4281903803348541
			],
			"type":"VEC3"
		},
		{
			"bufferView":1,
			"componentType":5126,
			"count":678,
			"type":"VEC3"
		},
		{
			"bufferView":2,
			"componentType":5126,
			"count":678,
			"type":"VEC2"
		},
		{
			"bufferView":3,
			"componentType":5123,
			"count":3576,
			"type":"SCALAR"
		}
	],
	"bufferViews":[
		{
			"buffer":0,
			"byteLength":8136,
			"byteOffset":0,
			"target":34962
		},
		{
			"buffer":0,
			"byteLength":8136,
			"byteOffset":8136,
			"target":34962
		},
		{
			"buffer":0,
			"byteLength":5424,
			"byteOffset":16272,
			"target":34962
		},
		{
			"buffer":0,
			"byteLength":7152,
			"byteOffset":21696,
			"target":34963
		}
	],
	"buffers":[
		{
			"byteLength":28848,
			"uri":"hair_hair_062.bin"
		}
	]
}
