{
	"asset":{
		"generator":"Khronos glTF Blender I/O v5.2.39",
		"version":"2.0"
	},
	"scene":0,
	"scenes":[
		{
			"name":"Scene",
			"nodes":[
				0
			]
		}
	],
	"nodes":[
		{
			"mesh":0,
			"name":"hair.078"
		}
	],
	"materials":[
		{
			"doubleSided":true,
			"name":"mii hair",
			"pbrMetallicRoughness":{
				"baseColorFactor":[
					0.06388100236654282,
					0.03379200026392937,
					0.009719000197947025,
					1
				],
				"metallicFactor":0,
				"roughnessFactor":0.800000011920929
			}
		}
	],
	"meshes":[
		{
			"name":"shape_396out.001",
			"primitives":[
				{
					"attributes":{
						"POSITION":0,
						"NORMAL":1,
						"TEXCOORD_0":2
					},
					"indices":3,
					"material":0
				}
			]
		}
	],
	"accessors":[
		{
			"bufferView":0,
			"componentType":5126,
			"count":620,
			"max":[
				0.3197662830352783,
				-1.6657370328903198,
				0.2878442108631134
			],
			"min":[
				-0.31984376907348633,
				-2.411541223526001,
				-0.40484490990638733
			],
			"type":"VEC3"
		},
		{
			"bufferView":1,
			"componentType":5126,
			"count":620,
			"type":"VEC3"
		},
		{
			"bufferView":2,
			"componentType":5126,
			"count":620,
			"type":"VEC2"
		},
		{
			"bufferView":3,
			"componentType":5123,
			"count":3492,
			"type":"SCALAR"
		}
	],
	"bufferViews":[
		{
			"buffer":0,
			"byteLength":7440,
			"byteOffset":0,
			"target":34962
		},
		{
			"buffer":0,
			"byteLength":7440,
			"byteOffset":7440,
			"target":34962
		},
		{
			"buffer":0,
			"byteLength":4960,
			"byteOffset":14880,
			"target":34962
		},
		{
			"buffer":0,
			"byteLength":6984,
			"byteOffset":19840,
			"target":34963
		}
	],
	"buffers":[
		{
			"byteLength":26824,
			"uri":"hair_hair_078.bin"
		}
	]
}
