{
	"asset":{
		"generator":"Khronos glTF Blender I/O v5.2.39",
		"version":"2.0"
	},
	"scene":0,
	"scenes":[
		{
			"name":"Scene",
			"nodes":[
				0
			]
		}
	],
	"nodes":[
		{
			"mesh":0,
			"name":"hair.134"
		}
	],
	"materials":[
		{
			"doubleSided":true,
			"name":"mii hair",
			"pbrMetallicRoughness":{
				"baseColorFactor":[
					0.06388100236654282,
					0.03379200026392937,
					0.009719000197947025,
					1
				],
				"metallicFactor":0,
				"roughnessFactor":0.800000011920929
			}
		}
	],
	"meshes":[
		{
			"name":"shape_412out.002",
			"primitives":[
				{
					"attributes":{
						"POSITION":0,
						"NORMAL":1,
						"TEXCOORD_0":2
					},
					"indices":3,
					"material":0
				}
			]
		}
	],
	"accessors":[
		{
			"bufferView":0,
			"componentType":5126,
			"count":393,
			"max":[
				0.0743212103843689,
				0.015844004228711128,
				0.05321754142642021
			],
			"min":[
				-0.0743212103843689,
				-0.10748777538537979,
				-0.08849313855171204
			],
			"type":"VEC3"
		},
		{
			"bufferView":1,
			"componentType":5126,
			"count":393,
			"type":"VEC3"
		},
		{
			"bufferView":2,
			"componentType":5126,
			"count":393,
			"type":"VEC2"
		},
		{
			"bufferView":3,
			"componentType":5123,
			"count":1896,
			"type":"SCALAR"
		}
	],
	"bufferViews":[
		{
			"buffer":0,
			"byteLength":4716,
			"byteOffset":0,
			"target":34962
		},
		{
			"buffer":0,
			"byteLength":4716,
			"byteOffset":4716,
			"target":34962
		},
		{
			"buffer":0,
			"byteLength":3144,
			"byteOffset":9432,
			"target":34962
		},
		{
			"buffer":0,
			"byteLength":3792,
			"byteOffset":12576,
			"target":34963
		}
	],
	"buffers":[
		{
			"byteLength":16368,
			"uri":"hair_038.bin"
		}
	]
}
