{
	"asset":{
		"generator":"Khronos glTF Blender I/O v5.2.39",
		"version":"2.0"
	},
	"scene":0,
	"scenes":[
		{
			"name":"Scene",
			"nodes":[
				0
			]
		}
	],
	"nodes":[
		{
			"mesh":0,
			"name":"hair.019"
		}
	],
	"materials":[
		{
			"doubleSided":true,
			"name":"mii hair",
			"pbrMetallicRoughness":{
				"baseColorFactor":[
					0.06388100236654282,
					0.03379200026392937,
					0.009719000197947025,
					1
				],
				"metallicFactor":0,
				"roughnessFactor":0.800000011920929
			}
		}
	],
	"meshes":[
		{
			"name":"shape_450out.001",
			"primitives":[
				{
					"attributes":{
						"POSITION":0,
						"NORMAL":1,
						"TEXCOORD_0":2
					},
					"indices":3,
					"material":0
				}
			]
		}
	],
	"accessors":[
		{
			"bufferView":0,
			"componentType":5126,
			"count":435,
			"max":[
				0.3689066767692566,
				-1.6617745161056519,
				0.393912136554718
			],
			"min":[
				-0.3689066767692566,
				-2.49554443359375,
				-0.44869402050971985
			],
			"type":"VEC3"
		},
		{
			"bufferView":1,
			"componentType":5126,
			"count":435,
			"type":"VEC3"
		},
		{
			"bufferView":2,
			"componentType":5126,
			"count":435,
			"type":"VEC2"
		},
		{
			"bufferView":3,
			"componentType":5123,
			"count":2082,
			"type":"SCALAR"
		}
	],
	"bufferViews":[
		{
			"buffer":0,
			"byteLength":5220,
			"byteOffset":0,
			"target":34962
		},
		{
			"buffer":0,
			"byteLength":5220,
			"byteOffset":5220,
			"target":34962
		},
		{
			"buffer":0,
			"byteLength":3480,
			"byteOffset":10440,
			"target":34962
		},
		{
			"buffer":0,
			"byteLength":4164,
			"byteOffset":13920,
			"target":34963
		}
	],
	"buffers":[
		{
			"byteLength":18084,
			"uri":"hair_hair_019.bin"
		}
	]
}
