{
	"asset":{
		"generator":"Khronos glTF Blender I/O v5.2.39",
		"version":"2.0"
	},
	"scene":0,
	"scenes":[
		{
			"name":"Scene",
			"nodes":[
				0
			]
		}
	],
	"nodes":[
		{
			"mesh":0,
			"name":"hair.134"
		}
	],
	"materials":[
		{
			"doubleSided":true,
			"name":"mii hair",
			"pbrMetallicRoughness":{
				"baseColorFactor":[
					0.06388100236654282,
					0.03379200026392937,
					0.009719000197947025,
					1
				],
				"metallicFactor":0,
				"roughnessFactor":0.800000011920929
			}
		}
	],
	"meshes":[
		{
			"name":"shape_342out.001",
			"primitives":[
				{
					"attributes":{
						"POSITION":0,
						"NORMAL":1,
						"TEXCOORD_0":2
					},
					"indices":3,
					"material":0
				}
			]
		}
	],
	"accessors":[
		{
			"bufferView":0,
			"componentType":5126,
			"count":589,
			"max":[
				0.05501162260770798,
				0.006619301158934832,
				0.06141755357384682
			],
			"min":[
				-0.05501162260770798,
				-0.1388052999973297,
				-0.0673213079571724
			],
			"type":"VEC3"
		},
		{
			"bufferView":1,
			"componentType":5126,
			"count":589,
			"type":"VEC3"
		},
		{
			"bufferView":2,
			"componentType":5126,
			"count":589,
			"type":"VEC2"
		},
		{
			"bufferView":3,
			"componentType":5123,
			"count":3168,
			"type":"SCALAR"
		}
	],
	"bufferViews":[
		{
			"buffer":0,
			"byteLength":7068,
			"byteOffset":0,
			"target":34962
		},
		{
			"buffer":0,
			"byteLength":7068,
			"byteOffset":7068,
			"target":34962
		},
		{
			"buffer":0,
			"byteLength":4712,
			"byteOffset":14136,
			"target":34962
		},
		{
			"buffer":0,
			"byteLength":6336,
			"byteOffset":18848,
			"target":34963
		}
	],
	"buffers":[
		{
			"byteLength":25184,
			"uri":"hair_129.bin"
		}
	]
}
