{
	"asset":{
		"generator":"Khronos glTF Blender I/O v5.2.39",
		"version":"2.0"
	},
	"scene":0,
	"scenes":[
		{
			"name":"Scene",
			"nodes":[
				0
			]
		}
	],
	"nodes":[
		{
			"mesh":0,
			"name":"hair.034"
		}
	],
	"materials":[
		{
			"doubleSided":true,
			"name":"mii hair",
			"pbrMetallicRoughness":{
				"baseColorFactor":[
					0.06388100236654282,
					0.03379200026392937,
					0.009719000197947025,
					1
				],
				"metallicFactor":0,
				"roughnessFactor":0.800000011920929
			}
		}
	],
	"meshes":[
		{
			"name":"shape_408out.001",
			"primitives":[
				{
					"attributes":{
						"POSITION":0,
						"NORMAL":1,
						"TEXCOORD_0":2
					},
					"indices":3,
					"material":0
				}
			]
		}
	],
	"accessors":[
		{
			"bufferView":0,
			"componentType":5126,
			"count":560,
			"max":[
				0.41610249876976013,
				-1.605621099472046,
				0.3935009837150574
			],
			"min":[
				-0.41610249876976013,
				-2.411543369293213,
				-0.5537023544311523
			],
			"type":"VEC3"
		},
		{
			"bufferView":1,
			"componentType":5126,
			"count":560,
			"type":"VEC3"
		},
		{
			"bufferView":2,
			"componentType":5126,
			"count":560,
			"type":"VEC2"
		},
		{
			"bufferView":3,
			"componentType":5123,
			"count":2514,
			"type":"SCALAR"
		}
	],
	"bufferViews":[
		{
			"buffer":0,
			"byteLength":6720,
			"byteOffset":0,
			"target":34962
		},
		{
			"buffer":0,
			"byteLength":6720,
			"byteOffset":6720,
			"target":34962
		},
		{
			"buffer":0,
			"byteLength":4480,
			"byteOffset":13440,
			"target":34962
		},
		{
			"buffer":0,
			"byteLength":5028,
			"byteOffset":17920,
			"target":34963
		}
	],
	"buffers":[
		{
			"byteLength":22948,
			"uri":"hair_hair_034.bin"
		}
	]
}
