{
	"asset":{
		"generator":"Khronos glTF Blender I/O v5.2.39",
		"version":"2.0"
	},
	"scene":0,
	"scenes":[
		{
			"name":"Scene",
			"nodes":[
				0
			]
		}
	],
	"nodes":[
		{
			"mesh":0,
			"name":"hair.134"
		}
	],
	"materials":[
		{
			"doubleSided":true,
			"name":"mii hair",
			"pbrMetallicRoughness":{
				"baseColorFactor":[
					0.06388100236654282,
					0.03379200026392937,
					0.009719000197947025,
					1
				],
				"metallicFactor":0,
				"roughnessFactor":0.800000011920929
			}
		}
	],
	"meshes":[
		{
			"name":"shape_357out.002",
			"primitives":[
				{
					"attributes":{
						"POSITION":0,
						"NORMAL":1,
						"TEXCOORD_0":2
					},
					"indices":3,
					"material":0
				}
			]
		}
	],
	"accessors":[
		{
			"bufferView":0,
			"componentType":5126,
			"count":1067,
			"max":[
				0.07730121910572052,
				0.007985261268913746,
				0.05075116828083992
			],
			"min":[
				-0.07731363922357559,
				-0.15745031833648682,
				-0.0806993916630745
			],
			"type":"VEC3"
		},
		{
			"bufferView":1,
			"componentType":5126,
			"count":1067,
			"type":"VEC3"
		},
		{
			"bufferView":2,
			"componentType":5126,
			"count":1067,
			"type":"VEC2"
		},
		{
			"bufferView":3,
			"componentType":5123,
			"count":6054,
			"type":"SCALAR"
		}
	],
	"bufferViews":[
		{
			"buffer":0,
			"byteLength":12804,
			"byteOffset":0,
			"target":34962
		},
		{
			"buffer":0,
			"byteLength":12804,
			"byteOffset":12804,
			"target":34962
		},
		{
			"buffer":0,
			"byteLength":8536,
			"byteOffset":25608,
			"target":34962
		},
		{
			"buffer":0,
			"byteLength":12108,
			"byteOffset":34144,
			"target":34963
		}
	],
	"buffers":[
		{
			"byteLength":46252,
			"uri":"hair_100.bin"
		}
	]
}
