{
	"asset":{
		"generator":"Khronos glTF Blender I/O v5.2.39",
		"version":"2.0"
	},
	"scene":0,
	"scenes":[
		{
			"name":"Scene",
			"nodes":[
				0
			]
		}
	],
	"nodes":[
		{
			"mesh":0,
			"name":"hair.134"
		}
	],
	"materials":[
		{
			"doubleSided":true,
			"name":"mii hair",
			"pbrMetallicRoughness":{
				"baseColorFactor":[
					0.06388100236654282,
					0.03379200026392937,
					0.009719000197947025,
					1
				],
				"metallicFactor":0,
				"roughnessFactor":0.800000011920929
			}
		}
	],
	"meshes":[
		{
			"name":"shape_407out.002",
			"primitives":[
				{
					"attributes":{
						"POSITION":0,
						"NORMAL":1,
						"TEXCOORD_0":2
					},
					"indices":3,
					"material":0
				}
			]
		}
	],
	"accessors":[
		{
			"bufferView":0,
			"componentType":5126,
			"count":927,
			"max":[
				0.08519189804792404,
				0.00701004546135664,
				0.05640542879700661
			],
			"min":[
				-0.08520431071519852,
				-0.13442912697792053,
				-0.06801725924015045
			],
			"type":"VEC3"
		},
		{
			"bufferView":1,
			"componentType":5126,
			"count":927,
			"type":"VEC3"
		},
		{
			"bufferView":2,
			"componentType":5126,
			"count":927,
			"type":"VEC2"
		},
		{
			"bufferView":3,
			"componentType":5123,
			"count":5154,
			"type":"SCALAR"
		}
	],
	"bufferViews":[
		{
			"buffer":0,
			"byteLength":11124,
			"byteOffset":0,
			"target":34962
		},
		{
			"buffer":0,
			"byteLength":11124,
			"byteOffset":11124,
			"target":34962
		},
		{
			"buffer":0,
			"byteLength":7416,
			"byteOffset":22248,
			"target":34962
		},
		{
			"buffer":0,
			"byteLength":10308,
			"byteOffset":29664,
			"target":34963
		}
	],
	"buffers":[
		{
			"byteLength":39972,
			"uri":"hair_033.bin"
		}
	]
}
