{
	"asset":{
		"generator":"Khronos glTF Blender I/O v5.2.39",
		"version":"2.0"
	},
	"scene":0,
	"scenes":[
		{
			"name":"Scene",
			"nodes":[
				0
			]
		}
	],
	"nodes":[
		{
			"mesh":0,
			"name":"hair.134"
		}
	],
	"materials":[
		{
			"doubleSided":true,
			"name":"mii hair",
			"pbrMetallicRoughness":{
				"baseColorFactor":[
					0.06388100236654282,
					0.03379200026392937,
					0.009719000197947025,
					1
				],
				"metallicFactor":0,
				"roughnessFactor":0.800000011920929
			}
		}
	],
	"meshes":[
		{
			"name":"shape_432out.002",
			"primitives":[
				{
					"attributes":{
						"POSITION":0,
						"NORMAL":1,
						"TEXCOORD_0":2
					},
					"indices":3,
					"material":0
				}
			]
		}
	],
	"accessors":[
		{
			"bufferView":0,
			"componentType":5126,
			"count":689,
			"max":[
				0.053758054971694946,
				0.007926998659968376,
				0.06103008612990379
			],
			"min":[
				-0.0533837229013443,
				-0.10748770087957382,
				-0.09539817273616791
			],
			"type":"VEC3"
		},
		{
			"bufferView":1,
			"componentType":5126,
			"count":689,
			"type":"VEC3"
		},
		{
			"bufferView":2,
			"componentType":5126,
			"count":689,
			"type":"VEC2"
		},
		{
			"bufferView":3,
			"componentType":5123,
			"count":3822,
			"type":"SCALAR"
		}
	],
	"bufferViews":[
		{
			"buffer":0,
			"byteLength":8268,
			"byteOffset":0,
			"target":34962
		},
		{
			"buffer":0,
			"byteLength":8268,
			"byteOffset":8268,
			"target":34962
		},
		{
			"buffer":0,
			"byteLength":5512,
			"byteOffset":16536,
			"target":34962
		},
		{
			"buffer":0,
			"byteLength":7644,
			"byteOffset":22048,
			"target":34963
		}
	],
	"buffers":[
		{
			"byteLength":29692,
			"uri":"hair_001.bin"
		}
	]
}
