{
	"asset":{
		"generator":"Khronos glTF Blender I/O v5.2.39",
		"version":"2.0"
	},
	"scene":0,
	"scenes":[
		{
			"name":"Scene",
			"nodes":[
				0
			]
		}
	],
	"nodes":[
		{
			"mesh":0,
			"name":"hair.107"
		}
	],
	"materials":[
		{
			"doubleSided":true,
			"name":"mii hair",
			"pbrMetallicRoughness":{
				"baseColorFactor":[
					0.06388100236654282,
					0.03379200026392937,
					0.009719000197947025,
					1
				],
				"metallicFactor":0,
				"roughnessFactor":0.800000011920929
			}
		}
	],
	"meshes":[
		{
			"name":"shape_366out.001",
			"primitives":[
				{
					"attributes":{
						"POSITION":0,
						"NORMAL":1,
						"TEXCOORD_0":2
					},
					"indices":3,
					"material":0
				}
			]
		}
	],
	"accessors":[
		{
			"bufferView":0,
			"componentType":5126,
			"count":475,
			"max":[
				0.3451363742351532,
				-1.6948955059051514,
				0.3332812190055847
			],
			"min":[
				-0.3451363742351532,
				-2.4115490913391113,
				-0.42484050989151
			],
			"type":"VEC3"
		},
		{
			"bufferView":1,
			"componentType":5126,
			"count":475,
			"type":"VEC3"
		},
		{
			"bufferView":2,
			"componentType":5126,
			"count":475,
			"type":"VEC2"
		},
		{
			"bufferView":3,
			"componentType":5123,
			"count":2586,
			"type":"SCALAR"
		}
	],
	"bufferViews":[
		{
			"buffer":0,
			"byteLength":5700,
			"byteOffset":0,
			"target":34962
		},
		{
			"buffer":0,
			"byteLength":5700,
			"byteOffset":5700,
			"target":34962
		},
		{
			"buffer":0,
			"byteLength":3800,
			"byteOffset":11400,
			"target":34962
		},
		{
			"buffer":0,
			"byteLength":5172,
			"byteOffset":15200,
			"target":34963
		}
	],
	"buffers":[
		{
			"byteLength":20372,
			"uri":"hair_hair_107.bin"
		}
	]
}
