{
	"asset":{
		"generator":"Khronos glTF Blender I/O v5.2.39",
		"version":"2.0"
	},
	"scene":0,
	"scenes":[
		{
			"name":"Scene",
			"nodes":[
				0
			]
		}
	],
	"nodes":[
		{
			"mesh":0,
			"name":"hair.006"
		}
	],
	"materials":[
		{
			"doubleSided":true,
			"name":"mii hair",
			"pbrMetallicRoughness":{
				"baseColorFactor":[
					0.06388100236654282,
					0.03379200026392937,
					0.009719000197947025,
					1
				],
				"metallicFactor":0,
				"roughnessFactor":0.800000011920929
			}
		}
	],
	"meshes":[
		{
			"name":"shape_437out.001",
			"primitives":[
				{
					"attributes":{
						"POSITION":0,
						"NORMAL":1,
						"TEXCOORD_0":2
					},
					"indices":3,
					"material":0
				}
			]
		}
	],
	"accessors":[
		{
			"bufferView":0,
			"componentType":5126,
			"count":733,
			"max":[
				0.3678576350212097,
				-1.6901395320892334,
				0.3160507082939148
			],
			"min":[
				-0.3678576350212097,
				-2.4551925659179688,
				-0.4277161955833435
			],
			"type":"VEC3"
		},
		{
			"bufferView":1,
			"componentType":5126,
			"count":733,
			"type":"VEC3"
		},
		{
			"bufferView":2,
			"componentType":5126,
			"count":733,
			"type":"VEC2"
		},
		{
			"bufferView":3,
			"componentType":5123,
			"count":3978,
			"type":"SCALAR"
		}
	],
	"bufferViews":[
		{
			"buffer":0,
			"byteLength":8796,
			"byteOffset":0,
			"target":34962
		},
		{
			"buffer":0,
			"byteLength":8796,
			"byteOffset":8796,
			"target":34962
		},
		{
			"buffer":0,
			"byteLength":5864,
			"byteOffset":17592,
			"target":34962
		},
		{
			"buffer":0,
			"byteLength":7956,
			"byteOffset":23456,
			"target":34963
		}
	],
	"buffers":[
		{
			"byteLength":31412,
			"uri":"hair_hair_006.bin"
		}
	]
}
