{
	"asset":{
		"generator":"Khronos glTF Blender I/O v5.2.39",
		"version":"2.0"
	},
	"scene":0,
	"scenes":[
		{
			"name":"Scene",
			"nodes":[
				0
			]
		}
	],
	"nodes":[
		{
			"mesh":0,
			"name":"hair.134"
		}
	],
	"materials":[
		{
			"doubleSided":true,
			"name":"mii hair",
			"pbrMetallicRoughness":{
				"baseColorFactor":[
					0.06388100236654282,
					0.03379200026392937,
					0.009719000197947025,
					1
				],
				"metallicFactor":0,
				"roughnessFactor":0.800000011920929
			}
		}
	],
	"meshes":[
		{
			"name":"shape_405out.002",
			"primitives":[
				{
					"attributes":{
						"POSITION":0,
						"NORMAL":1,
						"TEXCOORD_0":2
					},
					"indices":3,
					"material":0
				}
			]
		}
	],
	"accessors":[
		{
			"bufferView":0,
			"componentType":5126,
			"count":195,
			"max":[
				0.06768069416284561,
				0.024890506640076637,
				0.04884388670325279
			],
			"min":[
				-0.06768069416284561,
				-0.11843963712453842,
				-0.08749327063560486
			],
			"type":"VEC3"
		},
		{
			"bufferView":1,
			"componentType":5126,
			"count":195,
			"type":"VEC3"
		},
		{
			"bufferView":2,
			"componentType":5126,
			"count":195,
			"type":"VEC2"
		},
		{
			"bufferView":3,
			"componentType":5123,
			"count":1041,
			"type":"SCALAR"
		}
	],
	"bufferViews":[
		{
			"buffer":0,
			"byteLength":2340,
			"byteOffset":0,
			"target":34962
		},
		{
			"buffer":0,
			"byteLength":2340,
			"byteOffset":2340,
			"target":34962
		},
		{
			"buffer":0,
			"byteLength":1560,
			"byteOffset":4680,
			"target":34962
		},
		{
			"buffer":0,
			"byteLength":2082,
			"byteOffset":6240,
			"target":34963
		}
	],
	"buffers":[
		{
			"byteLength":8324,
			"uri":"hair_031.bin"
		}
	]
}
