{
	"asset":{
		"generator":"Khronos glTF Blender I/O v5.2.39",
		"version":"2.0"
	},
	"scene":0,
	"scenes":[
		{
			"name":"Scene",
			"nodes":[
				0
			]
		}
	],
	"nodes":[
		{
			"mesh":0,
			"name":"hair.043"
		}
	],
	"materials":[
		{
			"doubleSided":true,
			"name":"mii hair",
			"pbrMetallicRoughness":{
				"baseColorFactor":[
					0.06388100236654282,
					0.03379200026392937,
					0.009719000197947025,
					1
				],
				"metallicFactor":0,
				"roughnessFactor":0.800000011920929
			}
		}
	],
	"meshes":[
		{
			"name":"shape_417out.001",
			"primitives":[
				{
					"attributes":{
						"POSITION":0,
						"NORMAL":1,
						"TEXCOORD_0":2
					},
					"indices":3,
					"material":0
				}
			]
		}
	],
	"accessors":[
		{
			"bufferView":0,
			"componentType":5126,
			"count":509,
			"max":[
				0.34193265438079834,
				-1.6878888607025146,
				0.17098137736320496
			],
			"min":[
				-0.34201037883758545,
				-2.411548137664795,
				-0.4316045641899109
			],
			"type":"VEC3"
		},
		{
			"bufferView":1,
			"componentType":5126,
			"count":509,
			"type":"VEC3"
		},
		{
			"bufferView":2,
			"componentType":5126,
			"count":509,
			"type":"VEC2"
		},
		{
			"bufferView":3,
			"componentType":5123,
			"count":2766,
			"type":"SCALAR"
		}
	],
	"bufferViews":[
		{
			"buffer":0,
			"byteLength":6108,
			"byteOffset":0,
			"target":34962
		},
		{
			"buffer":0,
			"byteLength":6108,
			"byteOffset":6108,
			"target":34962
		},
		{
			"buffer":0,
			"byteLength":4072,
			"byteOffset":12216,
			"target":34962
		},
		{
			"buffer":0,
			"byteLength":5532,
			"byteOffset":16288,
			"target":34963
		}
	],
	"buffers":[
		{
			"byteLength":21820,
			"uri":"hair_hair_043.bin"
		}
	]
}
