{
	"asset":{
		"generator":"Khronos glTF Blender I/O v5.2.39",
		"version":"2.0"
	},
	"scene":0,
	"scenes":[
		{
			"name":"Scene",
			"nodes":[
				0
			]
		}
	],
	"nodes":[
		{
			"mesh":0,
			"name":"hair.083"
		}
	],
	"materials":[
		{
			"doubleSided":true,
			"name":"mii hair",
			"pbrMetallicRoughness":{
				"baseColorFactor":[
					0.06388100236654282,
					0.03379200026392937,
					0.009719000197947025,
					1
				],
				"metallicFactor":0,
				"roughnessFactor":0.800000011920929
			}
		}
	],
	"meshes":[
		{
			"name":"shape_401out.001",
			"primitives":[
				{
					"attributes":{
						"POSITION":0,
						"NORMAL":1,
						"TEXCOORD_0":2
					},
					"indices":3,
					"material":0
				}
			]
		}
	],
	"accessors":[
		{
			"bufferView":0,
			"componentType":5126,
			"count":735,
			"max":[
				0.44494718313217163,
				-1.6934213638305664,
				0.3619725704193115
			],
			"min":[
				-0.44494718313217163,
				-2.6062803268432617,
				-0.46702277660369873
			],
			"type":"VEC3"
		},
		{
			"bufferView":1,
			"componentType":5126,
			"count":735,
			"type":"VEC3"
		},
		{
			"bufferView":2,
			"componentType":5126,
			"count":735,
			"type":"VEC2"
		},
		{
			"bufferView":3,
			"componentType":5123,
			"count":3876,
			"type":"SCALAR"
		}
	],
	"bufferViews":[
		{
			"buffer":0,
			"byteLength":8820,
			"byteOffset":0,
			"target":34962
		},
		{
			"buffer":0,
			"byteLength":8820,
			"byteOffset":8820,
			"target":34962
		},
		{
			"buffer":0,
			"byteLength":5880,
			"byteOffset":17640,
			"target":34962
		},
		{
			"buffer":0,
			"byteLength":7752,
			"byteOffset":23520,
			"target":34963
		}
	],
	"buffers":[
		{
			"byteLength":31272,
			"uri":"hair_hair_083.bin"
		}
	]
}
