{
	"asset":{
		"generator":"Khronos glTF Blender I/O v5.2.39",
		"version":"2.0"
	},
	"scene":0,
	"scenes":[
		{
			"name":"Scene",
			"nodes":[
				0
			]
		}
	],
	"nodes":[
		{
			"mesh":0,
			"name":"torso m",
			"scale":[
				0.3652559518814087,
				0.3652559518814087,
				0.3652559518814087
			],
			"translation":[
				0.6600704789161682,
				1.3163214921951294,
				0
			]
		}
	],
	"materials":[
		{
			"doubleSided":true,
			"name":"mii shirt",
			"pbrMetallicRoughness":{
				"baseColorFactor":[
					1,
					0,
					0,
					1
				],
				"metallicFactor":0,
				"roughnessFactor":0.800000011920929
			}
		},
		{
			"doubleSided":true,
			"name":"mii pants",
			"pbrMetallicRoughness":{
				"baseColorFactor":[
					0.1003350019454956,
					0.07413499802350998,
					0.05993900075554848,
					1
				],
				"metallicFactor":0,
				"roughnessFactor":0.800000011920929
			}
		}
	],
	"meshes":[
		{
			"name":"Cube.011",
			"primitives":[
				{
					"attributes":{
						"POSITION":0,
						"NORMAL":1,
						"TEXCOORD_0":2
					},
					"indices":3,
					"material":0
				},
				{
					"attributes":{
						"POSITION":4,
						"NORMAL":5,
						"TEXCOORD_0":6
					},
					"indices":7,
					"material":1
				}
			]
		}
	],
	"accessors":[
		{
			"bufferView":0,
			"componentType":5126,
			"count":185,
			"max":[
				0.5555956959724426,
				0.43408113718032837,
				0.12391969561576843
			],
			"min":[
				-0.5555956959724426,
				-0.02701541781425476,
				-0.10396769642829895
			],
			"type":"VEC3"
		},
		{
			"bufferView":1,
			"componentType":5126,
			"count":185,
			"type":"VEC3"
		},
		{
			"bufferView":2,
			"componentType":5126,
			"count":185,
			"type":"VEC2"
		},
		{
			"bufferView":3,
			"componentType":5123,
			"count":1032,
			"type":"SCALAR"
		},
		{
			"bufferView":4,
			"componentType":5126,
			"count":207,
			"max":[
				0.14871986210346222,
				-0.02701541781425476,
				0.10792594403028488
			],
			"min":[
				-0.14871986210346222,
				-0.5149829387664795,
				-0.12427196651697159
			],
			"type":"VEC3"
		},
		{
			"bufferView":5,
			"componentType":5126,
			"count":207,
			"type":"VEC3"
		},
		{
			"bufferView":6,
			"componentType":5126,
			"count":207,
			"type":"VEC2"
		},
		{
			"bufferView":7,
			"componentType":5123,
			"count":984,
			"type":"SCALAR"
		}
	],
	"bufferViews":[
		{
			"buffer":0,
			"byteLength":2220,
			"byteOffset":0,
			"target":34962
		},
		{
			"buffer":0,
			"byteLength":2220,
			"byteOffset":2220,
			"target":34962
		},
		{
			"buffer":0,
			"byteLength":1480,
			"byteOffset":4440,
			"target":34962
		},
		{
			"buffer":0,
			"byteLength":2064,
			"byteOffset":5920,
			"target":34963
		},
		{
			"buffer":0,
			"byteLength":2484,
			"byteOffset":7984,
			"target":34962
		},
		{
			"buffer":0,
			"byteLength":2484,
			"byteOffset":10468,
			"target":34962
		},
		{
			"buffer":0,
			"byteLength":1656,
			"byteOffset":12952,
			"target":34962
		},
		{
			"buffer":0,
			"byteLength":1968,
			"byteOffset":14608,
			"target":34963
		}
	],
	"buffers":[
		{
			"byteLength":16576,
			"uri":"body_torso_m.bin"
		}
	]
}
