{
	"asset":{
		"generator":"Khronos glTF Blender I/O v5.2.39",
		"version":"2.0"
	},
	"scene":0,
	"scenes":[
		{
			"name":"Scene",
			"nodes":[
				0
			]
		}
	],
	"nodes":[
		{
			"mesh":0,
			"name":"torso f",
			"scale":[
				0.3652559518814087,
				0.3652559518814087,
				0.3652559518814087
			],
			"translation":[
				1.157802700996399,
				1.3190338611602783,
				0
			]
		}
	],
	"materials":[
		{
			"doubleSided":true,
			"name":"mii shirt",
			"pbrMetallicRoughness":{
				"baseColorFactor":[
					1,
					0,
					0,
					1
				],
				"metallicFactor":0,
				"roughnessFactor":0.800000011920929
			}
		},
		{
			"doubleSided":true,
			"name":"mii pants",
			"pbrMetallicRoughness":{
				"baseColorFactor":[
					0.1003350019454956,
					0.07413499802350998,
					0.05993900075554848,
					1
				],
				"metallicFactor":0,
				"roughnessFactor":0.800000011920929
			}
		}
	],
	"meshes":[
		{
			"name":"Cube.014",
			"primitives":[
				{
					"attributes":{
						"POSITION":0,
						"NORMAL":1,
						"TEXCOORD_0":2
					},
					"indices":3,
					"material":0
				},
				{
					"attributes":{
						"POSITION":4,
						"NORMAL":5,
						"TEXCOORD_0":6
					},
					"indices":7,
					"material":1
				}
			]
		}
	],
	"accessors":[
		{
			"bufferView":0,
			"componentType":5126,
			"count":202,
			"max":[
				0.5555956959724426,
				0.43408113718032837,
				0.19451801478862762
			],
			"min":[
				-0.5555956959724426,
				-0.1869073361158371,
				-0.18748930096626282
			],
			"type":"VEC3"
		},
		{
			"bufferView":1,
			"componentType":5126,
			"count":202,
			"type":"VEC3"
		},
		{
			"bufferView":2,
			"componentType":5126,
			"count":202,
			"type":"VEC2"
		},
		{
			"bufferView":3,
			"componentType":5123,
			"count":1128,
			"type":"SCALAR"
		},
		{
			"bufferView":4,
			"componentType":5126,
			"count":207,
			"max":[
				0.14871986210346222,
				-0.02701541781425476,
				0.10792594403028488
			],
			"min":[
				-0.14871986210346222,
				-0.5149829387664795,
				-0.12427196651697159
			],
			"type":"VEC3"
		},
		{
			"bufferView":5,
			"componentType":5126,
			"count":207,
			"type":"VEC3"
		},
		{
			"bufferView":6,
			"componentType":5126,
			"count":207,
			"type":"VEC2"
		},
		{
			"bufferView":7,
			"componentType":5123,
			"count":984,
			"type":"SCALAR"
		}
	],
	"bufferViews":[
		{
			"buffer":0,
			"byteLength":2424,
			"byteOffset":0,
			"target":34962
		},
		{
			"buffer":0,
			"byteLength":2424,
			"byteOffset":2424,
			"target":34962
		},
		{
			"buffer":0,
			"byteLength":1616,
			"byteOffset":4848,
			"target":34962
		},
		{
			"buffer":0,
			"byteLength":2256,
			"byteOffset":6464,
			"target":34963
		},
		{
			"buffer":0,
			"byteLength":2484,
			"byteOffset":8720,
			"target":34962
		},
		{
			"buffer":0,
			"byteLength":2484,
			"byteOffset":11204,
			"target":34962
		},
		{
			"buffer":0,
			"byteLength":1656,
			"byteOffset":13688,
			"target":34962
		},
		{
			"buffer":0,
			"byteLength":1968,
			"byteOffset":15344,
			"target":34963
		}
	],
	"buffers":[
		{
			"byteLength":17312,
			"uri":"body_torso_f.bin"
		}
	]
}
