{
	"asset":{
		"generator":"Khronos glTF Blender I/O v5.2.39",
		"version":"2.0"
	},
	"scene":0,
	"scenes":[
		{
			"name":"Scene",
			"nodes":[
				0
			]
		}
	],
	"nodes":[
		{
			"mesh":0,
			"name":"head.014",
			"scale":[
				0.361865758895874,
				0.361865758895874,
				0.361865758895874
			],
			"translation":[
				0.8046888709068298,
				0.9554386734962463,
				0.061319250613451004
			]
		}
	],
	"materials":[
		{
			"doubleSided":true,
			"name":"mii beard"
		}
	],
	"meshes":[
		{
			"name":"Cube.075",
			"primitives":[
				{
					"attributes":{
						"POSITION":0,
						"NORMAL":1,
						"TEXCOORD_0":2
					},
					"indices":3,
					"material":0
				}
			]
		}
	],
	"accessors":[
		{
			"bufferView":0,
			"componentType":5126,
			"count":1969,
			"max":[
				0.395335853099823,
				0.7289719581604004,
				0.18347693979740143
			],
			"min":[
				-0.39533311128616333,
				-0.18444699048995972,
				-0.20986607670783997
			],
			"type":"VEC3"
		},
		{
			"bufferView":1,
			"componentType":5126,
			"count":1969,
			"type":"VEC3"
		},
		{
			"bufferView":2,
			"componentType":5126,
			"count":1969,
			"type":"VEC2"
		},
		{
			"bufferView":3,
			"componentType":5123,
			"count":10752,
			"type":"SCALAR"
		}
	],
	"bufferViews":[
		{
			"buffer":0,
			"byteLength":23628,
			"byteOffset":0,
			"target":34962
		},
		{
			"buffer":0,
			"byteLength":23628,
			"byteOffset":23628,
			"target":34962
		},
		{
			"buffer":0,
			"byteLength":15752,
			"byteOffset":47256,
			"target":34962
		},
		{
			"buffer":0,
			"byteLength":21504,
			"byteOffset":63008,
			"target":34963
		}
	],
	"buffers":[
		{
			"byteLength":84512,
			"uri":"beard_head_014.bin"
		}
	]
}
