{
	"asset":{
		"generator":"Khronos glTF Blender I/O v5.2.39",
		"version":"2.0"
	},
	"scene":0,
	"scenes":[
		{
			"name":"Scene",
			"nodes":[
				0
			]
		}
	],
	"nodes":[
		{
			"mesh":0,
			"name":"head.015",
			"scale":[
				0.361865758895874,
				0.361865758895874,
				0.361865758895874
			],
			"translation":[
				1.1360535621643066,
				0.9554386138916016,
				0.061319250613451004
			]
		}
	],
	"materials":[
		{
			"doubleSided":true,
			"name":"mii beard"
		}
	],
	"meshes":[
		{
			"name":"Cube.076",
			"primitives":[
				{
					"attributes":{
						"POSITION":0,
						"NORMAL":1,
						"TEXCOORD_0":2
					},
					"indices":3,
					"material":0
				}
			]
		}
	],
	"accessors":[
		{
			"bufferView":0,
			"componentType":5126,
			"count":1977,
			"max":[
				0.39533552527427673,
				0.7289716601371765,
				0.18347693979740143
			],
			"min":[
				-0.3953334391117096,
				-0.18444731831550598,
				-0.20986607670783997
			],
			"type":"VEC3"
		},
		{
			"bufferView":1,
			"componentType":5126,
			"count":1977,
			"type":"VEC3"
		},
		{
			"bufferView":2,
			"componentType":5126,
			"count":1977,
			"type":"VEC2"
		},
		{
			"bufferView":3,
			"componentType":5123,
			"count":10752,
			"type":"SCALAR"
		}
	],
	"bufferViews":[
		{
			"buffer":0,
			"byteLength":23724,
			"byteOffset":0,
			"target":34962
		},
		{
			"buffer":0,
			"byteLength":23724,
			"byteOffset":23724,
			"target":34962
		},
		{
			"buffer":0,
			"byteLength":15816,
			"byteOffset":47448,
			"target":34962
		},
		{
			"buffer":0,
			"byteLength":21504,
			"byteOffset":63264,
			"target":34963
		}
	],
	"buffers":[
		{
			"byteLength":84768,
			"uri":"beard_head_015.bin"
		}
	]
}
