{
	"asset":{
		"generator":"Khronos glTF Blender I/O v5.2.39",
		"version":"2.0"
	},
	"scene":0,
	"scenes":[
		{
			"name":"Scene",
			"nodes":[
				0
			]
		}
	],
	"nodes":[
		{
			"mesh":0,
			"name":"head.010"
		}
	],
	"materials":[
		{
			"doubleSided":true,
			"name":"mii skin",
			"pbrMetallicRoughness":{
				"baseColorFactor":[
					0.4773690104484558,
					0.30017998814582825,
					0.09674499928951263,
					1
				],
				"metallicFactor":0,
				"roughnessFactor":0.800000011920929
			}
		}
	],
	"meshes":[
		{
			"name":"Cube.026",
			"primitives":[
				{
					"attributes":{
						"POSITION":0,
						"NORMAL":1,
						"TEXCOORD_0":2
					},
					"indices":3,
					"material":0
				}
			]
		}
	],
	"accessors":[
		{
			"bufferView":0,
			"componentType":5126,
			"count":1010,
			"max":[
				0.30949628353118896,
				0.4199872612953186,
				0.3536619544029236
			],
			"min":[
				-0.3094962537288666,
				-0.4206244647502899,
				-0.33699744939804077
			],
			"type":"VEC3"
		},
		{
			"bufferView":1,
			"componentType":5126,
			"count":1010,
			"type":"VEC3"
		},
		{
			"bufferView":2,
			"componentType":5126,
			"count":1010,
			"type":"VEC2"
		},
		{
			"bufferView":3,
			"componentType":5123,
			"count":5376,
			"type":"SCALAR"
		}
	],
	"bufferViews":[
		{
			"buffer":0,
			"byteLength":12120,
			"byteOffset":0,
			"target":34962
		},
		{
			"buffer":0,
			"byteLength":12120,
			"byteOffset":12120,
			"target":34962
		},
		{
			"buffer":0,
			"byteLength":8080,
			"byteOffset":24240,
			"target":34962
		},
		{
			"buffer":0,
			"byteLength":10752,
			"byteOffset":32320,
			"target":34963
		}
	],
	"buffers":[
		{
			"byteLength":43072,
			"uri":"head_head_010.bin"
		}
	]
}
