{
	"asset":{
		"generator":"Khronos glTF Blender I/O v5.2.39",
		"version":"2.0"
	},
	"scene":0,
	"scenes":[
		{
			"name":"Scene",
			"nodes":[
				0
			]
		}
	],
	"nodes":[
		{
			"mesh":0,
			"name":"head.008"
		}
	],
	"materials":[
		{
			"doubleSided":true,
			"name":"mii skin",
			"pbrMetallicRoughness":{
				"baseColorFactor":[
					0.4773690104484558,
					0.30017998814582825,
					0.09674499928951263,
					1
				],
				"metallicFactor":0,
				"roughnessFactor":0.800000011920929
			}
		}
	],
	"meshes":[
		{
			"name":"Cube.023",
			"primitives":[
				{
					"attributes":{
						"POSITION":0,
						"NORMAL":1,
						"TEXCOORD_0":2
					},
					"indices":3,
					"material":0
				}
			]
		}
	],
	"accessors":[
		{
			"bufferView":0,
			"componentType":5126,
			"count":1030,
			"max":[
				0.3116791248321533,
				1.6450366973876953,
				0.3001554608345032
			],
			"min":[
				-0.3116791248321533,
				0.8553665280342102,
				-0.383988618850708
			],
			"type":"VEC3"
		},
		{
			"bufferView":1,
			"componentType":5126,
			"count":1030,
			"type":"VEC3"
		},
		{
			"bufferView":2,
			"componentType":5126,
			"count":1030,
			"type":"VEC2"
		},
		{
			"bufferView":3,
			"componentType":5123,
			"count":5376,
			"type":"SCALAR"
		}
	],
	"bufferViews":[
		{
			"buffer":0,
			"byteLength":12360,
			"byteOffset":0,
			"target":34962
		},
		{
			"buffer":0,
			"byteLength":12360,
			"byteOffset":12360,
			"target":34962
		},
		{
			"buffer":0,
			"byteLength":8240,
			"byteOffset":24720,
			"target":34962
		},
		{
			"buffer":0,
			"byteLength":10752,
			"byteOffset":32960,
			"target":34963
		}
	],
	"buffers":[
		{
			"byteLength":43712,
			"uri":"head_head_008.bin"
		}
	]
}
