{
	"asset":{
		"generator":"Khronos glTF Blender I/O v5.2.39",
		"version":"2.0"
	},
	"scene":0,
	"scenes":[
		{
			"name":"Scene",
			"nodes":[
				0
			]
		}
	],
	"nodes":[
		{
			"mesh":0,
			"name":"head.011"
		}
	],
	"materials":[
		{
			"doubleSided":true,
			"name":"mii skin",
			"pbrMetallicRoughness":{
				"baseColorFactor":[
					0.4773690104484558,
					0.30017998814582825,
					0.09674499928951263,
					1
				],
				"metallicFactor":0,
				"roughnessFactor":0.800000011920929
			}
		}
	],
	"meshes":[
		{
			"name":"Cube.028",
			"primitives":[
				{
					"attributes":{
						"POSITION":0,
						"NORMAL":1,
						"TEXCOORD_0":2
					},
					"indices":3,
					"material":0
				}
			]
		}
	],
	"accessors":[
		{
			"bufferView":0,
			"componentType":5126,
			"count":1011,
			"max":[
				0.3114006519317627,
				0.4124559462070465,
				0.35314667224884033
			],
			"min":[
				-0.3114006519317627,
				-0.4252493381500244,
				-0.3369002342224121
			],
			"type":"VEC3"
		},
		{
			"bufferView":1,
			"componentType":5126,
			"count":1011,
			"type":"VEC3"
		},
		{
			"bufferView":2,
			"componentType":5126,
			"count":1011,
			"type":"VEC2"
		},
		{
			"bufferView":3,
			"componentType":5123,
			"count":5376,
			"type":"SCALAR"
		}
	],
	"bufferViews":[
		{
			"buffer":0,
			"byteLength":12132,
			"byteOffset":0,
			"target":34962
		},
		{
			"buffer":0,
			"byteLength":12132,
			"byteOffset":12132,
			"target":34962
		},
		{
			"buffer":0,
			"byteLength":8088,
			"byteOffset":24264,
			"target":34962
		},
		{
			"buffer":0,
			"byteLength":10752,
			"byteOffset":32352,
			"target":34963
		}
	],
	"buffers":[
		{
			"byteLength":43104,
			"uri":"head_head_011.bin"
		}
	]
}
