{
	"asset":{
		"generator":"Khronos glTF Blender I/O v5.2.39",
		"version":"2.0"
	},
	"scene":0,
	"scenes":[
		{
			"name":"Scene",
			"nodes":[
				0
			]
		}
	],
	"nodes":[
		{
			"mesh":0,
			"name":"head.003",
			"scale":[
				0.23291370272636414,
				0.23291370272636414,
				0.23291370272636414
			],
			"translation":[
				0.8999995589256287,
				1.4999990463256836,
				0
			]
		}
	],
	"materials":[
		{
			"doubleSided":true,
			"name":"mii skin",
			"pbrMetallicRoughness":{
				"baseColorFactor":[
					0.4773690104484558,
					0.30017998814582825,
					0.09674499928951263,
					1
				],
				"metallicFactor":0,
				"roughnessFactor":0.800000011920929
			}
		}
	],
	"meshes":[
		{
			"name":"Cube.017",
			"primitives":[
				{
					"attributes":{
						"POSITION":0,
						"NORMAL":1,
						"TEXCOORD_0":2
					},
					"indices":3,
					"material":0
				}
			]
		}
	],
	"accessors":[
		{
			"bufferView":0,
			"componentType":5126,
			"count":1006,
			"max":[
				0.3102511167526245,
				0.40501970052719116,
				0.2996542751789093
			],
			"min":[
				-0.3102511167526245,
				-0.4032065272331238,
				-0.37946683168411255
			],
			"type":"VEC3"
		},
		{
			"bufferView":1,
			"componentType":5126,
			"count":1006,
			"type":"VEC3"
		},
		{
			"bufferView":2,
			"componentType":5126,
			"count":1006,
			"type":"VEC2"
		},
		{
			"bufferView":3,
			"componentType":5123,
			"count":5376,
			"type":"SCALAR"
		}
	],
	"bufferViews":[
		{
			"buffer":0,
			"byteLength":12072,
			"byteOffset":0,
			"target":34962
		},
		{
			"buffer":0,
			"byteLength":12072,
			"byteOffset":12072,
			"target":34962
		},
		{
			"buffer":0,
			"byteLength":8048,
			"byteOffset":24144,
			"target":34962
		},
		{
			"buffer":0,
			"byteLength":10752,
			"byteOffset":32192,
			"target":34963
		}
	],
	"buffers":[
		{
			"byteLength":42944,
			"uri":"head_head_003.bin"
		}
	]
}
