{
	"asset":{
		"generator":"Khronos glTF Blender I/O v5.2.39",
		"version":"2.0"
	},
	"scene":0,
	"scenes":[
		{
			"name":"Scene",
			"nodes":[
				0
			]
		}
	],
	"nodes":[
		{
			"mesh":0,
			"name":"head.006"
		}
	],
	"materials":[
		{
			"doubleSided":true,
			"name":"mii skin",
			"pbrMetallicRoughness":{
				"baseColorFactor":[
					0.4773690104484558,
					0.30017998814582825,
					0.09674499928951263,
					1
				],
				"metallicFactor":0,
				"roughnessFactor":0.800000011920929
			}
		}
	],
	"meshes":[
		{
			"name":"Cube.021",
			"primitives":[
				{
					"attributes":{
						"POSITION":0,
						"NORMAL":1,
						"TEXCOORD_0":2
					},
					"indices":3,
					"material":0
				}
			]
		}
	],
	"accessors":[
		{
			"bufferView":0,
			"componentType":5126,
			"count":1009,
			"max":[
				0.31286805868148804,
				0.37572669982910156,
				0.34776178002357483
			],
			"min":[
				-0.31286805868148804,
				-0.39584600925445557,
				-0.333126962184906
			],
			"type":"VEC3"
		},
		{
			"bufferView":1,
			"componentType":5126,
			"count":1009,
			"type":"VEC3"
		},
		{
			"bufferView":2,
			"componentType":5126,
			"count":1009,
			"type":"VEC2"
		},
		{
			"bufferView":3,
			"componentType":5123,
			"count":5376,
			"type":"SCALAR"
		}
	],
	"bufferViews":[
		{
			"buffer":0,
			"byteLength":12108,
			"byteOffset":0,
			"target":34962
		},
		{
			"buffer":0,
			"byteLength":12108,
			"byteOffset":12108,
			"target":34962
		},
		{
			"buffer":0,
			"byteLength":8072,
			"byteOffset":24216,
			"target":34962
		},
		{
			"buffer":0,
			"byteLength":10752,
			"byteOffset":32288,
			"target":34963
		}
	],
	"buffers":[
		{
			"byteLength":43040,
			"uri":"head_head_006.bin"
		}
	]
}
