{
	"asset":{
		"generator":"Khronos glTF Blender I/O v5.2.39",
		"version":"2.0"
	},
	"scene":0,
	"scenes":[
		{
			"name":"Scene",
			"nodes":[
				0
			]
		}
	],
	"nodes":[
		{
			"mesh":0,
			"name":"head.009",
			"scale":[
				0.23291370272636414,
				0.23291370272636414,
				0.23291370272636414
			],
			"translation":[
				-0.6000009179115295,
				0,
				0
			]
		}
	],
	"materials":[
		{
			"doubleSided":true,
			"name":"mii skin",
			"pbrMetallicRoughness":{
				"baseColorFactor":[
					0.4773690104484558,
					0.30017998814582825,
					0.09674499928951263,
					1
				],
				"metallicFactor":0,
				"roughnessFactor":0.800000011920929
			}
		}
	],
	"meshes":[
		{
			"name":"Cube.024",
			"primitives":[
				{
					"attributes":{
						"POSITION":0,
						"NORMAL":1,
						"TEXCOORD_0":2
					},
					"indices":3,
					"material":0
				}
			]
		}
	],
	"accessors":[
		{
			"bufferView":0,
			"componentType":5126,
			"count":1005,
			"max":[
				0.3100440800189972,
				0.40491536259651184,
				0.29953306913375854
			],
			"min":[
				-0.3100440502166748,
				-0.40394583344459534,
				-0.3794077932834625
			],
			"type":"VEC3"
		},
		{
			"bufferView":1,
			"componentType":5126,
			"count":1005,
			"type":"VEC3"
		},
		{
			"bufferView":2,
			"componentType":5126,
			"count":1005,
			"type":"VEC2"
		},
		{
			"bufferView":3,
			"componentType":5123,
			"count":5376,
			"type":"SCALAR"
		}
	],
	"bufferViews":[
		{
			"buffer":0,
			"byteLength":12060,
			"byteOffset":0,
			"target":34962
		},
		{
			"buffer":0,
			"byteLength":12060,
			"byteOffset":12060,
			"target":34962
		},
		{
			"buffer":0,
			"byteLength":8040,
			"byteOffset":24120,
			"target":34962
		},
		{
			"buffer":0,
			"byteLength":10752,
			"byteOffset":32160,
			"target":34963
		}
	],
	"buffers":[
		{
			"byteLength":42912,
			"uri":"head_head_009.bin"
		}
	]
}
