{
	"asset":{
		"generator":"Khronos glTF Blender I/O v5.2.39",
		"version":"2.0"
	},
	"scene":0,
	"scenes":[
		{
			"name":"Scene",
			"nodes":[
				0
			]
		}
	],
	"nodes":[
		{
			"mesh":0,
			"name":"head.002"
		}
	],
	"materials":[
		{
			"doubleSided":true,
			"name":"mii skin",
			"pbrMetallicRoughness":{
				"baseColorFactor":[
					0.4773690104484558,
					0.30017998814582825,
					0.09674499928951263,
					1
				],
				"metallicFactor":0,
				"roughnessFactor":0.800000011920929
			}
		}
	],
	"meshes":[
		{
			"name":"Cube.016",
			"primitives":[
				{
					"attributes":{
						"POSITION":0,
						"NORMAL":1,
						"TEXCOORD_0":2
					},
					"indices":3,
					"material":0
				}
			]
		}
	],
	"accessors":[
		{
			"bufferView":0,
			"componentType":5126,
			"count":1005,
			"max":[
				0.31009960174560547,
				0.3972151279449463,
				0.36542806029319763
			],
			"min":[
				-0.31009960174560547,
				-0.3832913935184479,
				-0.31889608502388
			],
			"type":"VEC3"
		},
		{
			"bufferView":1,
			"componentType":5126,
			"count":1005,
			"type":"VEC3"
		},
		{
			"bufferView":2,
			"componentType":5126,
			"count":1005,
			"type":"VEC2"
		},
		{
			"bufferView":3,
			"componentType":5123,
			"count":5376,
			"type":"SCALAR"
		}
	],
	"bufferViews":[
		{
			"buffer":0,
			"byteLength":12060,
			"byteOffset":0,
			"target":34962
		},
		{
			"buffer":0,
			"byteLength":12060,
			"byteOffset":12060,
			"target":34962
		},
		{
			"buffer":0,
			"byteLength":8040,
			"byteOffset":24120,
			"target":34962
		},
		{
			"buffer":0,
			"byteLength":10752,
			"byteOffset":32160,
			"target":34963
		}
	],
	"buffers":[
		{
			"byteLength":42912,
			"uri":"head_head_002.bin"
		}
	]
}
